<svg width="252" height="250" viewBox="0 0 252 250" fill="none" xmlns="http://www.w3.org/2000/svg">
<g clip-path="url(#clip0)">
<path d="M252 125.606C252.028 155.73 241.185 184.858 221.452 207.671C201.719 230.484 174.412 245.46 144.519 249.863H110.392C110.339 249.91 108.447 250 108.447 250C108.129 249.957 107.809 249.91 107.491 249.863C105.061 249.507 102.654 249.082 100.269 248.587C90.9289 246.66 81.8421 243.67 73.187 239.675C73.0967 239.635 73.0098 239.592 72.9196 239.552C68.0964 237.32 63.4222 234.782 58.9259 231.952C58.8123 231.882 58.702 231.812 58.5917 231.742C58.4012 231.622 58.214 231.506 58.0269 231.382C57.9667 231.346 57.9065 231.309 57.8464 231.269C53.8266 228.688 49.9579 225.88 46.2591 222.86C46.0786 222.716 45.8981 222.567 45.7176 222.42C44.9924 221.82 44.2738 221.214 43.5619 220.601C43.5553 220.597 43.5519 220.591 43.5452 220.587C39.9076 217.445 36.4518 214.099 33.1945 210.566C33.1845 210.552 33.1711 210.542 33.1611 210.529C18.8524 195.014 8.699 176.152 3.63965 155.689C3.59955 155.542 3.56613 155.399 3.52936 155.252C1.17844 145.545 -0.00632557 135.593 2.53978e-05 125.606C2.53978e-05 56.2363 56.4126 0 126 0C195.587 0 252 56.2363 252 125.606Z" fill="#3F3D56"/>
<path opacity="0.8" d="M137.649 144.136L148.668 131.276L159.687 118.416L165.908 111.157C166.252 110.755 165.721 110.128 165.377 110.53L154.358 123.39L143.338 136.25L137.118 143.51C136.773 143.911 137.305 144.538 137.649 144.136Z" fill="url(#paint0_linear)"/>
<path d="M140.675 112.083H129.279V249.863H140.675V112.083Z" fill="#2F2E41"/>
<path d="M137.012 162.665L136.989 166.79L136.712 216.853L136.678 222.82L136.605 236.267L136.531 249.863H135.796L135.869 236.267L135.94 223.706L135.976 216.729L136.254 166.8L136.277 162.662L137.012 162.665Z" fill="#00B0FF"/>
<path d="M142.721 113.915H127.279C127.055 111.504 127.612 109.075 129.048 106.627L129.485 103.653H140.147L140.65 106.589C142.144 108.573 142.723 111.079 142.721 113.915Z" fill="#2F2E41"/>
<path d="M140.478 104.019H129.475C129.363 104.019 129.254 103.994 129.154 103.946C129.054 103.897 128.966 103.827 128.897 103.74C128.828 103.653 128.78 103.551 128.756 103.443C128.733 103.335 128.734 103.223 128.76 103.115L130.613 95.418C130.651 95.2579 130.743 95.1154 130.872 95.0135C131.002 94.9115 131.162 94.8561 131.328 94.8561H138.625C138.79 94.8561 138.95 94.9115 139.08 95.0135C139.21 95.1154 139.301 95.2579 139.34 95.418L141.193 103.115C141.219 103.223 141.22 103.335 141.196 103.443C141.172 103.551 141.124 103.653 141.055 103.74C140.986 103.827 140.899 103.897 140.799 103.946C140.699 103.994 140.589 104.019 140.478 104.019Z" fill="#2F2E41"/>
<path d="M134.977 91.0063C133.953 91.0075 132.971 91.4138 132.248 92.1359C131.524 92.8581 131.117 93.837 131.117 94.8578V98.706H138.837V94.8578C138.837 93.837 138.43 92.8581 137.707 92.1359C136.983 91.4138 136.001 91.0075 134.977 91.0063Z" fill="#2F2E41"/>
<path d="M130.696 207.27L104.531 241.122L108.15 241.955L128.469 215.872H130.696V207.27Z" fill="#2F2E41"/>
<path d="M140.315 207.27L166.48 241.122L162.861 241.955L142.542 215.872H140.315V207.27Z" fill="#2F2E41"/>
<path d="M217.034 81.7108V212.448C208.904 220.917 199.629 228.214 189.478 234.131V81.7108H217.034Z" fill="#2F2E41"/>
<path d="M230.116 98.3607H212.023V116.397H230.116V98.3607Z" fill="#2F2E41"/>
<path d="M205.343 38.1483H201.168V85.3193H205.343V38.1483Z" fill="#2F2E41"/>
<g opacity="0.4">
<path opacity="0.4" d="M191.817 81.7107H189.478V234.131C190.264 233.673 191.044 233.206 191.817 232.73V81.7107Z" fill="#E6E6E6"/>
<path opacity="0.4" d="M203.507 38.1483H201.167V81.7107H203.507V38.1483Z" fill="#E6E6E6"/>
</g>
<path d="M209.935 103.217H194.905V111.541H209.935V103.217Z" fill="#00B0FF"/>
<path d="M49.1076 103.63C61.3256 103.63 71.2303 93.7563 71.2303 81.5764C71.2303 69.3966 61.3256 59.5228 49.1076 59.5228C36.8895 59.5228 26.9849 69.3966 26.9849 81.5764C26.9849 93.7563 36.8895 103.63 49.1076 103.63Z" fill="#E6E6E6"/>
<path d="M46.9317 68.9227C48.3338 68.9227 49.4704 67.7896 49.4704 66.3919C49.4704 64.9943 48.3338 63.8612 46.9317 63.8612C45.5297 63.8612 44.3931 64.9943 44.3931 66.3919C44.3931 67.7896 45.5297 68.9227 46.9317 68.9227Z" fill="#CBCBCB"/>
<path d="M51.2838 94.2301C52.6859 94.2301 53.8225 93.097 53.8225 91.6993C53.8225 90.3016 52.6859 89.1686 51.2838 89.1686C49.8817 89.1686 48.7451 90.3016 48.7451 91.6993C48.7451 93.097 49.8817 94.2301 51.2838 94.2301Z" fill="#CBCBCB"/>
<path d="M61.0758 79.4072C62.0773 79.4072 62.8891 78.5979 62.8891 77.5995C62.8891 76.6012 62.0773 75.7919 61.0758 75.7919C60.0743 75.7919 59.2625 76.6012 59.2625 77.5995C59.2625 78.5979 60.0743 79.4072 61.0758 79.4072Z" fill="#CBCBCB"/>
<path d="M40.4035 89.1687C43.6082 89.1687 46.2062 86.5789 46.2062 83.3842C46.2062 80.1894 43.6082 77.5996 40.4035 77.5996C37.1988 77.5996 34.6008 80.1894 34.6008 83.3842C34.6008 86.5789 37.1988 89.1687 40.4035 89.1687Z" fill="#CBCBCB"/>
<path d="M84.2278 117.54C84.888 117.54 85.4231 117.007 85.4231 116.348C85.4231 115.69 84.888 115.157 84.2278 115.157C83.5676 115.157 83.0325 115.69 83.0325 116.348C83.0325 117.007 83.5676 117.54 84.2278 117.54Z" fill="#00B0FF"/>
<path d="M94.5877 133.634L93.9911 134.224L93.3986 133.63L93.0008 134.023L93.5934 134.618L92.9968 135.209L93.3919 135.605L93.9884 135.015L94.581 135.609L94.9787 135.215L94.3862 134.621L94.9827 134.03L94.5877 133.634Z" fill="#E6E6E6"/>
<path d="M99.3689 99.0775L98.7724 99.6682L98.1798 99.0735L97.7821 99.4673L98.3746 100.062L97.7781 100.653L98.1731 101.049L98.7697 100.458L99.3623 101.053L99.76 100.659L99.1674 100.065L99.764 99.474L99.3689 99.0775Z" fill="#E6E6E6"/>
<path d="M114.396 33.5025C113.105 34.3598 111.784 32.3193 113.099 31.5001C114.39 30.6428 115.711 32.6833 114.396 33.5025Z" fill="#E6E6E6"/>
<path d="M39.6238 122.184L38.8027 122.004L38.9825 121.186L38.435 121.066L38.2549 121.885L37.4337 121.706L37.3137 122.251L38.1349 122.431L37.9551 123.25L38.5025 123.369L38.6827 122.55L39.5039 122.73L39.6238 122.184Z" fill="#E6E6E6"/>
<path d="M165.29 23.8978L164.468 23.7182L164.648 22.8993L164.101 22.7797L163.921 23.5986L163.099 23.4194L162.979 23.9651L163.801 24.1447L163.621 24.9633L164.168 25.0829L164.348 24.264L165.17 24.4435L165.29 23.8978Z" fill="#E6E6E6"/>
<path d="M229.46 76.8724L228.638 76.6928L228.818 75.8739L228.271 75.7543L228.091 76.5732L227.269 76.394L227.149 76.9397L227.971 77.1193L227.791 77.9379L228.338 78.0575L228.518 77.2386L229.34 77.4182L229.46 76.8724Z" fill="#E6E6E6"/>
<path d="M74.35 36.8176L73.5288 36.638L73.7086 35.8194L73.1612 35.6998L72.981 36.5184L72.1595 36.3392L72.0396 36.8849L72.8611 37.0645L72.6812 37.8835L73.2287 38.0027L73.4088 37.1841L74.23 37.3634L74.35 36.8176Z" fill="#E6E6E6"/>
<path d="M152.182 64.0117C152.843 64.0117 153.378 63.4782 153.378 62.8201C153.378 62.162 152.843 61.6285 152.182 61.6285C151.522 61.6285 150.987 62.162 150.987 62.8201C150.987 63.4782 151.522 64.0117 152.182 64.0117Z" fill="#00B0FF"/>
<path d="M143.231 80.8706L142.41 80.691L142.59 79.8721L142.042 79.7524L141.862 80.5714L141.041 80.3921L140.921 80.9379L141.742 81.1175L141.563 81.9361L142.11 82.0557L142.29 81.2367L143.111 81.4163L143.231 80.8706Z" fill="#E6E6E6"/>
<path d="M174.95 66.137L174.128 65.9574L174.308 65.1388L173.761 65.0192L173.581 65.8378L172.759 65.6585L172.639 66.2043L173.461 66.3838L173.281 67.2028L173.828 67.3221L174.008 66.5035L174.83 66.6827L174.95 66.137Z" fill="#E6E6E6"/>
<path opacity="0.8" d="M119.601 72.8372L130.62 59.9771L141.64 47.1171L147.86 39.8574C148.204 39.4558 147.673 38.8291 147.329 39.2308L136.31 52.0908L125.29 64.9508L119.07 72.2105C118.726 72.6122 119.257 73.2388 119.601 72.8372Z" fill="url(#paint1_linear)"/>
<path d="M130.844 215.553H128.839V249.544H130.844V215.553Z" fill="#E6E6E6"/>
<path d="M135.538 90.8231C134.719 91.0441 133.996 91.5275 133.479 92.1988C132.963 92.8701 132.682 93.6921 132.681 94.538V94.5713C132.558 94.608 132.447 94.6757 132.359 94.768C132.27 94.8603 132.207 94.9739 132.176 95.0977L130.325 102.797C130.3 102.901 130.298 103.009 130.32 103.114C130.341 103.218 130.386 103.317 130.45 103.402C130.514 103.488 130.596 103.558 130.691 103.609C130.785 103.659 130.89 103.688 130.996 103.694L130.983 103.784L130.933 104.117L130.178 106.449C128.744 108.894 128.62 111.183 128.844 113.596H130.843V207.054L104.76 240.804L106.679 241.244L106.375 241.637L102.755 240.804L128.837 207.054V113.596L127.17 113.446C126.946 111.033 127.407 108.894 128.841 106.449L128.928 104.117L128.978 103.784L128.991 103.694C128.884 103.688 128.78 103.659 128.685 103.609C128.591 103.558 128.509 103.488 128.445 103.402C128.381 103.317 128.336 103.218 128.314 103.114C128.293 103.009 128.295 102.901 128.319 102.797L130.171 95.0977C130.202 94.9739 130.265 94.8603 130.353 94.768C130.442 94.6757 130.553 94.608 130.676 94.5713V94.538C130.676 93.5172 131.083 92.5382 131.806 91.8161C132.53 91.094 133.512 90.6877 134.536 90.6865C134.875 90.6875 135.212 90.7335 135.538 90.8231Z" fill="#E6E6E6"/>
<path d="M144.107 215.553H142.241V215.732L162.421 241.636L164.122 241.245L144.107 215.553Z" fill="#E6E6E6"/>
<path d="M172.082 236.267V242.547C163.204 246.025 153.956 248.48 144.519 249.863H103.41C102.357 249.673 101.308 249.47 100.269 249.254V236.267H172.082Z" fill="#2F2E41"/>
<path d="M136.712 216.853C136.478 216.813 136.23 216.773 135.976 216.729C134.482 216.489 132.681 216.216 130.615 215.933C130.475 215.913 130.331 215.893 130.184 215.873C128.48 215.643 126.605 215.41 124.583 215.18C113.497 213.937 98.0126 212.941 82.2108 214.31C82.6018 212.745 82.9628 211.179 83.3037 209.619L68.1703 211.955L84.5002 203.676C86.0385 195.17 87.0963 186.585 87.6685 177.961L79.4936 179.221L87.8524 174.983C88.4506 164.311 88.1699 157.208 88.1699 157.208C88.1699 157.208 60.8275 171.378 38.963 193.034C38.1609 190.215 37.2819 187.433 36.3461 184.701L24.6017 194.497L34.284 178.997C31.1927 170.923 27.6466 163.028 23.6626 155.352L17.3191 160.643L22.2789 152.707C17.259 143.261 13.3352 137.324 13.3352 137.324C13.3352 137.324 8.86007 144.634 3.5293 155.919C8.55672 176.564 18.7645 195.598 33.1944 211.232C36.4565 214.77 39.9179 218.121 43.5619 221.267C44.2737 221.88 44.9923 222.487 45.7176 223.086C49.5805 226.274 53.6306 229.229 57.8463 231.935C58.0936 232.095 58.341 232.252 58.5916 232.408C71.3519 240.482 85.4713 246.189 100.269 249.254C101.308 249.47 102.357 249.674 103.41 249.863C103.668 249.91 103.925 249.957 104.182 250H108.447C108.447 250 110.339 249.91 110.392 249.863C115.689 245.242 120.492 240.571 124.633 236.267C125.575 235.29 126.481 234.331 127.354 233.398L120.208 229.243L129.379 231.202C129.8 230.739 130.214 230.283 130.615 229.836C132.674 227.544 134.459 225.468 135.94 223.706C136.194 223.399 136.441 223.106 136.678 222.82C139.375 219.575 140.859 217.596 140.859 217.596C140.859 217.596 139.369 217.292 136.712 216.853Z" fill="#2F2E41"/>
<path d="M128.837 113.595H126.839C126.615 111.183 127.173 108.754 128.607 106.309L128.928 104.117L128.978 103.783H130.983L130.933 104.117L130.612 106.309C129.178 108.754 128.62 111.183 128.844 113.595H130.843" fill="#00B0FF"/>
<path d="M130.843 142.432H128.837V166.753H130.843V142.432Z" fill="#00B0FF"/>
<path d="M202.703 41.8133C204.733 41.8133 206.379 40.1725 206.379 38.1484C206.379 36.1244 204.733 34.4835 202.703 34.4835C200.672 34.4835 199.026 36.1244 199.026 38.1484C199.026 40.1725 200.672 41.8133 202.703 41.8133Z" fill="#00B0FF"/>
</g>
<defs>
<linearGradient id="paint0_linear" x1="137.006" y1="127.333" x2="166.02" y2="127.333" gradientUnits="userSpaceOnUse">
<stop stop-color="white"/>
<stop offset="1" stop-color="white" stop-opacity="0.3"/>
</linearGradient>
<linearGradient id="paint1_linear" x1="16915.7" y1="8268.34" x2="19434.4" y2="8268.34" gradientUnits="userSpaceOnUse">
<stop stop-color="white"/>
<stop offset="1" stop-color="white" stop-opacity="0.3"/>
</linearGradient>
<clipPath id="clip0">
<rect width="252" height="250" fill="white"/>
</clipPath>
</defs>
</svg>
