<svg width="10" height="9" viewBox="0 0 10 9" fill="none" xmlns="http://www.w3.org/2000/svg">
<path d="M5 0.125C4.13471 0.125 3.28885 0.381589 2.56938 0.86232C1.84992 1.34305 1.28916 2.02633 0.958029 2.82576C0.626896 3.62519 0.540256 4.50485 0.709066 5.35352C0.877877 6.20219 1.29456 6.98174 1.90641 7.59359C2.51827 8.20545 3.29782 8.62213 4.14648 8.79094C4.99515 8.95975 5.87482 8.87311 6.67424 8.54197C7.47367 8.21084 8.15695 7.65009 8.63768 6.93062C9.11841 6.21115 9.375 5.36529 9.375 4.5C9.375 3.33968 8.91407 2.22688 8.0936 1.40641C7.27312 0.585936 6.16033 0.125 5 0.125ZM5 6.375C4.62916 6.375 4.26665 6.26503 3.95831 6.05901C3.64997 5.85298 3.40964 5.56014 3.26773 5.21753C3.12581 4.87492 3.08868 4.49792 3.16103 4.1342C3.23338 3.77049 3.41195 3.4364 3.67418 3.17417C3.9364 2.91195 4.27049 2.73337 4.63421 2.66103C4.99792 2.58868 5.37492 2.62581 5.71754 2.76773C6.06015 2.90964 6.35298 3.14996 6.55901 3.45831C6.76504 3.76665 6.875 4.12916 6.875 4.5C6.875 4.99728 6.67746 5.47419 6.32583 5.82583C5.9742 6.17746 5.49728 6.375 5 6.375Z" fill="white"/>
</svg>
