<svg width="26" height="24" viewBox="0 0 26 24" fill="none" xmlns="http://www.w3.org/2000/svg">
<path d="M21.75 5.75H18V3.875C18 3.0462 17.6708 2.25134 17.0847 1.66529C16.4987 1.07924 15.7038 0.75 14.875 0.75H11.125C10.2962 0.75 9.50134 1.07924 8.91529 1.66529C8.32924 2.25134 8 3.0462 8 3.875V5.75H4.25C3.25544 5.75 2.30161 6.14509 1.59835 6.84835C0.895088 7.55161 0.5 8.50544 0.5 9.5V19.5C0.5 20.4946 0.895088 21.4484 1.59835 22.1517C2.30161 22.8549 3.25544 23.25 4.25 23.25H21.75C22.7446 23.25 23.6984 22.8549 24.4017 22.1517C25.1049 21.4484 25.5 20.4946 25.5 19.5V9.5C25.5 8.50544 25.1049 7.55161 24.4017 6.84835C23.6984 6.14509 22.7446 5.75 21.75 5.75ZM10.5 3.875C10.5 3.70924 10.5658 3.55027 10.6831 3.43306C10.8003 3.31585 10.9592 3.25 11.125 3.25H14.875C15.0408 3.25 15.1997 3.31585 15.3169 3.43306C15.4342 3.55027 15.5 3.70924 15.5 3.875V5.75H10.5V3.875ZM23 19.5C23 19.8315 22.8683 20.1495 22.6339 20.3839C22.3995 20.6183 22.0815 20.75 21.75 20.75H4.25C3.91848 20.75 3.60054 20.6183 3.36612 20.3839C3.1317 20.1495 3 19.8315 3 19.5V9.5C3 9.16848 3.1317 8.85054 3.36612 8.61612C3.60054 8.3817 3.91848 8.25 4.25 8.25H21.75C22.0815 8.25 22.3995 8.3817 22.6339 8.61612C22.8683 8.85054 23 9.16848 23 9.5V19.5Z" fill="white"/>
</svg>
