<svg width="50" height="50" viewBox="0 0 50 50" fill="none" xmlns="http://www.w3.org/2000/svg">
<path d="M21.8752 35.4169C21.601 35.4185 21.3292 35.3659 21.0754 35.2623C20.8216 35.1586 20.5907 35.0058 20.396 34.8127C20.2008 34.6191 20.0458 34.3886 19.94 34.1348C19.8342 33.8809 19.7798 33.6086 19.7798 33.3336C19.7798 33.0585 19.8342 32.7862 19.94 32.5324C20.0458 32.2785 20.2008 32.0481 20.396 31.8544L27.2919 25.0002L20.6669 18.1044C20.2788 17.7141 20.061 17.186 20.061 16.6357C20.061 16.0853 20.2788 15.5572 20.6669 15.1669C20.8605 14.9716 21.091 14.8166 21.3448 14.7109C21.5987 14.6051 21.871 14.5507 22.146 14.5507C22.4211 14.5507 22.6934 14.6051 22.9472 14.7109C23.2011 14.8166 23.4315 14.9716 23.6252 15.1669L31.6669 23.5002C32.0486 23.8897 32.2624 24.4133 32.2624 24.9586C32.2624 25.5039 32.0486 26.0275 31.6669 26.4169L23.3335 34.7502C23.1465 34.9522 22.9214 35.1151 22.6711 35.2295C22.4208 35.3439 22.1503 35.4076 21.8752 35.4169Z" fill="white"/>
</svg>
