<svg width="18" height="19" viewBox="0 0 18 19" fill="none" xmlns="http://www.w3.org/2000/svg">
<g clip-path="url(#clip0)">
<path d="M5.24987 7.88897C5.2493 7.7901 5.26822 7.69208 5.30554 7.60054C5.34287 7.509 5.39786 7.42574 5.46737 7.35554C5.53709 7.28512 5.62004 7.22923 5.71144 7.19108C5.80283 7.15294 5.90086 7.1333 5.99987 7.1333C6.09888 7.1333 6.19691 7.15294 6.2883 7.19108C6.3797 7.22923 6.46265 7.28512 6.53237 7.35554L8.99987 9.8424L11.4824 7.45321C11.6229 7.31328 11.813 7.23473 12.0111 7.23473C12.2093 7.23473 12.3993 7.31328 12.5399 7.45321C12.6102 7.52305 12.666 7.60615 12.704 7.69771C12.7421 7.78926 12.7617 7.88746 12.7617 7.98665C12.7617 8.08583 12.7421 8.18403 12.704 8.27558C12.666 8.36714 12.6102 8.45024 12.5399 8.52008L9.53987 11.4202C9.39967 11.5578 9.21119 11.6349 9.01487 11.6349C8.81856 11.6349 8.63007 11.5578 8.48987 11.4202L5.48987 8.4149C5.41717 8.34746 5.35853 8.26626 5.31734 8.17599C5.27614 8.08572 5.25321 7.98817 5.24987 7.88897Z" fill="white"/>
</g>
<defs>
<clipPath id="clip0">
<rect width="18.0316" height="18" fill="white" transform="translate(18) rotate(90)"/>
</clipPath>
</defs>
</svg>
