<svg width="19" height="18" viewBox="0 0 19 18" fill="none" xmlns="http://www.w3.org/2000/svg">
<path d="M7.88897 12.75C7.7901 12.7506 7.69208 12.7317 7.60054 12.6943C7.509 12.657 7.42574 12.602 7.35554 12.5325C7.28512 12.4628 7.22923 12.3798 7.19108 12.2884C7.15294 12.197 7.1333 12.099 7.1333 12C7.1333 11.901 7.15294 11.803 7.19108 11.7116C7.22923 11.6202 7.28512 11.5372 7.35554 11.4675L9.8424 9.00001L7.45321 6.51751C7.31328 6.37699 7.23473 6.1869 7.23473 5.98876C7.23473 5.79062 7.31328 5.60053 7.45321 5.46001C7.52305 5.38971 7.60615 5.33392 7.69771 5.29584C7.78926 5.25776 7.88746 5.23816 7.98665 5.23816C8.08583 5.23816 8.18403 5.25776 8.27558 5.29584C8.36714 5.33392 8.45024 5.38971 8.52008 5.46001L11.4202 8.46001C11.5578 8.6002 11.6349 8.78869 11.6349 8.98501C11.6349 9.18132 11.5578 9.36981 11.4202 9.51001L8.4149 12.51C8.34746 12.5827 8.26626 12.6413 8.17599 12.6825C8.08572 12.7237 7.98817 12.7467 7.88897 12.75Z" fill="white"/>
</svg>
