<svg width="32" height="32" viewBox="0 0 32 32" fill="none" xmlns="http://www.w3.org/2000/svg">
<path d="M27.5467 9.68024C27.5467 9.5869 27.4133 9.49357 27.3467 9.40024L27.2267 9.2669C26.9162 8.88356 26.5246 8.57389 26.08 8.36024L17.5467 4.36024C17.0742 4.14252 16.5602 4.02979 16.04 4.02979C15.5198 4.02979 15.0058 4.14252 14.5333 4.36024L6 8.36024C5.55768 8.57752 5.16677 8.88661 4.85333 9.2669L4.69333 9.33357C4.61577 9.41374 4.54858 9.50333 4.49333 9.60023C4.17525 10.1032 4.00435 10.6852 4 11.2802V20.6936C4.00178 21.3295 4.18619 21.9516 4.53129 22.4858C4.87639 23.02 5.36766 23.4438 5.94667 23.7069L14.48 27.7069C14.9543 27.9266 15.4707 28.0404 15.9933 28.0404C16.516 28.0404 17.0324 27.9266 17.5067 27.7069L26.04 23.7069C26.6174 23.4477 27.1087 23.0288 27.4559 22.4997C27.8032 21.9705 27.992 21.3531 28 20.7202V11.2802C27.9932 10.7162 27.8367 10.164 27.5467 9.68024ZM15.6133 6.7469C15.7354 6.69406 15.867 6.6668 16 6.6668C16.133 6.6668 16.2646 6.69406 16.3867 6.7469L23.4933 10.0536L16 13.5336L8.50667 10.0536L15.6133 6.7469ZM7.06667 21.3336C6.95058 21.2886 6.85053 21.21 6.77929 21.1079C6.70805 21.0057 6.66884 20.8847 6.66667 20.7602V12.1336L14.6667 15.8536V24.8136L7.06667 21.3336ZM24.92 21.3336L17.3333 24.8136V15.8536L25.3333 12.1336V20.7202C25.3364 20.8527 25.2983 20.9828 25.2242 21.0927C25.1502 21.2025 25.0439 21.2867 24.92 21.3336Z" fill="white"/>
</svg>
