<svg width="848" height="636" viewBox="0 0 848 636" fill="none" xmlns="http://www.w3.org/2000/svg">
<path d="M494.437 68.7939C481.452 76.4789 477.742 89.7289 476.205 95.1879C475.834 96.5129 471.488 112.784 479.014 129.744C481.24 134.779 483.625 139.973 489.031 142.464C492.158 143.948 494.967 143.842 505.991 142.888C511.132 142.464 516.697 141.934 522.633 141.298C526.82 135.945 534.028 125.239 536.148 110.187C536.519 107.378 540.865 73.8819 522.633 64.9779C510.708 59.0949 496.345 67.6279 494.437 68.7939Z" fill="#EDAF1F"/>
<path d="M254.665 147.817C261.28 147.817 266.643 141.885 266.643 134.567C266.643 127.249 261.28 121.317 254.665 121.317C248.05 121.317 242.687 127.249 242.687 134.567C242.687 141.885 248.05 147.817 254.665 147.817Z" fill="#EDAF1F"/>
<path d="M526.29 360.135C531.207 360.135 535.194 356.291 535.194 351.549C535.194 346.807 531.207 342.963 526.29 342.963C521.372 342.963 517.386 346.807 517.386 351.549C517.386 356.291 521.372 360.135 526.29 360.135Z" fill="#EDAF1F"/>
<path d="M254.771 308.301C258.43 308.301 261.396 305.335 261.396 301.676C261.396 298.017 258.43 295.051 254.771 295.051C251.112 295.051 248.146 298.017 248.146 301.676C248.146 305.335 251.112 308.301 254.771 308.301Z" fill="#EDAF1F"/>
<path d="M242.422 143.418C248.247 143.418 252.969 138.459 252.969 132.341C252.969 126.223 248.247 121.264 242.422 121.264C236.597 121.264 231.875 126.223 231.875 132.341C231.875 138.459 236.597 143.418 242.422 143.418Z" fill="#CE6796"/>
<path d="M523.852 346.567C527.452 346.567 530.371 343.53 530.371 339.783C530.371 336.036 527.452 332.999 523.852 332.999C520.252 332.999 517.333 336.036 517.333 339.783C517.333 343.53 520.252 346.567 523.852 346.567Z" fill="#CE6796"/>
<path d="M610.984 159.477C614.936 159.477 618.139 156.06 618.139 151.845C618.139 147.63 614.936 144.213 610.984 144.213C607.033 144.213 603.829 147.63 603.829 151.845C603.829 156.06 607.033 159.477 610.984 159.477Z" fill="#CE6796"/>
<path d="M455.588 206.647C454.422 204.792 452.514 206.541 451.719 207.813C450.076 210.463 449.016 213.749 450.235 216.77C451.136 219.049 453.362 220.957 455.959 220.586C458.344 220.268 460.146 218.307 460.093 215.922C460.093 215.286 459.192 214.809 458.715 215.339C455.906 218.89 452.461 223.925 455.27 228.483C457.231 231.61 462.054 232.034 463.962 228.642C463.485 228.589 463.008 228.536 462.531 228.43C462.796 229.914 463.061 231.398 463.273 232.882C463.432 233.889 464.969 233.465 464.81 232.458C464.545 230.974 464.28 229.49 464.068 228.006C463.962 227.317 462.902 227.264 462.637 227.794C461.789 229.278 459.881 229.808 458.344 229.066C456.648 228.218 455.906 226.31 455.906 224.455C455.906 221.381 458.079 218.678 459.881 216.399C459.404 216.187 458.98 216.028 458.503 215.816C458.556 217.83 456.595 219.314 454.634 218.89C453.15 218.572 452.196 217.3 451.666 215.922C451.136 214.491 451.189 213.06 451.613 211.629C451.666 211.523 453.839 206.806 454.157 207.336C454.74 208.29 456.118 207.495 455.588 206.647Z" fill="#EDAF1F"/>
<path d="M239.189 211.417C240.355 208.237 244.224 209.615 245.443 211.841C245.867 212.583 246.079 213.431 246.185 214.279C246.397 215.869 246.238 216.505 244.86 217.459C243.376 218.943 243.005 218.36 243.8 215.71C244.171 215.551 244.595 215.392 244.966 215.233C245.973 214.968 247.139 215.021 248.146 215.339C250.69 216.187 251.962 218.89 251.591 221.381C251.485 222.017 252.121 222.653 252.757 222.282C256.202 220.321 260.76 222.494 261.555 226.363C261.767 227.37 263.304 226.946 263.092 225.939C262.085 221.063 256.308 218.519 251.962 220.957C252.333 221.275 252.757 221.54 253.128 221.858C253.817 217.194 250.266 212.848 245.337 213.59C243.641 213.855 241.097 214.915 240.885 216.929C240.726 218.572 242.263 219.791 243.8 219.95C248.358 220.374 248.252 213.749 246.768 211.099C244.754 207.495 239.189 206.594 237.599 211.046C237.281 211.947 238.818 212.371 239.189 211.417Z" fill="#EDAF1F"/>
<path d="M518.234 410.909C522.315 413.612 525.76 417.057 528.516 421.085C529.099 421.933 530.477 421.138 529.894 420.29C526.979 416.05 523.375 412.446 519.082 409.584C518.181 408.948 517.386 410.326 518.234 410.909Z" fill="#CE6796"/>
<path d="M528.569 413.824C529.417 414.831 530.212 415.891 531.06 416.898C531.696 417.693 532.809 416.58 532.173 415.785C531.325 414.778 530.53 413.718 529.682 412.711C529.046 411.916 527.933 413.082 528.569 413.824Z" fill="#CE6796"/>
<path d="M523.693 398.984C527.35 402.376 530.371 406.245 532.703 410.644C533.18 411.545 534.558 410.75 534.081 409.849C531.696 405.344 528.569 401.316 524.806 397.871C524.064 397.129 522.951 398.295 523.693 398.984Z" fill="#CE6796"/>
<path d="M157.251 458.662C158.417 470.163 160.431 481.505 163.24 492.741C163.505 493.748 165.042 493.324 164.777 492.317C162.021 481.24 160.007 470.004 158.841 458.662C158.735 457.655 157.145 457.655 157.251 458.662Z" fill="#E8E8E8"/>
<path d="M163.558 493.271C173.999 495.974 184.864 495.974 195.305 493.271C196.312 493.006 195.888 491.469 194.881 491.734C184.705 494.384 174.158 494.384 163.982 491.734C163.028 491.469 162.604 493.006 163.558 493.271Z" fill="#E8E8E8"/>
<path d="M196.524 491.681C197.213 480.392 198.114 469.103 199.174 457.814C199.28 456.807 197.69 456.807 197.584 457.814C196.524 469.103 195.623 480.392 194.934 491.681C194.881 492.688 196.471 492.688 196.524 491.681Z" fill="#E8E8E8"/>
<path d="M158.152 459.51C171.349 462.213 184.917 462.107 198.114 459.139C199.121 458.927 198.697 457.39 197.69 457.602C184.811 460.464 171.508 460.623 158.576 457.973C157.569 457.761 157.145 459.298 158.152 459.51Z" fill="#E8E8E8"/>
<path d="M157.993 463.326C158.417 465.499 161.173 465.393 162.869 465.552C167.162 465.923 171.508 466.029 175.801 465.923C179.935 465.817 184.069 465.499 188.203 465.022C191.489 464.598 194.669 464.174 197.584 462.531C198.485 462.054 197.69 460.676 196.789 461.153C191.542 464.068 184.281 463.962 178.398 464.227C175.483 464.333 172.515 464.386 169.6 464.333C168.063 464.28 159.848 464.651 159.53 462.902C159.318 461.895 157.834 462.319 157.993 463.326Z" fill="#E8E8E8"/>
<path d="M161.014 481.717C163.558 486.222 166.791 490.197 170.66 493.642C171.402 494.331 172.568 493.218 171.773 492.529C167.957 489.19 164.83 485.321 162.392 480.922C161.915 480.021 160.537 480.816 161.014 481.717Z" fill="#E8E8E8"/>
<path d="M158.947 469.474C164.353 478.59 170.925 486.964 178.451 494.49C179.193 495.232 180.306 494.066 179.564 493.377C172.144 485.957 165.678 477.689 160.325 468.679C159.795 467.831 158.417 468.626 158.947 469.474Z" fill="#E8E8E8"/>
<path d="M167.798 465.658C173.416 475.675 179.935 485.162 187.302 494.013C187.938 494.808 189.051 493.695 188.415 492.9C181.154 484.155 174.688 474.774 169.176 464.863C168.699 463.962 167.321 464.757 167.798 465.658Z" fill="#E8E8E8"/>
<path d="M177.921 466.029C183.38 474.191 188.892 482.3 194.457 490.409C195.04 491.257 196.418 490.462 195.835 489.614C190.27 481.505 184.758 473.396 179.299 465.234C178.716 464.386 177.338 465.181 177.921 466.029Z" fill="#E8E8E8"/>
<path d="M186.401 465.552C189.157 470.004 192.125 474.35 195.199 478.59C195.782 479.385 197.16 478.59 196.577 477.795C193.503 473.555 190.535 469.209 187.779 464.757C187.249 463.909 185.871 464.704 186.401 465.552Z" fill="#E8E8E8"/>
<path d="M140.556 412.022C141.192 415.679 141.828 419.389 142.517 423.046C142.729 424.053 142.888 425.113 143.736 425.749C144.319 426.226 146.227 426.173 146.598 426.703C146.651 426.385 146.704 426.067 146.704 425.749C145.909 426.544 145.114 427.339 144.266 428.081C144.054 428.293 144.001 428.611 144.054 428.876C144.531 430.307 144.849 432.427 145.803 433.646C146.28 434.282 147.128 434.176 147.499 434.547C147.817 434.865 147.711 434.653 147.552 435.607C147.446 436.402 147.446 437.25 147.552 438.098C147.711 439.37 148.082 440.589 148.559 441.755C151.315 448.433 156.668 453.839 161.809 458.821C162.551 459.51 163.664 458.397 162.922 457.708C159.636 454.528 156.35 451.242 153.647 447.532C150.997 443.875 147.87 438.946 149.513 434.282C149.619 434.017 149.513 433.646 149.301 433.487C148.294 432.692 147.287 433.01 146.598 431.738C145.273 429.353 146.015 428.558 147.711 426.915C147.976 426.703 148.029 426.226 147.817 425.961C147.393 425.325 147.075 425.113 146.386 424.901C145.962 424.742 145.326 424.901 144.902 424.689C144.001 424.212 144.001 423.046 143.842 422.198C143.206 418.7 142.57 415.149 141.987 411.651C141.881 410.591 140.344 411.015 140.556 412.022Z" fill="#E8E8E8"/>
<path d="M141.722 411.81C162.392 418.7 176.543 437.992 176.967 459.828C176.967 460.835 178.557 460.835 178.557 459.828C178.133 437.303 163.505 417.428 142.146 410.273C141.192 409.955 140.768 411.492 141.722 411.81Z" fill="#E8E8E8"/>
<path d="M173.469 438.098C178.61 423.841 186.189 410.061 198.326 400.68C199.121 400.044 198.326 398.666 197.531 399.302C185.023 409.001 177.232 422.993 171.932 437.674C171.614 438.628 173.151 439.052 173.469 438.098Z" fill="#E8E8E8"/>
<path d="M196.948 400.362C197.319 405.238 197.743 410.114 198.114 415.043C198.22 416.05 199.81 416.05 199.704 415.043C199.333 410.167 198.909 405.291 198.538 400.362C198.485 399.355 196.895 399.355 196.948 400.362Z" fill="#E8E8E8"/>
<path d="M198.803 414.513C198.114 414.672 197.425 414.831 196.789 415.043C195.782 415.308 196.206 416.845 197.213 416.58C197.902 416.421 198.591 416.262 199.227 416.05C200.234 415.785 199.81 414.301 198.803 414.513Z" fill="#E8E8E8"/>
<path d="M195.994 416.474C196.206 417.481 197.054 418.117 198.008 418.223C198.432 418.276 198.803 417.852 198.803 417.428C198.803 416.951 198.432 416.686 198.008 416.633C198.167 416.633 198.008 416.633 197.955 416.633C197.902 416.633 197.796 416.58 197.902 416.633C197.849 416.58 197.796 416.58 197.743 416.527C197.637 416.474 197.849 416.633 197.69 416.474C197.637 416.421 197.637 416.421 197.584 416.368C197.69 416.474 197.584 416.368 197.584 416.315C197.531 416.262 197.531 416.156 197.531 416.262C197.531 416.209 197.478 416.103 197.478 416.05C197.372 415.626 196.895 415.361 196.524 415.52C196.1 415.626 195.888 416.05 195.994 416.474Z" fill="#E8E8E8"/>
<path d="M197.213 417.64C197.266 420.661 197.16 423.629 196.842 426.597C196.736 427.551 196.895 429.777 196.259 430.519C196.206 430.572 195.252 430.731 195.04 430.89C194.245 431.526 195.358 432.639 196.153 432.003C196.418 431.791 197.054 432.003 197.478 431.526C198.114 430.89 198.008 429.406 198.114 428.664C198.591 425.007 198.803 421.297 198.75 417.587C198.803 416.633 197.213 416.633 197.213 417.64Z" fill="#E8E8E8"/>
<path d="M194.404 432.268C196.1 434.282 195.623 437.621 195.464 440.059C195.252 442.868 194.775 445.465 193.397 447.903C191.436 451.507 188.68 454.528 187.249 458.45C186.878 459.404 188.415 459.828 188.786 458.874C190.694 453.733 195.093 449.917 196.418 444.511C197.372 440.642 198.273 434.441 195.517 431.155C194.881 430.413 193.768 431.526 194.404 432.268Z" fill="#E8E8E8"/>
<path d="M181.896 459.192C183.38 444.14 187.355 429.459 193.715 415.785C194.139 414.884 192.761 414.036 192.337 414.99C185.871 428.982 181.79 443.875 180.306 459.245C180.2 460.252 181.79 460.199 181.896 459.192Z" fill="#E8E8E8"/>
<path d="M150.626 420.661C159.901 432.321 166.685 445.73 170.66 460.04C170.925 461.047 172.462 460.623 172.197 459.616C168.116 444.988 161.173 431.42 151.739 419.548C151.103 418.753 149.99 419.866 150.626 420.661Z" fill="#E8E8E8"/>
<path d="M151.633 440.218C156.085 439.953 160.219 441.013 163.982 443.345C164.83 443.875 165.678 442.497 164.777 441.967C160.802 439.529 156.297 438.363 151.633 438.628C150.573 438.681 150.573 440.271 151.633 440.218Z" fill="#E8E8E8"/>
<path d="M161.332 433.116C161.014 430.201 161.385 427.392 162.498 424.636C162.869 423.682 161.332 423.258 160.961 424.212C159.795 427.074 159.424 430.042 159.742 433.116C159.848 434.123 161.438 434.123 161.332 433.116Z" fill="#E8E8E8"/>
<path d="M178.504 424.318C180.253 428.611 182.797 433.169 183.433 437.727C183.592 438.734 185.129 438.31 184.97 437.303C184.281 432.692 181.737 428.134 180.041 423.894C179.67 422.94 178.133 423.364 178.504 424.318Z" fill="#E8E8E8"/>
<path d="M188.256 429.353C189.793 427.604 191.277 425.537 193.238 424.212C194.881 423.099 196.683 422.357 197.955 420.82C198.591 420.025 197.478 418.912 196.842 419.707C195.464 421.35 193.45 422.039 191.807 423.311C190.005 424.689 188.627 426.544 187.143 428.24C186.454 429.035 187.567 430.148 188.256 429.353Z" fill="#E8E8E8"/>
<path d="M188.786 458.662C191.33 457.973 193.927 457.708 196.577 457.867C197.584 457.92 197.584 456.33 196.577 456.277C193.768 456.118 191.065 456.383 188.362 457.125C187.408 457.39 187.779 458.927 188.786 458.662Z" fill="#E8E8E8"/>
<path d="M188.574 459.298C191.542 459.563 194.404 459.192 197.266 458.291C198.22 457.973 197.796 456.436 196.842 456.754C194.139 457.602 191.383 457.92 188.574 457.708C187.567 457.655 187.567 459.245 188.574 459.298Z" fill="#E8E8E8"/>
<path d="M158.841 459.033C159.53 459.033 160.166 459.033 160.855 459.033C161.862 459.033 161.862 457.443 160.855 457.443C160.166 457.443 159.53 457.443 158.841 457.443C157.834 457.443 157.834 459.033 158.841 459.033Z" fill="#E8E8E8"/>
<path d="M197.69 471.859C214.491 471.859 231.345 471.859 248.146 471.859C249.153 471.859 249.153 470.269 248.146 470.269C231.345 470.269 214.491 470.269 197.69 470.269C196.683 470.269 196.683 471.859 197.69 471.859Z" fill="#E8E8E8"/>
<path d="M482.088 461.365C492.105 461.365 502.069 461.365 512.086 461.365C513.093 461.365 513.093 459.775 512.086 459.775C502.069 459.775 492.105 459.775 482.088 459.775C481.081 459.775 481.081 461.365 482.088 461.365Z" fill="#E8E8E8"/>
<path d="M573.036 462.319C616.231 462.319 659.426 462.319 702.621 462.319C714.917 462.319 727.213 462.319 739.509 462.319C740.516 462.319 740.516 460.729 739.509 460.729C696.314 460.729 653.119 460.729 609.924 460.729C597.628 460.729 585.332 460.729 573.036 460.729C572.029 460.729 572.029 462.319 573.036 462.319Z" fill="#E8E8E8"/>
<path d="M509.065 288.32C505.037 296.641 500.691 304.803 496.08 312.806C495.868 313.23 496.027 313.919 496.557 313.972C519.294 317.417 539.646 328.706 559.256 340.101C560.157 340.631 560.952 339.253 560.051 338.723C540.282 327.275 519.824 315.933 496.928 312.435C497.087 312.806 497.246 313.23 497.405 313.601C502.069 305.598 506.362 297.436 510.39 289.115C510.867 288.214 509.542 287.366 509.065 288.32Z" fill="#E8E8E8"/>
<path d="M512.563 317.205C514.153 312.647 515.743 308.036 517.333 303.478C518.022 301.57 518.499 299.45 519.4 297.595C519.612 296.482 520.301 295.634 521.361 294.998C521.997 295.157 522.633 295.316 523.269 295.475C524.223 295.74 525.177 295.952 526.078 296.217C528.251 296.747 531.749 296.747 531.378 299.662C531.113 301.729 529.894 303.955 529.205 305.969C527.615 310.474 526.078 314.979 524.488 319.484C524.17 320.438 525.707 320.862 526.025 319.908C528.092 313.972 530.159 307.983 532.226 302.047C532.703 300.669 534.028 298.337 532.968 296.853C531.802 295.263 528.304 295.157 526.502 294.68C524.753 294.256 521.679 292.666 519.877 293.514C518.34 294.203 518.022 296.853 517.545 298.178C515.372 304.379 513.199 310.633 511.026 316.834C510.708 317.735 512.245 318.159 512.563 317.205Z" fill="#E8E8E8"/>
<path d="M533.021 322.876C536.413 315.721 539.858 308.513 543.25 301.358C544.946 297.754 546.642 294.203 548.391 290.599C549.186 288.956 549.822 286.995 550.829 285.458C551.677 284.133 551.889 283.815 553.373 284.398C554.168 284.716 555.122 285.511 555.811 285.988C556.712 286.624 558.143 287.313 558.779 288.161C559.574 289.168 559.256 290.228 558.779 291.5C558.143 293.196 557.189 294.839 556.394 296.482C554.645 300.086 552.896 303.69 551.041 307.294C547.543 314.131 543.886 320.915 540.123 327.646C539.593 328.547 540.971 329.342 541.501 328.441C546.112 320.279 550.511 312.011 554.645 303.637C556.712 299.503 558.991 295.263 560.74 290.97C561.959 287.843 559.309 286.571 556.977 284.928C555.122 283.656 552.207 280.741 550.193 283.126C548.921 284.61 548.232 287.101 547.384 288.903C546.324 291.076 545.317 293.249 544.257 295.475C540.017 304.379 535.777 313.283 531.59 322.187C531.219 322.982 532.597 323.83 533.021 322.876Z" fill="#E8E8E8"/>
<path d="M550.617 333.9C555.175 326.745 560.316 319.961 565.987 313.707C565.669 313.76 565.351 313.813 565.033 313.813C567.047 315.191 569.008 316.516 571.022 317.894C570.916 317.523 570.81 317.152 570.757 316.781C566.252 323.83 561.747 330.826 557.242 337.875C556.712 338.723 558.037 339.518 558.62 338.67C563.125 331.621 567.63 324.625 572.135 317.576C572.4 317.205 572.188 316.728 571.87 316.463C569.856 315.085 567.895 313.76 565.881 312.382C565.616 312.17 565.139 312.276 564.927 312.488C559.15 318.901 553.903 325.738 549.292 332.999C548.709 334.006 550.087 334.801 550.617 333.9Z" fill="#E8E8E8"/>
<path d="M613.846 283.497C608.546 281.483 605.207 276.183 606.161 270.512C607.115 264.735 612.786 259.594 618.616 263.039C622.644 265.424 624.711 270.83 623.174 275.229C621.584 279.946 616.39 282.755 611.567 282.013C610.56 281.854 610.136 283.391 611.143 283.55C616.814 284.398 622.803 281.271 624.711 275.653C626.619 270.035 623.545 263.251 618.033 260.972C611.567 258.322 605.684 263.887 604.571 270.088C603.405 276.66 607.274 282.702 613.369 285.034C614.376 285.405 614.8 283.868 613.846 283.497Z" fill="#E8E8E8"/>
<path d="M624.711 282.49C614.164 282.172 618.139 265.265 627.467 265.901C636.795 266.59 632.979 285.617 622.75 282.119C621.796 281.801 621.372 283.338 622.326 283.656C634.145 287.684 639.445 266.166 628.156 264.364C622.644 263.463 617.662 268.657 616.814 273.798C615.966 278.886 619.411 283.868 624.711 284.027C625.718 284.133 625.718 282.543 624.711 282.49Z" fill="#E8E8E8"/>
<path d="M616.814 234.525C615.913 233.571 615.489 232.034 616.178 230.868C616.867 229.755 618.563 229.225 619.623 230.073C620.577 230.815 620.789 232.405 619.888 233.2C618.828 234.154 617.132 233.677 616.125 232.882C615.33 232.246 614.217 233.359 615.012 233.995C616.655 235.267 619.199 235.903 620.948 234.366C622.538 232.935 622.379 230.285 620.789 228.907C619.146 227.476 616.549 227.9 615.171 229.49C613.634 231.292 614.058 233.995 615.648 235.638C616.39 236.38 617.503 235.267 616.814 234.525Z" fill="#E8E8E8"/>
<path d="M463.008 274.434C461.524 265.424 466.771 254.559 476.947 254.665C482.141 254.718 487.176 256.838 492.423 256.096C496.133 255.566 499.313 253.446 501.539 250.531C503.765 247.616 505.037 243.959 505.249 240.302C505.514 234.896 503.447 229.384 504.931 224.031C505.673 221.328 507.263 218.837 509.966 217.83C512.563 216.929 515.372 217.459 518.075 217.353C521.997 217.194 525.071 215.498 527.032 212.053C529.788 207.23 529.152 201.453 531.06 196.365C533.339 190.217 539.752 184.97 546.536 187.991C547.437 188.415 548.285 187.037 547.331 186.613C538.109 182.479 530.424 190.8 528.622 199.174C527.456 204.633 527.668 213.113 521.149 215.286C516.591 216.823 511.45 214.438 507.263 217.565C503.818 220.109 502.811 224.773 502.864 228.854C503.023 234.843 504.878 240.673 502.228 246.397C499.79 251.803 494.967 255.036 488.978 254.665C483.678 254.347 478.431 252.174 473.078 253.552C464.015 255.831 460.146 266.537 461.577 274.911C461.683 275.812 463.22 275.388 463.008 274.434Z" fill="#E8E8E8"/>
<path d="M530 236.645C528.039 232.193 530.742 227.953 535.035 226.522C538.162 225.462 541.607 225.409 544.31 223.289C546.43 221.646 547.119 219.579 546.854 216.929C546.589 214.438 546.589 212.477 548.55 210.781C550.193 209.35 552.366 208.82 554.486 208.714C560.316 208.502 568.319 211.47 572.559 205.799C574.52 203.149 573.937 199.863 574.838 196.895C576.057 192.761 580.032 190.217 584.272 190.429C585.279 190.482 585.279 188.892 584.272 188.839C581.039 188.68 577.912 189.899 575.686 192.231C572.93 195.146 573.301 198.432 572.453 202.089C570.174 212.106 556.235 205.057 549.663 208.184C547.225 209.35 545.264 211.417 545.052 214.173C544.787 217.406 546.271 220.056 542.985 222.282C541.236 223.448 539.222 223.819 537.208 224.296C533.869 225.091 530.583 226.098 528.887 229.331C527.509 231.875 527.509 234.79 528.675 237.387C529.046 238.394 530.371 237.546 530 236.645Z" fill="#E8E8E8"/>
<path d="M624.446 166.049C624.234 165.572 624.022 165.042 623.863 164.512C624.552 163.717 625.188 162.922 625.877 162.127C626.089 162.074 627.043 162.71 627.361 162.71C628.156 162.816 628.845 162.604 629.481 162.127C631.442 160.59 630.753 158.152 631.336 156.085C632.29 152.534 636.477 154.972 638.385 152.322C640.293 149.725 639.604 144.213 644.692 145.697C645.699 145.962 646.123 144.425 645.116 144.16C642.201 143.312 639.551 144.69 638.491 147.499C638.173 148.294 638.067 149.195 637.749 149.99C637.06 151.845 636.318 152.11 634.304 152.216C632.82 152.322 631.654 152.216 630.647 153.488C629.799 154.601 629.799 156.032 629.64 157.357C629.481 159.318 629.64 160.961 626.725 160.749C626.142 160.696 625.665 160.166 625.029 160.166C621.531 160.113 622.114 164.406 622.962 166.473C623.28 167.427 624.87 167.003 624.446 166.049Z" fill="#E8E8E8"/>
<path d="M634.41 170.448C633.562 169.335 632.131 166.102 634.622 165.254C635.523 164.936 636.689 165.307 637.643 165.307C638.491 165.307 639.233 165.307 639.922 164.724C642.042 163.028 640.505 160.007 641.618 157.887C643.42 154.442 647.024 157.145 649.568 155.343C651.37 154.071 651.847 151.633 652.165 149.619C652.324 148.612 650.787 148.188 650.628 149.195C650.257 151.58 649.833 154.23 646.865 154.495C645.328 154.654 644.162 154.124 642.731 154.813C640.399 155.926 639.657 157.993 639.604 160.378C639.551 162.392 640.028 163.399 636.636 163.558C636.212 163.558 635.788 163.452 635.364 163.452C634.145 163.558 633.085 164.194 632.396 165.201C630.912 167.321 631.76 169.759 633.244 171.614C633.933 172.409 635.046 171.243 634.41 170.448Z" fill="#E8E8E8"/>
<path d="M183.804 199.174C188.203 193.874 194.457 189.528 201.665 190.27C209.509 191.065 213.378 197.319 214.12 204.633C215.392 216.77 212.424 231.292 220.639 241.627C223.872 245.708 228.695 247.881 233.889 246.609C240.143 245.125 245.019 240.196 250.584 237.281C257.156 233.836 266.219 231.981 272.155 237.758C276.501 241.998 277.455 248.464 278.886 254.082C280.211 259.17 282.49 264.788 287.048 267.809C289.804 269.611 292.825 269.77 296.005 269.558C299.556 269.293 306.817 269.081 306.075 274.646C305.969 275.653 307.559 275.653 307.665 274.646C307.93 272.473 306.923 270.724 305.174 269.452C302.418 267.438 299.238 267.756 296.005 267.968C292.348 268.233 289.221 267.915 286.412 265.318C283.868 262.986 282.331 259.7 281.218 256.467C279.363 250.902 278.833 244.807 275.653 239.719C272.526 234.684 267.12 232.246 261.29 232.458C253.923 232.723 247.722 236.963 241.839 240.885C239.03 242.74 236.009 244.701 232.564 245.284C228.43 245.973 224.773 244.171 222.123 241.097C217.141 235.267 216.346 226.946 216.081 219.632C215.816 212.795 216.717 205.375 214.438 198.75C212.371 192.708 207.124 188.945 200.817 188.627C193.503 188.256 187.09 192.655 182.585 198.061C182.002 198.856 183.115 199.969 183.804 199.174Z" fill="#E8E8E8"/>
<path d="M157.039 280.953C165.307 294.733 172.674 308.99 179.193 323.671C179.617 324.625 180.995 323.777 180.571 322.876C174.052 308.195 166.632 293.938 158.417 280.158C157.887 279.257 156.509 280.052 157.039 280.953Z" fill="#E8E8E8"/>
<path d="M158.046 280.317C170.925 272.314 184.175 264.841 197.796 258.057C198.697 257.58 197.902 256.202 197.001 256.679C183.433 263.463 170.183 270.936 157.251 278.939C156.35 279.522 157.145 280.9 158.046 280.317Z" fill="#E8E8E8"/>
<path d="M196.842 257.368C203.573 271.519 210.675 285.458 218.201 299.185C218.678 300.086 220.056 299.291 219.579 298.39C212.053 284.663 204.898 270.724 198.22 256.573C197.743 255.619 196.418 256.414 196.842 257.368Z" fill="#E8E8E8"/>
<path d="M180.995 323.989C193.662 316.357 206.17 308.513 218.572 300.457C219.42 299.927 218.625 298.549 217.777 299.079C205.375 307.135 192.867 314.979 180.2 322.611C179.352 323.141 180.147 324.519 180.995 323.989Z" fill="#E8E8E8"/>
<path d="M179.988 275.653C179.67 285.829 180.253 295.952 181.737 306.022C181.896 307.029 183.433 306.605 183.274 305.598C181.79 295.687 181.26 285.67 181.578 275.653C181.631 274.646 180.041 274.646 179.988 275.653Z" fill="#E8E8E8"/>
<path d="M180.041 275.123C187.408 280.9 194.775 286.571 202.248 292.189C203.043 292.825 203.838 291.447 203.043 290.811C195.676 285.299 188.362 279.681 181.154 274.01C180.359 273.374 179.246 274.487 180.041 275.123Z" fill="#E8E8E8"/>
<path d="M183.38 306.34C189.475 300.881 197.425 297.966 203.202 292.083C203.944 291.341 202.778 290.228 202.089 290.97C196.312 296.8 188.415 299.768 182.267 305.227C181.472 305.863 182.638 306.976 183.38 306.34Z" fill="#E8E8E8"/>
<path d="M159.159 289.274C160.855 288.426 162.551 287.631 164.247 286.783C165.148 286.359 164.353 284.981 163.452 285.405C161.756 286.253 160.06 287.048 158.364 287.896C157.463 288.373 158.258 289.698 159.159 289.274Z" fill="#E8E8E8"/>
<path d="M164.618 298.284C166.049 297.33 167.586 296.535 169.176 295.846C170.13 295.475 169.706 293.938 168.752 294.309C167.003 295.051 165.36 295.899 163.77 296.906C162.975 297.489 163.77 298.867 164.618 298.284Z" fill="#E8E8E8"/>
<path d="M170.607 308.672C172.091 307.93 173.575 307.188 175.059 306.499C175.96 306.022 175.165 304.697 174.264 305.121C172.78 305.863 171.296 306.605 169.812 307.294C168.911 307.718 169.706 309.096 170.607 308.672Z" fill="#E8E8E8"/>
<path d="M173.681 319.06C175.324 317.629 177.02 316.41 178.928 315.35C179.829 314.82 179.034 313.495 178.133 313.972C176.172 315.085 174.317 316.41 172.568 317.947C171.773 318.636 172.886 319.749 173.681 319.06Z" fill="#E8E8E8"/>
<path d="M199.863 267.809C201.082 266.961 202.354 266.378 203.785 266.007C204.792 265.742 204.368 264.258 203.361 264.47C201.824 264.841 200.34 265.477 199.015 266.431C198.22 267.014 199.015 268.392 199.863 267.809Z" fill="#E8E8E8"/>
<path d="M204.58 276.872C206.276 275.812 207.972 274.752 209.615 273.639C210.463 273.109 209.668 271.731 208.82 272.261C207.124 273.321 205.428 274.381 203.785 275.494C202.884 276.077 203.679 277.455 204.58 276.872Z" fill="#E8E8E8"/>
<path d="M209.986 287.737C211.788 286.942 213.643 286.147 215.445 285.352C216.399 284.928 215.551 283.55 214.65 283.974C212.848 284.769 210.993 285.564 209.191 286.359C208.237 286.783 209.085 288.161 209.986 287.737Z" fill="#E8E8E8"/>
<path d="M213.855 294.839C215.286 293.461 216.876 292.295 218.625 291.288C219.526 290.811 218.731 289.433 217.83 289.91C215.975 290.97 214.279 292.189 212.742 293.673C212 294.415 213.113 295.528 213.855 294.839Z" fill="#E8E8E8"/>
<path d="M185.5 316.993C186.825 318.954 187.938 321.021 188.786 323.194C189.157 324.148 190.694 323.724 190.323 322.77C189.422 320.438 188.309 318.212 186.878 316.145C186.295 315.35 184.917 316.145 185.5 316.993Z" fill="#E8E8E8"/>
<path d="M193.609 312.594C194.616 314.396 195.57 316.145 196.577 317.947C197.054 318.848 198.432 318.053 197.955 317.152C196.948 315.35 195.994 313.601 194.987 311.799C194.51 310.898 193.132 311.693 193.609 312.594Z" fill="#E8E8E8"/>
<path d="M202.99 305.863C204.05 307.771 205.11 309.679 206.17 311.587C206.647 312.488 208.025 311.693 207.548 310.792C206.488 308.884 205.428 306.976 204.368 305.068C203.891 304.167 202.513 304.962 202.99 305.863Z" fill="#E8E8E8"/>
<path d="M211.417 300.828C212.265 302.842 213.113 304.856 214.014 306.817C214.438 307.771 215.763 306.923 215.392 306.022C214.544 304.008 213.696 301.994 212.795 300.033C212.371 299.132 210.993 299.927 211.417 300.828Z" fill="#E8E8E8"/>
<path d="M163.346 272.155C164.353 273.798 165.307 275.441 166.314 277.031C166.844 277.932 168.222 277.084 167.692 276.236C166.685 274.593 165.731 272.95 164.724 271.36C164.194 270.512 162.816 271.307 163.346 272.155Z" fill="#E8E8E8"/>
<path d="M172.462 266.855C173.416 268.975 174.37 271.095 175.324 273.215C175.748 274.169 177.126 273.321 176.702 272.42C175.748 270.3 174.794 268.18 173.84 266.06C173.363 265.106 172.038 265.901 172.462 266.855Z" fill="#E8E8E8"/>
<path d="M180.677 261.767C182.108 263.675 183.221 265.742 183.963 267.968C184.281 268.922 185.818 268.498 185.5 267.544C184.705 265.159 183.592 262.933 182.055 260.972C181.472 260.177 180.094 260.919 180.677 261.767Z" fill="#E8E8E8"/>
<path d="M189.528 257.686C190.641 259.382 191.701 261.025 192.814 262.721C193.344 263.569 194.722 262.774 194.192 261.926C193.079 260.23 192.019 258.587 190.906 256.891C190.323 256.043 188.945 256.838 189.528 257.686Z" fill="#E8E8E8"/>
<path d="M271.943 152.587C266.802 150.997 266.537 145.538 268.975 141.457C271.36 137.482 275.971 136.422 279.575 139.708C282.543 142.464 282.808 147.181 280.052 150.202C277.296 153.276 272.791 153.223 269.611 150.891C268.816 150.255 268.021 151.633 268.816 152.269C272.844 155.237 278.727 154.76 281.748 150.573C284.875 146.333 283.762 140.397 279.363 137.535C268.763 130.698 259.647 150.414 271.519 154.124C272.526 154.442 272.95 152.905 271.943 152.587Z" fill="#E8E8E8"/>
<path d="M280.476 153.965C276.501 155.184 275.547 150.414 277.296 147.87C278.727 145.803 281.536 144.584 284.08 145.273C286.518 145.909 288.267 148.4 287.631 150.891C286.836 154.018 283.55 155.131 280.635 154.654C279.628 154.495 279.204 156.032 280.211 156.191C284.133 156.88 288.373 155.184 289.221 150.944C289.963 147.287 287.101 143.948 283.55 143.524C279.628 143.047 275.335 145.909 274.805 149.937C274.328 153.435 277.508 156.562 281.006 155.449C281.907 155.184 281.483 153.647 280.476 153.965Z" fill="#E8E8E8"/>
<path d="M246.662 188.468C245.39 191.065 247.192 193.662 249.842 194.351C251.856 194.881 253.976 194.404 256.043 194.51C258.269 194.616 260.495 195.146 262.509 196.047C266.961 198.061 269.823 201.718 269.982 206.647C270.141 210.781 268.922 215.074 270.724 218.996C274.54 227.264 285.034 220.957 290.44 226.31C294.945 230.815 293.09 239.03 299.132 242.475C300.033 243.005 300.828 241.627 299.927 241.097C294.521 238.023 295.793 230.02 291.977 225.568C289.963 223.236 287.048 222.6 284.08 222.388C280.476 222.176 275.812 222.918 273.162 219.844C270.088 216.24 271.731 210.834 271.572 206.594C271.466 203.255 270.353 200.234 268.021 197.849C265.954 195.782 263.251 194.351 260.442 193.609C259.011 193.238 257.527 192.973 256.043 192.92C254.135 192.814 245.867 193.768 248.093 189.263C248.517 188.362 247.139 187.567 246.662 188.468Z" fill="#E8E8E8"/>
<path d="M122.748 474.562C132.341 474.562 141.881 474.562 151.474 474.562C152.481 474.562 152.481 472.972 151.474 472.972C141.881 472.972 132.341 472.972 122.748 472.972C121.688 472.972 121.688 474.562 122.748 474.562Z" fill="#E8E8E8"/>
<path d="M138.224 510.496C156.668 510.496 175.059 510.496 193.503 510.496C194.51 510.496 194.51 508.906 193.503 508.906C175.059 508.906 156.668 508.906 138.224 508.906C137.164 508.906 137.164 510.496 138.224 510.496Z" fill="#E8E8E8"/>
<path d="M191.277 500.532C208.396 500.532 225.568 500.532 242.687 500.532C243.694 500.532 243.694 498.942 242.687 498.942C225.568 498.942 208.396 498.942 191.277 498.942C190.217 498.942 190.217 500.532 191.277 500.532Z" fill="#E8E8E8"/>
<path d="M476.364 497.776C485.003 495.656 493.695 495.444 502.493 496.822C506.203 497.405 509.966 497.988 513.729 497.67C517.386 497.352 520.937 496.239 524.488 495.285C528.516 494.172 532.544 493.324 536.784 493.642C541.13 493.96 545.317 495.179 549.557 496.133C553.214 496.981 556.924 497.564 560.687 497.511C564.662 497.405 568.584 496.716 572.453 496.133C583.053 494.437 593.017 495.497 603.511 497.246C604.518 497.405 604.942 495.868 603.935 495.709C595.455 494.331 586.922 492.9 578.283 493.748C569.273 494.649 560.899 496.875 551.783 495.02C544.151 493.483 536.89 491.098 529.046 492.582C524.859 493.377 520.884 494.861 516.697 495.656C512.033 496.557 507.528 496.027 502.864 495.285C493.801 493.907 484.844 494.013 475.887 496.239C474.986 496.504 475.41 498.041 476.364 497.776Z" fill="#E8E8E8"/>
<path d="M557.772 481.664C574.414 480.763 591.056 479.862 607.698 479.014C615.913 478.59 623.863 478.749 632.025 479.862C635.682 480.339 639.18 480.445 642.837 480.021C646.918 479.544 651.158 478.908 654.974 480.869C655.875 481.346 656.67 479.968 655.769 479.491C649.303 476.205 641.83 479.279 634.887 478.643C630.753 478.272 626.725 477.477 622.591 477.265C618.298 477.053 614.005 477.159 609.712 477.371C592.381 478.166 575.05 479.226 557.719 480.127C556.765 480.127 556.765 481.717 557.772 481.664Z" fill="#E8E8E8"/>
<path d="M231.875 527.191C239.719 527.933 247.616 528.675 255.46 527.774C259.117 527.35 262.615 526.555 266.166 525.495C270.777 524.117 274.911 523.746 279.681 524.594C283.338 525.23 286.942 526.131 290.599 526.449C294.468 526.767 298.337 526.555 302.206 526.184C310.315 525.389 318.424 524.011 326.48 525.813C327.487 526.025 327.911 524.488 326.904 524.276C319.166 522.58 311.428 523.693 303.637 524.488C299.768 524.859 295.899 525.23 292.03 525.018C287.631 524.806 283.391 523.64 279.098 522.951C275.494 522.368 272.049 522.368 268.498 523.216C264.682 524.17 261.078 525.442 257.156 526.025C248.782 527.244 240.249 526.396 231.875 525.654C230.815 525.495 230.868 527.085 231.875 527.191Z" fill="#E8E8E8"/>
<path d="M315.721 99.5339C313.654 98.1029 310.845 95.8239 311.693 92.9619C312.594 89.9939 314.82 91.4249 316.887 90.7359C319.643 89.8349 319.484 86.4959 318.689 84.3229C317.894 82.2029 316.198 77.0619 320.597 78.8109C321.604 79.2349 322.346 79.9239 323.512 79.5529C324.572 79.2349 325.102 78.2809 325.367 77.2739C325.579 76.3729 325.42 75.4189 325.367 74.4649C325.261 73.8289 325.208 73.1399 325.208 72.5039C324.996 70.9669 325.95 70.3309 327.964 70.5959C328.017 71.6029 329.607 71.6029 329.554 70.5959C329.448 69.1119 328.335 68.0519 326.745 68.1049C324.89 68.1579 323.883 69.9599 323.671 71.6559C323.512 72.8219 324.466 75.5249 323.936 76.4789C323.3 76.9029 322.664 77.3799 321.975 77.8039C321.71 77.6449 321.445 77.4859 321.18 77.3269C320.703 77.1679 320.332 76.8499 319.855 76.7439C318.212 76.3729 316.887 77.3799 316.304 78.8639C315.297 81.4079 317.099 83.5279 317.629 85.9129C318.318 89.1989 315.827 88.8279 313.654 89.1989C312.7 89.3579 311.905 89.8349 311.269 90.5239C307.93 94.3929 311.799 98.6859 314.979 100.912C315.774 101.495 316.569 100.117 315.721 99.5339Z" fill="#E8E8E8"/>
<path d="M326.162 98.0499C324.413 96.0359 323.088 93.2799 326.48 92.2199C327.328 91.9549 328.282 92.0609 329.077 91.5309C330.826 90.3119 330.084 88.6689 329.766 86.9729C329.607 86.0189 329.236 84.7469 329.819 83.7929C330.243 83.1039 331.78 82.8389 332.575 82.6799C333.688 82.4149 334.854 82.2559 335.808 81.6199C337.239 80.6129 337.769 78.8109 336.815 77.2739C336.285 76.4259 334.907 77.2209 335.437 78.0689C337.027 80.6129 329.607 81.3019 328.335 83.1569C326.851 85.3299 329.978 89.1459 327.381 90.5239C326.374 91.0539 325.102 90.6829 324.148 91.3719C323.459 91.8489 322.982 92.5909 322.77 93.3859C322.187 95.6649 323.724 97.6259 325.102 99.2159C325.738 99.9579 326.851 98.8449 326.162 98.0499Z" fill="#E8E8E8"/>
<path d="M263.569 85.489C262.191 84.535 262.032 82.839 262.456 81.355C262.721 80.348 263.993 77.592 265.212 77.486C267.226 77.274 268.233 79.818 268.763 81.302C269.24 82.733 269.399 84.164 269.452 85.648C269.452 86.655 271.042 86.655 271.042 85.648C270.989 82.68 269.028 73.564 264.152 76.214C262.297 77.221 260.919 80.136 260.707 82.15C260.495 84.058 261.237 85.754 262.774 86.867C263.569 87.45 264.364 86.072 263.569 85.489Z" fill="#E8E8E8"/>
<path d="M262.933 86.3369C261.025 86.8139 259.117 87.2909 257.156 87.7679C256.043 88.0329 254.135 88.1389 253.234 88.9869C251.697 90.4179 252.121 94.8169 252.121 96.6719C252.121 97.2019 252.651 97.5729 253.128 97.4139C253.393 97.3609 253.658 97.2549 253.976 97.2019C255.354 96.4599 256.043 96.9369 256.096 98.5269C257.156 99.5869 257.156 100.223 256.096 100.329C255.46 100.594 254.824 100.7 254.135 100.7C253.711 100.753 253.34 101.018 253.34 101.495C253.446 104.887 253.711 108.226 254.082 111.618C254.188 112.625 255.778 112.625 255.672 111.618C255.301 108.226 255.036 104.887 254.93 101.495C254.665 101.76 254.4 102.025 254.135 102.29C256.361 102.025 259.912 101.124 259.435 98.1029C258.905 94.8699 254.983 95.2409 252.757 95.8769C253.075 96.1419 253.446 96.4069 253.764 96.6189C253.764 95.3999 253.764 94.2339 253.87 93.0149C254.029 91.1069 253.923 90.4179 255.672 89.7289C258.057 88.7749 260.866 88.4569 263.357 87.8209C264.364 87.6619 263.94 86.1249 262.933 86.3369Z" fill="#E8E8E8"/>
<path d="M270.565 86.814C272.791 86.708 275.07 86.708 277.296 86.973C279.416 87.238 279.31 87.5559 279.628 89.4109C279.84 90.5769 279.893 91.7959 279.999 92.9619C280.423 97.5199 280.741 102.078 281.006 106.636C281.059 107.643 282.649 107.643 282.596 106.636C282.278 100.435 282.066 94.0749 281.059 87.9269C280.794 86.3899 280.529 85.913 278.939 85.648C276.183 85.118 273.321 85.1179 270.565 85.2769C269.558 85.2769 269.558 86.867 270.565 86.814Z" fill="#E8E8E8"/>
<path d="M255.248 112.731C258.375 112.201 261.502 111.671 264.576 111.141C268.127 110.558 271.519 110.823 275.07 110.558C276.713 110.399 284.504 109.604 281.642 106.371C280.953 105.629 279.84 106.742 280.529 107.484C280.953 107.961 273.745 109.021 273.586 109.021C271.36 109.074 269.134 108.968 266.908 109.233C262.88 109.71 258.852 110.558 254.824 111.247C253.817 111.353 254.241 112.89 255.248 112.731Z" fill="#E8E8E8"/>
<path d="M536.784 417.958C536.625 423.523 536.466 429.088 536.307 434.706C543.356 435.183 550.352 435.607 557.401 436.084C557.401 430.36 557.401 424.636 557.401 418.912C550.511 418.594 543.674 418.276 536.784 417.958Z" fill="white" stroke="#161616" stroke-width="2" stroke-miterlimit="10"/>
<path d="M545.953 479.809C546.907 485.957 547.331 491.045 547.543 494.702C548.232 506.839 547.702 509.648 546.642 511.874C544.045 517.333 539.328 519.612 539.752 520.354C540.07 520.831 542.402 520.301 552.79 514.842C552.154 502.758 551.571 490.727 550.935 478.643C549.292 479.067 547.649 479.438 545.953 479.809Z" fill="white" stroke="#161616" stroke-width="2" stroke-miterlimit="10"/>
<path d="M532.227 440.854C541.237 440.907 550.247 441.013 559.257 441.066C558.25 453.15 557.296 465.181 556.289 477.265C548.445 476.629 540.548 476.046 532.704 475.41C532.492 463.909 532.333 452.408 532.227 440.854Z" fill="white" stroke="#161616" stroke-width="2" stroke-miterlimit="10"/>
<path d="M535.883 479.385C538.745 486.328 539.699 492.317 540.017 496.345C540.494 502.281 540.812 506.839 537.95 509.86C536.89 511.026 535.141 512.139 531.749 514.418C528.728 516.432 527.297 517.174 527.403 517.386C527.562 517.704 530.477 517.068 543.197 512.563C544.045 508.27 544.734 502.758 544.575 496.292C544.363 489.402 543.25 483.519 542.031 479.12C540.017 479.226 537.95 479.279 535.883 479.385Z" fill="white" stroke="#161616" stroke-width="2" stroke-miterlimit="10"/>
<path d="M540.494 520.831C542.084 519.506 543.568 518.075 544.999 516.538C546.642 514.736 549.08 511.98 551.624 514.365C551.677 513.941 551.73 513.517 551.783 513.093C548.02 514.948 544.31 516.803 540.547 518.605C539.805 518.976 540.176 520.089 540.971 520.089C544.522 520.142 546.748 513.941 550.405 515.107C551.359 515.425 551.783 513.888 550.829 513.57C549.239 513.093 548.02 513.517 546.695 514.471C545.158 515.584 542.985 518.499 541.024 518.499C541.183 518.976 541.289 519.506 541.448 519.983C545.211 518.128 548.921 516.273 552.684 514.471C553.161 514.259 553.214 513.57 552.843 513.199C551.412 511.874 548.868 511.397 547.066 512.245C545.741 512.828 544.893 514.365 543.939 515.372C542.508 516.909 541.024 518.287 539.434 519.665C538.586 520.354 539.699 521.52 540.494 520.831Z" fill="#161616"/>
<path d="M547.013 512.563C548.603 512.616 550.14 512.934 551.624 513.57C552.525 513.994 553.373 512.616 552.419 512.192C550.67 511.397 548.921 510.973 547.013 510.92C546.006 510.973 546.006 512.563 547.013 512.563Z" fill="#161616"/>
<path d="M538.321 510.708C539.54 511.026 540.6 511.662 541.448 512.616C542.137 513.358 543.25 512.245 542.561 511.503C541.501 510.39 540.176 509.595 538.692 509.224C537.791 508.906 537.367 510.443 538.321 510.708Z" fill="#161616"/>
<path d="M529.735 517.121C531.378 515.902 533.074 514.789 534.823 513.729C535.618 513.252 536.466 512.616 537.314 512.351C538.639 511.874 539.434 512.192 540.653 512.722C540.653 512.245 540.653 511.821 540.653 511.344C538.957 512.086 537.049 512.033 535.3 512.775C533.604 513.464 532.014 515.16 530.265 515.478C530.477 515.955 530.689 516.432 530.901 516.909C534.028 515.372 537.526 515.107 540.653 513.57C541.554 513.093 540.759 511.768 539.858 512.192C536.731 513.729 533.233 513.994 530.106 515.531C529.258 515.955 529.894 517.121 530.742 516.962C532.65 516.644 534.187 514.895 535.989 514.206C537.791 513.517 539.752 513.464 541.501 512.722C542.031 512.51 542.031 511.556 541.501 511.344C539.487 510.443 538.586 509.913 536.572 510.973C533.922 512.351 531.431 513.994 529.046 515.743C528.092 516.326 528.887 517.704 529.735 517.121Z" fill="#161616"/>
<path d="M538.798 487.494C540.123 487.017 541.448 487.07 542.667 487.706C543.568 488.183 544.363 486.805 543.462 486.328C541.872 485.48 540.07 485.321 538.374 485.957C537.42 486.328 537.844 487.865 538.798 487.494Z" fill="#161616"/>
<path d="M540.123 492.794C541.236 492.688 542.296 492.953 543.144 493.695C543.939 494.331 545.052 493.218 544.257 492.582C543.091 491.628 541.66 491.098 540.123 491.204C539.116 491.257 539.116 492.847 540.123 492.794Z" fill="#161616"/>
<path d="M540.706 499.419C541.713 499.313 542.667 499.684 543.25 500.532C543.78 501.38 545.158 500.585 544.628 499.737C543.833 498.412 542.296 497.617 540.759 497.829C540.335 497.882 539.964 498.147 539.964 498.624C539.911 498.995 540.282 499.472 540.706 499.419Z" fill="#161616"/>
<path d="M547.543 487.123C548.497 486.593 549.716 486.646 550.617 487.388C551.412 488.024 552.525 486.911 551.73 486.275C550.299 485.109 548.391 484.844 546.748 485.745C545.847 486.275 546.642 487.653 547.543 487.123Z" fill="#161616"/>
<path d="M548.444 497.14C549.292 496.769 550.246 496.928 550.935 497.564C551.677 498.253 552.843 497.14 552.048 496.451C550.829 495.338 549.133 495.073 547.596 495.815C546.695 496.186 547.543 497.564 548.444 497.14Z" fill="#161616"/>
<path d="M548.656 505.62C549.504 505.09 550.564 505.09 551.359 505.726C552.154 506.362 553.267 505.249 552.472 504.613C551.147 503.5 549.292 503.341 547.861 504.295C547.013 504.825 547.808 506.203 548.656 505.62Z" fill="#161616"/>
<path d="M560.528 441.013C559.468 453.203 558.408 465.393 557.348 477.583" stroke="#161616" stroke-width="6" stroke-miterlimit="10"/>
<path d="M532.544 475.887C541.395 476.523 550.246 477.106 559.097 477.742" stroke="#161616" stroke-width="6" stroke-miterlimit="10"/>
<path d="M559.15 418.435C558.938 424.477 558.673 430.466 558.461 436.508" stroke="#161616" stroke-width="6" stroke-miterlimit="10"/>
<path d="M560.263 448.168C565.192 447.267 570.439 451.136 570.81 456.224C571.34 462.584 564.079 463.697 559.309 463.008C558.302 462.849 557.878 464.386 558.885 464.545C564.715 465.393 572.93 463.75 572.4 456.224C571.976 450.023 565.775 445.518 559.839 446.631C558.832 446.79 559.256 448.327 560.263 448.168Z" fill="#161616"/>
<path d="M559.097 465.817C561.164 466.241 562.807 467.725 563.39 469.739C563.655 470.746 565.192 470.322 564.927 469.315C564.238 466.771 562.171 464.757 559.574 464.28C558.514 464.121 558.09 465.605 559.097 465.817Z" fill="#161616"/>
<path d="M558.302 465.287C559.574 467.142 560.157 469.209 559.945 471.488C559.892 472.495 561.482 472.495 561.535 471.488C561.694 468.997 561.058 466.559 559.627 464.492C559.097 463.644 557.719 464.439 558.302 465.287Z" fill="#161616"/>
<path d="M532.173 447.426C528.675 445.2 522.262 451.613 521.467 454.74C519.877 461.1 528.039 460.358 531.431 462.478C532.279 463.008 533.074 461.63 532.226 461.1C529.788 459.563 526.184 460.146 524.064 458.238C521.467 455.906 523.852 453.097 525.654 451.454C526.608 450.606 529.841 447.797 531.378 448.751C532.226 449.387 533.074 448.009 532.173 447.426Z" fill="#161616"/>
<path d="M531.325 461.736C529.947 462.266 528.675 463.061 527.615 464.174C526.82 465.022 525.813 466.347 526.608 467.513C527.191 468.361 528.569 467.566 527.986 466.718C527.615 466.188 528.993 465.022 529.364 464.704C530.053 464.068 530.848 463.591 531.749 463.273C532.703 462.902 532.332 461.365 531.325 461.736Z" fill="#161616"/>
<path d="M530.689 462.849C529.682 464.439 529.364 466.241 529.735 468.043C529.947 469.05 531.484 468.626 531.272 467.619C530.954 466.188 531.272 464.863 532.067 463.644C532.65 462.796 531.272 462.001 530.689 462.849Z" fill="#161616"/>
<path d="M535.724 446.419C535.459 450.288 535.512 454.21 535.777 458.079C535.883 459.086 537.473 459.086 537.367 458.079C537.049 454.21 537.049 450.288 537.314 446.419C537.42 445.412 535.83 445.412 535.724 446.419Z" fill="#161616"/>
<path d="M536.89 446.843C542.508 447.161 548.073 447.373 553.691 447.479C553.426 447.214 553.161 446.949 552.896 446.684C552.737 450.659 552.578 454.687 552.366 458.662C552.313 459.669 553.903 459.669 553.956 458.662C554.115 454.687 554.274 450.659 554.486 446.684C554.486 446.26 554.115 445.889 553.691 445.889C548.073 445.783 542.508 445.571 536.89 445.253C535.883 445.2 535.883 446.79 536.89 446.843Z" fill="#161616"/>
<path d="M536.254 458.768C538.586 459.404 541.183 459.245 543.515 459.404C546.377 459.563 549.292 459.775 552.154 459.934C553.161 459.987 553.161 458.397 552.154 458.344C549.61 458.185 547.066 458.026 544.522 457.867C541.978 457.708 539.116 457.867 536.625 457.231C535.724 456.966 535.3 458.503 536.254 458.768Z" fill="#161616"/>
<path d="M538.056 466.983C539.01 469.05 541.077 467.248 542.667 467.99C543.409 468.308 543.25 468.785 544.257 468.838C545.423 468.891 548.285 466.559 548.868 468.732C549.027 469.315 549.769 469.474 550.193 469.103C550.723 468.944 551.306 468.785 551.836 468.679C552.472 469.474 553.638 468.308 552.949 467.566C551.73 466.135 550.193 466.93 549.027 467.99C549.451 468.096 549.928 468.202 550.352 468.361C549.875 466.506 547.914 465.287 546.059 466.135C545.158 466.559 545.052 467.354 543.674 466.824C543.409 466.718 543.303 466.294 543.038 466.188C542.455 465.976 539.381 466.294 539.381 466.241C539.01 465.234 537.632 466.029 538.056 466.983Z" fill="#161616"/>
<path d="M540.865 425.272C540.971 424.689 541.66 424.53 542.137 424.742C542.826 425.007 543.197 425.802 543.515 426.385C543.939 427.286 545.317 426.491 544.893 425.59C544.31 424.424 543.409 423.205 541.978 423.046C540.812 422.94 539.593 423.629 539.381 424.795C539.116 425.855 540.653 426.279 540.865 425.272Z" fill="#161616"/>
<path d="M550.617 426.014C550.723 425.484 551.2 425.166 551.73 425.378C552.366 425.59 552.631 426.385 552.737 426.968C552.896 427.975 554.433 427.551 554.274 426.544C554.062 425.272 553.214 423.947 551.836 423.735C550.617 423.576 549.292 424.318 549.08 425.59C548.921 426.597 550.458 427.021 550.617 426.014Z" fill="#161616"/>
<path d="M541.66 428.611C543.462 431.791 547.755 432.268 550.087 429.406C550.723 428.611 549.61 427.498 548.974 428.293C547.278 430.36 544.363 430.201 543.038 427.816C542.561 426.915 541.183 427.71 541.66 428.611Z" fill="#161616"/>
<path d="M486.063 140.609C479.385 137.906 475.357 131.44 472.919 124.974C470.322 118.243 469.209 110.929 469.58 103.721C470.216 90.418 475.887 76.956 486.381 68.476C496.292 60.42 510.973 58.141 521.997 65.455C533.498 73.087 535.565 88.828 535.671 101.495C535.777 115.593 532.491 130.38 522.05 140.503C521.308 141.192 522.421 142.358 523.163 141.616C533.074 131.97 536.837 118.19 537.208 104.728C537.579 91.531 535.989 74.836 525.124 65.773C514.948 57.293 499.843 57.717 488.978 64.607C476.947 72.239 469.845 86.072 468.308 100.011C467.354 108.65 468.414 117.607 471.594 125.769C474.297 132.659 478.59 139.231 485.692 142.093C486.593 142.517 486.964 140.98 486.063 140.609Z" fill="#161616"/>
<path d="M485.321 141.616C483.519 144.16 483.89 147.923 486.54 149.831C488.554 151.262 491.522 151.474 493.907 151.792C496.769 152.216 499.684 152.375 502.599 152.375C507.793 152.322 513.729 151.951 518.552 149.937C522.05 148.453 524.7 144.955 522.845 141.192C522.421 140.291 521.043 141.086 521.467 141.987C525.442 150.096 506.627 150.785 502.546 150.785C498.783 150.785 495.02 150.467 491.363 149.778C489.614 149.46 487.653 149.142 486.54 147.605C485.427 146.015 485.639 143.948 486.699 142.464C487.282 141.563 485.904 140.768 485.321 141.616Z" fill="#161616"/>
<path d="M487.017 150.202C487.017 152.852 487.07 155.555 487.388 158.205C487.547 159.424 487.812 160.484 488.819 161.226C490.25 162.286 492.635 162.233 494.331 162.392C497.193 162.604 500.108 162.604 502.97 162.498C505.673 162.392 508.376 162.18 511.079 161.915C512.669 161.756 514.471 161.809 515.69 160.59C518.393 157.94 518.446 152.905 517.757 149.566C517.545 148.559 516.008 148.983 516.22 149.99C516.591 151.792 516.697 153.594 516.326 155.449C515.796 158.046 515.054 159.742 512.139 160.272C508.747 160.908 504.931 160.908 501.486 160.961C498.094 161.014 494.278 161.173 490.939 160.378C487.865 159.636 488.66 152.746 488.66 150.202C488.607 149.195 487.017 149.195 487.017 150.202Z" fill="#161616"/>
<path d="M487.547 93.1209C493.907 97.0959 498.73 102.926 501.433 109.922C501.804 110.876 503.341 110.452 502.97 109.498C500.108 102.078 495.073 95.9299 488.395 91.7429C487.494 91.1599 486.699 92.5379 487.547 93.1209Z" fill="#161616"/>
<path d="M502.705 109.922C505.832 103.35 510.39 97.7318 516.22 93.3858C517.015 92.8028 516.22 91.3718 515.425 92.0078C509.383 96.5128 504.613 102.343 501.327 109.127C500.903 110.028 502.281 110.823 502.705 109.922Z" fill="#161616"/>
<path d="M501.433 108.067C502.228 118.985 502.599 129.903 502.44 140.821C502.44 141.828 504.03 141.828 504.03 140.821C504.189 129.903 503.818 118.932 503.023 108.067C502.917 107.007 501.327 107.007 501.433 108.067Z" fill="#161616"/>
<path d="M439.37 134.779C446.419 132.394 453.415 130.009 460.464 127.624C461.418 127.306 460.994 125.769 460.04 126.087C452.991 128.472 445.995 130.857 438.946 133.242C437.939 133.56 438.363 135.097 439.37 134.779Z" fill="#161616"/>
<path d="M447.426 124.179C449.864 123.49 452.302 122.748 454.74 122.059C455.694 121.794 455.323 120.257 454.316 120.522C451.878 121.211 449.44 121.953 447.002 122.642C446.048 122.96 446.419 124.497 447.426 124.179Z" fill="#161616"/>
<path d="M429.777 106.53C439.105 106.424 448.38 106.689 457.655 107.272C458.662 107.325 458.662 105.735 457.655 105.682C448.38 105.099 439.052 104.887 429.777 104.94C428.77 104.94 428.77 106.53 429.777 106.53Z" fill="#161616"/>
<path d="M449.493 99.3217C451.719 99.9047 453.998 100.17 456.277 100.223C457.284 100.223 457.284 98.6327 456.277 98.6327C454.104 98.5797 451.984 98.3147 449.917 97.7847C448.91 97.5197 448.486 99.0567 449.493 99.3217Z" fill="#161616"/>
<path d="M446.048 49.979C454.369 57.134 461.948 64.978 468.785 73.564C469.421 74.359 470.534 73.246 469.898 72.451C463.061 63.865 455.482 55.968 447.161 48.866C446.419 48.177 445.253 49.29 446.048 49.979Z" fill="#161616"/>
<path d="M469.315 65.0308C470.746 66.5148 472.124 67.9988 473.555 69.5358C474.244 70.2778 475.357 69.1648 474.668 68.4228C473.237 66.9388 471.859 65.4548 470.428 63.9178C469.739 63.1758 468.626 64.2888 469.315 65.0308Z" fill="#161616"/>
<path d="M437.038 67.9989C439.635 69.5359 442.285 70.9669 444.988 72.2919C445.889 72.7689 446.684 71.3909 445.783 70.9139C443.08 69.5359 440.43 68.1049 437.833 66.6209C436.932 66.0909 436.137 67.4689 437.038 67.9989Z" fill="#161616"/>
<path d="M529.258 55.9148C537.102 48.0708 544.946 40.2268 552.79 32.3828C553.532 31.6408 552.366 30.5278 551.677 31.2698C543.833 39.1138 535.989 46.9578 528.145 54.8018C527.403 55.5438 528.516 56.6568 529.258 55.9148Z" fill="#161616"/>
<path d="M537.155 59.5719C539.169 58.0879 541.183 56.6569 543.197 55.1729C543.992 54.5899 543.25 53.2119 542.402 53.7949C540.388 55.2789 538.374 56.7099 536.36 58.1939C535.512 58.7769 536.307 60.1549 537.155 59.5719Z" fill="#161616"/>
<path d="M504.772 45.5269C506.362 37.8419 507.581 30.1039 508.323 22.3129C508.429 21.3059 506.839 21.3059 506.733 22.3129C505.991 29.9449 504.825 37.5769 503.235 45.1029C503.023 46.1099 504.56 46.5339 504.772 45.5269Z" fill="#161616"/>
<path d="M549.345 94.2869C563.761 92.9619 578.124 91.6369 592.54 90.3119C593.547 90.2059 593.547 88.6159 592.54 88.7219C578.124 90.0469 563.761 91.3719 549.345 92.6969C548.338 92.7499 548.285 94.3399 549.345 94.2869Z" fill="#161616"/>
<path d="M488.766 143.524C497.723 145.485 506.839 145.432 515.743 143.418C516.75 143.206 516.326 141.669 515.319 141.881C506.68 143.842 497.829 143.895 489.19 141.987C488.183 141.775 487.759 143.312 488.766 143.524Z" fill="#161616"/>
<path d="M490.091 156.986C496.928 157.887 503.765 158.099 510.655 157.622C511.662 157.569 511.662 155.979 510.655 156.032C503.765 156.509 496.928 156.297 490.091 155.396C489.084 155.29 489.084 156.88 490.091 156.986Z" fill="#161616"/>
<path d="M539.328 138.171C550.087 145.75 561.058 153.064 572.188 160.113C573.036 160.643 573.831 159.265 572.983 158.735C561.853 151.686 550.882 144.372 540.123 136.793C539.275 136.21 538.48 137.588 539.328 138.171Z" fill="#161616"/>
<path d="M403.913 510.973C393.843 523.322 383.826 535.618 373.756 547.967C385.575 589.519 392.253 600.437 396.228 599.854C399.09 599.43 400.468 593.229 402.005 586.286C405.821 568.955 403.542 554.062 401.21 544.787C407.57 537.685 413.877 530.53 420.237 523.428C414.778 519.294 409.372 515.16 403.913 510.973Z" fill="#161616" stroke="#161616" stroke-width="2" stroke-miterlimit="10"/>
<path d="M366.76 447.373C373.067 452.249 379.109 450.5 391.617 452.62C402.27 454.422 414.248 458.397 426.968 466.347C413.4 482.247 399.832 499.048 386.37 516.75C383.137 521.043 379.904 525.336 376.777 529.629C381.971 530.848 388.225 532.756 395.009 535.83C401.634 538.798 407.04 542.137 411.333 545.158C431.526 527.562 449.546 510.549 465.605 494.49C473.025 487.07 483.519 475.728 485.162 459.669C485.268 458.768 485.268 457.973 485.268 457.178C484.897 430.519 451.348 411.227 430.943 404.125C408.63 396.387 370.258 392.2 359.552 410.697C353.245 421.615 356.955 439.794 366.76 447.373Z" fill="#EDAF1F"/>
<path opacity="0.26" d="M405.927 420.714C405.556 425.749 404.655 431.738 402.8 438.363C401.475 443.08 399.885 447.267 398.295 450.818C396.546 451.507 394.85 452.196 393.101 452.885C404.496 457.39 415.944 461.895 427.339 466.4C418.859 476.099 410.326 486.275 401.74 496.875C392.889 507.793 384.462 518.499 376.459 529.046C382.13 530.901 387.748 532.756 393.419 534.558C413.718 512.192 434.017 489.773 454.316 467.407C456.436 461.312 456.33 456.542 455.694 453.203C452.779 436.879 432.798 423.576 405.927 420.714Z" fill="#6D6C6C"/>
<path opacity="0.23" d="M427.233 466.294C429.088 469.103 430.89 471.965 432.745 474.774C416.951 493.801 401.157 512.775 385.363 531.802C382.554 531.06 379.692 530.265 376.883 529.523C387.006 515.637 397.924 501.38 409.743 487.017C415.626 479.862 421.456 472.972 427.233 466.294Z" fill="#6D6C6C"/>
<path d="M374.498 490.833C390.133 493.695 405.821 496.504 421.456 499.366C439.529 538.798 441.543 551.518 438.151 553.691C435.713 555.228 430.625 551.412 424.954 547.119C410.75 536.36 402.853 523.534 398.56 514.895C389.126 513.623 379.692 512.298 370.258 511.026C371.636 504.295 373.067 497.564 374.498 490.833Z" fill="#161616" stroke="#161616" stroke-width="2" stroke-miterlimit="10"/>
<path d="M342.274 403.012C313.76 411.386 296.376 428.77 285.193 440.218C270.088 455.747 251.538 474.774 256.891 488.819C259.647 495.974 268.021 500.373 307.029 507.157C336.497 512.298 362.043 515.054 381.971 516.591C384.462 507.475 386.953 498.412 389.391 489.296C369.357 482.83 349.376 476.417 329.342 469.951C341.638 467.354 354.57 464.28 368.032 460.517C378.261 457.655 388.013 454.687 397.288 451.56C405.874 434.229 407.729 415.52 398.772 404.92C386.264 390.08 358.227 398.295 342.274 403.012Z" fill="#EDAF1F"/>
<path opacity="0.29" d="M405.715 421.35C405.45 426.597 404.549 433.328 402.111 440.748C400.627 445.253 398.931 449.175 397.235 452.408C395.804 452.514 394.373 452.673 392.942 452.779C380.858 456.754 367.979 460.517 354.358 464.015C345.56 466.294 336.974 468.255 328.653 470.057C348.74 476.364 368.827 482.618 388.914 488.925C388.49 491.098 387.96 493.377 387.324 495.762C386.582 498.518 385.734 501.062 384.939 503.394C357.22 496.557 329.501 489.72 301.782 482.883C300.51 481.346 296.323 475.781 296.959 468.414C297.648 460.411 305.28 454.74 315.032 449.546C343.228 434.6 390.504 424.477 405.715 421.35Z" fill="#6D6C6C"/>
<path opacity="0.24" d="M314.396 471.17C319.431 470.799 324.519 470.428 329.554 470.004C349.323 476.576 369.092 483.201 388.861 489.773C388.013 492.9 387.165 496.08 386.317 499.207C362.361 489.826 338.352 480.498 314.396 471.17Z" fill="#6D6C6C"/>
<path d="M334.801 282.914C342.645 278.303 356.266 271.731 374.392 269.823C402.164 266.908 423.47 276.872 431.897 281.377C430.36 302.206 427.975 318.848 426.067 330.296C423.788 343.97 421.933 351.549 421.085 364.11C420.025 379.851 421.35 392.783 422.569 401.263C413.347 404.125 399.408 407.252 382.236 406.881C365.7 406.51 352.344 402.906 343.387 399.779C345.772 380.805 344.977 365.753 343.811 355.524C342.486 344.129 340.684 338.564 338.511 324.784C335.702 306.976 334.96 292.401 334.801 282.914Z" fill="white" stroke="#161616" stroke-width="2" stroke-miterlimit="10"/>
<path opacity="0.14" d="M392.147 276.13C393.26 280.158 394.532 285.723 395.38 292.401C395.963 296.906 398.348 317.311 390.928 344.235C386.37 360.824 381.547 378.367 365.753 392.783C360.665 397.447 355.736 400.574 352.132 402.535C360.135 404.602 370.576 406.563 382.925 406.669C399.09 406.828 412.446 403.913 421.721 401.051C421.191 397.076 420.502 391.087 420.237 383.879C420.025 377.572 420.025 367.502 424.371 339.147C427.816 316.834 430.254 307.241 431.473 287.048C431.632 284.716 431.685 282.755 431.791 281.43C427.922 279.151 422.887 276.66 416.686 274.646C410.962 272.791 405.821 271.837 401.581 271.413C398.507 272.95 395.327 274.54 392.147 276.13Z" fill="#6D6C6C"/>
<path opacity="0.17" d="M430.254 290.069C427.286 306.87 423.364 320.438 420.29 329.872C411.28 357.432 404.973 375.982 387.96 389.55C377.413 397.977 366.442 401.528 359.393 403.224C366.548 405.238 376.671 407.199 388.914 406.934C403.012 406.616 414.407 403.436 421.88 400.733C420.873 394.267 419.707 384.568 420.025 372.749C420.396 357.432 422.887 348.21 425.643 331.409C427.18 321.551 429.141 307.453 430.254 290.069Z" fill="#6D6C6C"/>
<path d="M334.483 282.649C327.593 287.419 318.742 294.945 311.004 306.128C293.567 331.462 294.044 358.333 294.733 368.244C297.913 376.777 303.372 387.96 312.912 398.931C318.477 405.344 326.639 414.566 340.578 420.502C345.242 422.516 349.323 423.629 352.291 424.265C354.835 421.986 357.326 419.707 359.87 417.428C351.708 407.888 343.493 397.871 335.278 387.536C328.971 379.639 322.929 371.795 317.099 364.057C317.311 357.538 318.689 345.719 325.791 333.37C329.819 326.374 334.536 321.286 338.299 317.841C337.027 306.128 335.755 294.415 334.483 282.649Z" fill="white" stroke="#161616" stroke-width="2" stroke-miterlimit="10"/>
<path opacity="0.13" d="M335.49 294.468C320.226 311.693 312.965 328.017 309.361 338.299C303.054 356.107 304.379 365.435 305.333 369.887C306.128 373.385 307.877 379.374 314.29 388.49C319.855 396.387 331.568 410.538 353.881 422.198C355.842 420.29 357.803 418.435 359.764 416.527C353.457 409.425 347.097 401.952 340.684 394.161C332.257 383.932 324.413 373.862 317.152 364.004C317.364 358.651 318.265 351.178 321.392 342.804C326.109 330.243 333.529 321.975 338.14 317.576C337.186 309.891 336.338 302.206 335.49 294.468Z" fill="#6D6C6C"/>
<path opacity="0.16" d="M317.099 364.693C318.053 370.894 320.014 378.791 324.148 387.324C333.264 405.874 347.521 416.103 354.782 420.555C356.213 419.283 357.591 418.064 359.022 416.792C345.03 399.408 331.091 382.024 317.099 364.693Z" fill="#6D6C6C"/>
<path d="M432.693 281.695C440.431 286.412 450.395 293.779 459.034 304.75C478.644 329.607 478.061 356.001 477.319 365.753C473.715 374.127 467.62 385.098 456.914 395.91C450.66 402.164 441.491 411.227 425.856 417.11C420.609 419.071 415.998 420.184 412.659 420.82C409.85 418.594 406.988 416.368 404.179 414.142C413.295 404.761 422.57 394.956 431.792 384.78C438.841 376.989 445.625 369.304 452.197 361.725C451.932 355.365 450.448 343.758 442.445 331.568C437.887 324.678 432.64 319.696 428.4 316.304C429.884 304.75 431.315 293.249 432.693 281.695Z" fill="white" stroke="#161616" stroke-width="2" stroke-miterlimit="10"/>
<path opacity="0.16" d="M432.321 294.574C439.052 301.623 448.221 312.912 455.376 328.653C458.768 336.126 464.28 348.263 464.386 359.711C464.757 394.532 415.467 418.488 412.605 419.866C409.796 418.064 407.04 416.315 404.231 414.513C420.184 397.023 436.084 379.533 452.037 362.043C451.719 356.319 450.394 345.666 444.034 334.324C438.787 324.996 432.268 318.954 427.975 315.615C429.459 308.619 430.89 301.623 432.321 294.574Z" fill="#6D6C6C"/>
<path opacity="0.12" d="M452.567 362.202C451.772 366.813 450.447 371.848 448.38 377.042C439.052 400.574 420.184 413.453 410.644 418.965C408.365 417.481 406.139 415.997 403.86 414.513C420.078 397.076 436.296 379.639 452.567 362.202Z" fill="#6D6C6C"/>
<path d="M444.882 366.124H314.555V448.645H444.882V366.124Z" fill="white" stroke="#161616" stroke-width="2" stroke-miterlimit="10"/>
<path d="M377.837 415.255C370.947 416.103 367.608 407.729 369.41 402.164C371.159 396.652 377.678 394.055 382.978 395.963C388.225 397.871 390.769 404.284 388.914 409.425C386.847 415.149 379.639 417.481 374.339 414.937C373.438 414.513 372.59 415.891 373.544 416.315C378.261 418.594 384.038 417.746 387.801 414.036C391.458 410.379 391.988 404.602 389.709 400.097C384.515 389.815 368.456 393.101 367.343 404.39C366.76 410.432 371.106 417.693 377.837 416.898C378.844 416.739 378.844 415.149 377.837 415.255Z" fill="#161616"/>
<path opacity="0.14" d="M363.474 365.912C381.123 372.06 393.154 387.801 393.525 404.708C394.002 425.908 376.194 445.836 351.92 447.85C382.819 448.115 413.718 448.38 444.67 448.645C444.564 420.979 444.511 393.313 444.405 365.7C417.428 365.7 390.451 365.806 363.474 365.912Z" fill="#6D6C6C"/>
<path opacity="0.26" d="M444.67 365.647C444.193 382.501 440.854 395.645 438.045 404.284C433.911 416.845 430.943 426.014 422.41 434.123C410.803 445.253 396.334 447.32 389.974 447.85C408.047 448.009 426.12 448.168 444.193 448.38C444.246 432.639 444.352 416.898 444.458 401.104C444.458 389.285 444.564 377.466 444.67 365.647Z" fill="#6D6C6C"/>
<path d="M375.876 240.143C372.961 243.694 375.77 248.04 375.24 259.647C374.975 265.424 374.021 270.088 373.279 273.215C375.77 274.381 380.169 276.024 385.84 276.183C392.836 276.342 398.136 274.169 400.733 272.897C399.567 270.565 398.03 266.961 397.076 262.297C394.691 250.425 398.931 244.86 395.433 240.461C391.352 235.373 379.798 235.32 375.876 240.143Z" fill="white" stroke="#161616" stroke-width="2" stroke-miterlimit="10"/>
<path d="M357.379 189.157C354.04 197.743 355.312 205.481 356.054 208.82C355.736 208.873 349.535 210.198 347.839 214.968C346.143 219.791 349.641 226.628 356.955 228.854C359.605 235.32 366.018 247.828 379.533 254.665C381.812 255.778 383.985 256.679 386.158 257.315C388.119 256.573 390.769 255.407 393.79 253.658C403.224 248.199 408.471 241.415 409.69 239.772C411.916 236.804 414.937 232.034 417.057 225.462C418.223 225.674 420.29 225.78 422.304 224.773C426.862 222.441 429.141 215.18 425.961 210.463C423.311 206.541 418.17 206.382 417.534 206.382C418.223 203.626 420.343 193.715 414.99 183.91C408.842 172.621 395.645 166.685 383.243 168.381C364.905 170.766 357.697 188.309 357.379 189.157Z" fill="white" stroke="#161616" stroke-width="2" stroke-miterlimit="10"/>
<path d="M375.187 254.188C378.42 256.096 381.971 259.064 385.946 258.746C389.232 258.481 392.889 256.573 395.38 254.559C396.175 253.923 395.062 252.81 394.267 253.446C391.935 255.301 388.172 257.262 385.098 257.209C381.865 257.156 378.579 254.453 375.929 252.81C375.134 252.28 374.339 253.658 375.187 254.188Z" fill="#161616"/>
<path d="M374.975 254.877C377.996 257.474 381.441 260.389 385.681 260.177C389.815 259.965 393.684 257.209 396.387 254.241C397.076 253.499 395.963 252.386 395.274 253.128C392.942 255.672 389.656 258.163 386.052 258.534C382.077 258.905 378.897 256.202 376.088 253.764C375.346 253.075 374.233 254.188 374.975 254.877Z" fill="#161616"/>
<path d="M376.989 255.195C376.989 255.142 376.989 255.142 376.989 255.195C376.671 254.718 376.088 254.612 375.717 254.983C375.717 254.983 375.717 254.983 375.664 255.036C375.346 255.301 375.346 255.884 375.664 256.149C381.494 261.714 392.2 263.516 396.387 254.983C396.811 254.082 395.486 253.234 395.009 254.188C391.299 261.82 381.918 259.965 376.83 255.036C376.83 255.407 376.83 255.778 376.83 256.149C376.83 256.149 376.83 256.149 376.883 256.096C376.459 256.043 376.035 255.99 375.611 255.937V255.99C376.141 256.838 377.519 256.043 376.989 255.195Z" fill="#161616"/>
<path d="M383.348 206.17C382.659 214.756 383.03 223.289 384.408 231.769C384.461 232.193 384.991 232.458 385.362 232.299C387.429 231.61 388.914 230.391 390.027 228.536C390.557 227.635 389.178 226.84 388.648 227.741C387.747 229.278 386.634 230.179 384.938 230.762C385.256 230.921 385.574 231.133 385.892 231.292C384.514 222.971 384.196 214.544 384.885 206.117C385.044 205.11 383.454 205.11 383.348 206.17Z" fill="#161616"/>
<path d="M373.915 214.597C374.021 215.074 374.816 218.042 373.915 218.519C373.014 218.996 370.47 217.088 369.675 214.597C369.039 212.477 369.569 209.827 370.576 209.615C371.636 209.35 373.279 212.265 373.915 214.597Z" fill="#161616" stroke="#161616" stroke-miterlimit="10"/>
<path d="M401.263 214.597C401.369 215.074 402.164 218.042 401.263 218.519C400.362 218.996 397.818 217.088 397.023 214.597C396.387 212.477 396.917 209.827 397.924 209.615C398.984 209.35 400.627 212.265 401.263 214.597Z" fill="#161616" stroke="#161616" stroke-miterlimit="10"/>
<path d="M381.441 238.765C387.907 241.521 393.79 237.652 398.56 233.465C399.355 232.776 398.189 231.663 397.447 232.352C393.313 235.956 388.013 239.825 382.289 237.387C381.282 237.016 380.487 238.394 381.441 238.765Z" fill="#161616"/>
<path d="M400.097 223.024C401.104 223.024 401.104 221.434 400.097 221.434C399.09 221.434 399.09 223.024 400.097 223.024Z" fill="#161616"/>
<path d="M405.98 220.056C406.033 220.003 406.086 219.95 406.139 219.897C406.457 219.579 406.457 219.102 406.139 218.784C405.821 218.466 405.344 218.466 405.026 218.784C404.973 218.837 404.92 218.89 404.867 218.943C404.549 219.261 404.549 219.738 404.867 220.056C405.185 220.374 405.662 220.374 405.98 220.056Z" fill="#161616"/>
<path d="M404.231 223.925C404.284 223.925 404.337 223.925 404.39 223.925C404.814 223.925 405.185 223.554 405.185 223.13C405.185 222.706 404.814 222.335 404.39 222.335C404.337 222.335 404.284 222.335 404.231 222.335C403.807 222.335 403.436 222.706 403.436 223.13C403.436 223.554 403.754 223.925 404.231 223.925Z" fill="#161616"/>
<path d="M367.661 205.11C369.675 203.414 372.643 203.361 374.657 205.004C375.452 205.64 376.565 204.527 375.77 203.891C373.014 201.665 369.198 201.665 366.495 203.997C365.753 204.633 366.919 205.746 367.661 205.11Z" fill="#161616"/>
<path d="M393.525 204.527C395.804 202.513 399.037 202.142 401.74 203.573C402.641 204.05 403.436 202.672 402.535 202.195C399.196 200.393 395.221 200.87 392.412 203.414C391.617 204.103 392.73 205.216 393.525 204.527Z" fill="#161616"/>
<path d="M368.085 222.865C369.092 222.865 369.092 221.275 368.085 221.275C367.078 221.275 367.078 222.865 368.085 222.865Z" fill="#161616"/>
<path d="M373.703 222.123C374.71 222.123 374.71 220.533 373.703 220.533C372.696 220.533 372.696 222.123 373.703 222.123Z" fill="#161616"/>
<path d="M370.894 223.342C370.841 223.395 370.788 223.448 370.735 223.501C370.417 223.819 370.417 224.296 370.735 224.614C371.053 224.932 371.53 224.932 371.848 224.614C371.901 224.561 371.954 224.508 372.007 224.455C372.325 224.137 372.325 223.66 372.007 223.342C371.689 223.024 371.212 223.024 370.894 223.342Z" fill="#161616"/>
<path d="M366.018 171.932C362.838 173.893 355.895 178.186 351.178 186.984C346.461 195.729 346.514 203.997 346.726 207.548C338.988 221.487 335.49 233.783 333.794 242.157C331.038 255.46 332.522 260.336 334.43 263.569C339.094 271.519 348.475 273.48 350.754 273.957C362.467 276.448 371.795 270.459 373.915 269.081C374.498 267.332 375.081 265.159 375.399 262.721C375.982 258.534 375.664 254.93 375.187 252.333C372.537 250.16 369.463 247.245 366.495 243.429C361.99 237.599 359.446 231.875 358.015 227.741C353.351 227.264 349.853 224.084 349.535 220.533C349.217 217.194 351.549 212.901 354.623 212.901C356.902 212.901 358.545 215.233 358.863 215.657C360.612 214.65 363.05 212.901 365.223 210.145C368.35 206.17 368.88 202.619 370.311 198.909C371.689 195.305 374.339 190.323 380.063 185.129C385.575 187.09 389.974 188.998 392.995 190.429C402.694 194.934 408.206 197.584 412.499 203.361C414.884 206.541 416.103 209.668 416.739 211.629C421.668 207.866 423.682 208.873 424.106 209.085C427.233 210.834 427.127 220.427 422.251 223.077C420.396 224.084 418.276 223.819 416.951 223.501C415.414 228.854 412.022 237.599 404.231 245.337C401.634 247.934 398.984 249.948 396.599 251.485C396.387 253.446 396.281 256.149 396.811 259.329C397.288 262.244 398.136 264.629 398.931 266.325C411.81 274.805 427.816 273.268 436.508 264.152C444.246 255.99 444.246 243.641 441.331 235.214C438.681 227.529 433.54 222.918 430.996 220.904C431.685 217.936 435.501 200.34 424.424 184.175C421.562 179.988 413.559 169.865 399.143 166.367C383.879 162.657 371.318 168.699 366.018 171.932Z" fill="#CE6796"/>
<path opacity="0.17" d="M399.62 193.715C405.609 201.241 407.199 208.184 407.729 211.788C409.902 226.946 401.104 239.242 396.652 245.549C392.995 250.69 389.232 254.347 386.529 256.732C388.861 262.986 391.14 269.187 393.472 275.441C395.857 274.646 398.242 273.851 400.627 273.056C399.514 271.095 398.348 268.657 397.447 265.689C395.804 260.389 395.698 255.725 395.857 252.545C398.772 250.478 402.164 247.669 405.45 243.959C412.022 236.539 415.308 228.907 417.004 223.766C418.064 223.978 420.343 224.243 422.516 223.024C427.074 220.427 426.332 213.961 426.279 213.537C426.12 212.159 425.802 209.933 424.212 209.032C422.357 208.025 419.283 208.979 416.845 211.841C416.103 209.244 413.983 203.255 408.259 198.485C405.079 195.835 401.846 194.457 399.62 193.715Z" fill="#6D6C6C"/>
<path opacity="0.19" d="M384.091 206.647C383.773 206.594 382.713 211.205 379.48 231.557C381.335 231.557 383.19 231.557 385.045 231.557C384.674 228.854 384.25 224.932 384.038 220.162C383.773 212 384.409 206.7 384.091 206.647Z" fill="#6D6C6C"/>
<path opacity="0.54" d="M430.678 221.434C429.777 221.964 433.169 226.522 432.692 233.306C432.533 235.426 432.215 240.249 428.399 243.482C428.134 243.694 422.463 248.358 416.845 245.39C413.506 243.641 411.492 239.931 411.598 235.903C410.008 238.871 407.411 242.793 403.33 246.609C400.786 248.994 398.295 250.743 396.122 252.068C395.963 254.4 395.963 257.58 396.811 261.184C397.288 263.145 397.871 264.841 398.454 266.219C400.097 267.279 402.535 268.71 405.715 269.823C407.729 270.512 418.806 274.381 429.618 269.028C431.526 268.074 435.766 265.901 438.84 261.237C439.211 260.654 440.589 258.587 441.596 255.089C445.2 243.111 439.9 232.299 439.423 231.398C436.508 225.515 431.791 220.798 430.678 221.434Z" fill="#B6527F"/>
<path opacity="0.35" d="M357.962 227.953C357.485 228.006 358.545 232.352 357.379 236.645C356.531 239.825 353.828 245.019 349.217 246.079C344.394 247.139 338.405 243.588 335.649 236.963C334.377 239.878 332.681 244.542 332.416 250.478C332.257 254.347 332.045 258.481 333.953 262.562C338.246 271.678 350.86 275.229 360.241 274.381C366.495 273.798 371.212 271.36 373.756 269.717C374.392 267.915 375.028 265.742 375.452 263.251C376.141 258.958 375.982 255.195 375.611 252.439C371.424 249.418 368.562 246.291 366.76 244.012C364.216 240.779 360.771 236.433 359.022 230.391C358.757 229.702 358.28 227.9 357.962 227.953Z" fill="#B6527F"/>
</svg>
