<svg width="24" height="24" viewBox="0 0 24 24" fill="none" xmlns="http://www.w3.org/2000/svg">
<path d="M4.71019 3.29019C4.61695 3.19695 4.50626 3.12299 4.38443 3.07253C4.26261 3.02207 4.13204 2.99609 4.00019 2.99609C3.86833 2.99609 3.73776 3.02207 3.61594 3.07253C3.49411 3.12299 3.38342 3.19695 3.29019 3.29019C3.10188 3.47849 2.99609 3.73388 2.99609 4.00019C2.99609 4.26649 3.10188 4.52188 3.29019 4.71019L8.92019 10.3402C8.56399 11.0028 8.43077 11.7626 8.54027 12.5068C8.64978 13.2511 8.99617 13.9403 9.52812 14.4722C10.0601 15.0042 10.7493 15.3506 11.4935 15.4601C12.2378 15.5696 12.9976 15.4364 13.6602 15.0802L19.2902 20.7102C19.3831 20.8039 19.4937 20.8783 19.6156 20.9291C19.7375 20.9798 19.8682 21.006 20.0002 21.006C20.1322 21.006 20.2629 20.9798 20.3848 20.9291C20.5066 20.8783 20.6172 20.8039 20.7102 20.7102C20.8039 20.6172 20.8783 20.5066 20.9291 20.3848C20.9798 20.2629 21.006 20.1322 21.006 20.0002C21.006 19.8682 20.9798 19.7375 20.9291 19.6156C20.8783 19.4937 20.8039 19.3831 20.7102 19.2902L4.71019 3.29019ZM12.0002 13.5002C11.6024 13.5002 11.2208 13.3422 10.9395 13.0608C10.6582 12.7795 10.5002 12.398 10.5002 12.0002V11.9302L12.0602 13.4902L12.0002 13.5002Z" fill="white"/>
<path d="M12.2201 17.0001C7.92007 17.1001 5.10007 13.4101 4.22007 12.0001C4.84654 11.0008 5.59943 10.0866 6.46007 9.28012L5.00007 7.87012C3.87139 8.93359 2.90448 10.1566 2.13007 11.5001C2.0423 11.6521 1.99609 11.8246 1.99609 12.0001C1.99609 12.1757 2.0423 12.3481 2.13007 12.5001C2.76007 13.5901 6.13007 19.0001 12.0201 19.0001H12.2701C13.3776 18.9673 14.4708 18.7405 15.5001 18.3301L13.9201 16.7501C13.3644 16.8963 12.7943 16.9801 12.2201 17.0001Z" fill="white"/>
<path d="M21.87 11.4999C21.23 10.3899 17.7 4.81987 11.73 4.99987C10.6225 5.03273 9.52924 5.25949 8.5 5.66987L10.08 7.24987C10.6356 7.1037 11.2058 7.01985 11.78 6.99987C16.07 6.88987 18.89 10.5899 19.78 11.9999C19.1381 13.0022 18.3682 13.9165 17.49 14.7199L19 16.1299C20.1428 15.0692 21.1234 13.8461 21.91 12.4999C21.9918 12.3444 22.0311 12.1701 22.0241 11.9945C22.0171 11.819 21.9639 11.6484 21.87 11.4999V11.4999Z" fill="white"/>
</svg>
