<svg width="32" height="32" viewBox="0 0 32 32" fill="none" xmlns="http://www.w3.org/2000/svg">
<path d="M16 2.66675C13.3629 2.66675 10.7851 3.44873 8.59242 4.91382C6.39977 6.37891 4.6908 8.46129 3.68163 10.8976C2.67246 13.334 2.40842 16.0149 2.92289 18.6013C3.43736 21.1877 4.70724 23.5635 6.57194 25.4282C8.43664 27.2929 10.8124 28.5627 13.3988 29.0772C15.9852 29.5917 18.6661 29.3276 21.1025 28.3185C23.5388 27.3093 25.6212 25.6003 27.0863 23.4077C28.5514 21.215 29.3334 18.6372 29.3334 16.0001C29.3334 14.2491 28.9885 12.5153 28.3184 10.8976C27.6484 9.27996 26.6662 7.81011 25.4281 6.57199C24.19 5.33388 22.7201 4.35175 21.1025 3.68169C19.4848 3.01162 17.751 2.66675 16 2.66675ZM16 5.33341C16.8035 5.33866 17.6039 5.43256 18.3867 5.61341C18.1549 6.13661 17.7977 6.59457 17.3467 6.94675C17.0534 7.17341 16.7334 7.36008 16.4134 7.56008C15.4003 8.05885 14.5462 8.82987 13.9467 9.78675C13.2899 11.1555 13.0048 12.673 13.12 14.1867C13.12 16.0001 13.12 17.0667 11.8534 18.0134C10.0267 19.4401 7.24003 18.6401 5.50669 17.9201C5.39338 17.2863 5.33538 16.6439 5.33336 16.0001C5.33336 13.1711 6.45717 10.458 8.45755 8.45761C10.4579 6.45722 13.1711 5.33341 16 5.33341ZM6.66669 21.0667C7.53793 21.2932 8.43325 21.4141 9.33336 21.4267C10.8395 21.4682 12.3152 20.9982 13.52 20.0934C15.8 18.3067 15.8 16.0134 15.8 14.1734C15.6989 13.1085 15.8686 12.0352 16.2934 11.0534C16.6792 10.528 17.1934 10.1102 17.7867 9.84008C18.2106 9.59235 18.6202 9.32081 19.0134 9.02675C19.842 8.37225 20.4854 7.51281 20.88 6.53341C22.756 7.49323 24.3056 8.98717 25.3334 10.8267C23.4267 11.0934 20.72 11.7201 20.1867 14.2001C20.0663 14.7926 20.0038 15.3955 20 16.0001C20.0432 16.6759 19.9099 17.3513 19.6134 17.9601L19.48 18.1867C18.6134 19.6267 17.64 21.2667 18.96 23.5201C19.12 23.8001 19.2934 24.0667 19.4667 24.3334C19.8216 24.7433 20.0609 25.2404 20.16 25.7734C18.8487 26.3514 17.4331 26.6554 16 26.6667C14.0849 26.6572 12.2076 26.1322 10.5653 25.1468C8.92306 24.1614 7.57639 22.7521 6.66669 21.0667ZM22.5734 24.4267C22.3427 23.8943 22.0614 23.3853 21.7334 22.9067C21.5867 22.6934 21.44 22.4801 21.3067 22.2534C20.7867 21.3468 20.9734 20.9201 21.8134 19.5867L21.9467 19.3601C22.4692 18.3628 22.7177 17.2448 22.6667 16.1201C22.6654 15.6729 22.7055 15.2265 22.7867 14.7867C23 13.8134 25.0667 13.5467 26.3467 13.4534C26.864 15.4648 26.7783 17.5839 26.1003 19.5469C25.4222 21.5099 24.1818 23.2301 22.5334 24.4934L22.5734 24.4267Z" fill="white"/>
</svg>
