<svg width="24" height="24" viewBox="0 0 24 24" fill="none" xmlns="http://www.w3.org/2000/svg">
<path d="M12.0004 21C11.8688 21.0007 11.7383 20.9755 11.6165 20.9258C11.4946 20.876 11.3838 20.8027 11.2904 20.71L3.52036 12.93C2.54572 11.9452 1.99902 10.6156 1.99902 9.22999C1.99902 7.84442 2.54572 6.51481 3.52036 5.52999C4.50262 4.5505 5.83319 4.00046 7.22036 4.00046C8.60753 4.00046 9.9381 4.5505 10.9204 5.52999L12.0004 6.60999L13.0804 5.52999C14.0626 4.5505 15.3932 4.00046 16.7804 4.00046C18.1675 4.00046 19.4981 4.5505 20.4804 5.52999C21.455 6.51481 22.0017 7.84442 22.0017 9.22999C22.0017 10.6156 21.455 11.9452 20.4804 12.93L12.7104 20.71C12.6169 20.8027 12.5061 20.876 12.3843 20.9258C12.2624 20.9755 12.132 21.0007 12.0004 21Z" fill="white"/>
</svg>
