<svg width="24" height="24" viewBox="0 0 24 24" fill="none" xmlns="http://www.w3.org/2000/svg">
<path d="M12.0004 21C11.8688 21.0008 11.7383 20.9756 11.6165 20.9258C11.4946 20.876 11.3838 20.8027 11.2904 20.71L3.52036 12.93C2.54572 11.9452 1.99902 10.6156 1.99902 9.23002C1.99902 7.84445 2.54572 6.51484 3.52036 5.53002C4.50262 4.55053 5.83319 4.00049 7.22036 4.00049C8.60753 4.00049 9.9381 4.55053 10.9204 5.53002L12.0004 6.61002L13.0804 5.53002C14.0626 4.55053 15.3932 4.00049 16.7804 4.00049C18.1675 4.00049 19.4981 4.55053 20.4804 5.53002C21.455 6.51484 22.0017 7.84445 22.0017 9.23002C22.0017 10.6156 21.455 11.9452 20.4804 12.93L12.7104 20.71C12.6169 20.8027 12.5061 20.876 12.3843 20.9258C12.2624 20.9756 12.132 21.0008 12.0004 21ZM7.22036 6.00002C6.79704 5.9981 6.37754 6.0802 5.98617 6.24155C5.5948 6.40291 5.23933 6.64031 4.94036 6.94002C4.33642 7.54714 3.9974 8.36866 3.9974 9.22502C3.9974 10.0814 4.33642 10.9029 4.94036 11.51L12.0004 18.58L19.0604 11.51C19.6643 10.9029 20.0033 10.0814 20.0033 9.22502C20.0033 8.36866 19.6643 7.54714 19.0604 6.94002C18.444 6.35773 17.6283 6.03331 16.7804 6.03331C15.9325 6.03331 15.1167 6.35773 14.5004 6.94002L12.7104 8.74002C12.6174 8.83375 12.5068 8.90814 12.3849 8.95891C12.2631 9.00968 12.1324 9.03581 12.0004 9.03581C11.8683 9.03581 11.7376 9.00968 11.6158 8.95891C11.4939 8.90814 11.3833 8.83375 11.2904 8.74002L9.50036 6.94002C9.20139 6.64031 8.84592 6.40291 8.45455 6.24155C8.06318 6.0802 7.64368 5.9981 7.22036 6.00002Z" fill="#C2C2C2"/>
</svg>
