<svg width="85" height="39" viewBox="0 0 85 39" fill="none" xmlns="http://www.w3.org/2000/svg">
<path d="M3.9883 12.1L5.6164 16.2631C5.74753 16.6201 6.0644 17.5379 6.56704 19.0167C7.06967 20.4955 7.40477 21.4934 7.57231 22.0106C7.75442 21.5007 8.09316 20.51 8.58851 19.0385C9.08386 17.5598 9.40802 16.6273 9.561 16.2413L11.1672 12.1H15.0681L9.45173 26.4469H5.7366L0 12.1H3.9883Z" fill="white"/>
<path d="M16.7509 26.4469V12.1H20.3786V26.4469H16.7509Z" fill="white"/>
<path d="M37.1841 18.4157V20.0657C37.1841 21.3769 36.8672 22.5424 36.2334 23.5623C35.5997 24.5748 34.7219 25.3579 33.6001 25.9115C32.4855 26.4652 31.218 26.742 29.7975 26.742C28.3042 26.742 26.993 26.436 25.8639 25.8241C24.742 25.2122 23.8715 24.3526 23.2523 23.2454C22.6332 22.1308 22.3236 20.8415 22.3236 19.3773C22.3236 17.8985 22.6441 16.5873 23.2851 15.4436C23.9335 14.2926 24.8331 13.3966 25.9841 12.7556C27.1423 12.1146 28.4681 11.794 29.9614 11.794C31.2144 11.794 32.3398 12.0162 33.3378 12.4606C34.3358 12.9049 35.148 13.5278 35.7745 14.3291C36.401 15.1304 36.798 16.0446 36.9655 17.0717H33.1193C32.908 16.4598 32.5147 15.9863 31.9392 15.6512C31.3637 15.3161 30.6826 15.1486 29.8959 15.1486C28.7012 15.1486 27.7688 15.531 27.0986 16.2959C26.4284 17.0535 26.0933 18.0661 26.0933 19.3336C26.0933 20.6157 26.4321 21.61 27.1095 22.3166C27.787 23.0232 28.7012 23.3765 29.8522 23.3765C30.6753 23.3765 31.3929 23.209 32.0048 22.8739C32.6239 22.5388 33.0319 22.0798 33.2286 21.4971H29.8303V18.4157H37.1841Z" fill="white"/>
<path d="M39.3476 12.1H45.1716C49.098 12.1 51.0575 13.688 51.0503 16.8641C51.0503 17.8184 50.8499 18.6488 50.4493 19.3554C50.0486 20.0547 49.4659 20.5974 48.701 20.9835L51.236 26.4469H47.1603L45.0842 21.6173H42.9753V26.4469H39.3476V12.1ZM45.1498 18.525C45.8637 18.525 46.3881 18.3647 46.7232 18.0442C47.0583 17.7237 47.2259 17.3303 47.2259 16.8641C47.2259 16.4197 47.0656 16.0373 46.7451 15.7168C46.4246 15.3963 45.9001 15.236 45.1716 15.236H42.9753V18.525H45.1498Z" fill="white"/>
<path d="M68.0852 19.268C68.0852 20.7395 67.7538 22.0398 67.0909 23.1689C66.428 24.298 65.5029 25.1758 64.3155 25.8023C63.1281 26.4287 61.7732 26.742 60.2507 26.742C58.7428 26.742 57.3988 26.4324 56.2187 25.8132C55.0459 25.194 54.1244 24.3199 53.4542 23.1907C52.7913 22.0616 52.4598 20.7613 52.4598 19.2899C52.4598 17.8257 52.7876 16.5254 53.4432 15.389C54.1061 14.2453 55.0276 13.3602 56.2077 12.7337C57.3951 12.1073 58.7501 11.794 60.2725 11.794C61.7804 11.794 63.1281 12.1073 64.3155 12.7337C65.5029 13.3602 66.428 14.238 67.0909 15.3671C67.7538 16.4889 68.0852 17.7892 68.0852 19.268ZM64.239 19.268C64.239 18.0296 63.8747 17.0353 63.1463 16.285C62.4251 15.5274 61.4745 15.1486 60.2944 15.1486C59.0997 15.1486 58.1345 15.531 57.3988 16.2959C56.663 17.0535 56.2952 18.0515 56.2952 19.2899C56.2952 20.5282 56.6594 21.5189 57.3878 22.262C58.1163 23.005 59.0779 23.3765 60.2725 23.3765C61.4526 23.3765 62.4069 23.0013 63.1354 22.251C63.8711 21.5007 64.239 20.5064 64.239 19.268Z" fill="white"/>
<path d="M85 12.1V26.4469H81.4597V25.4198C81.4597 23.4967 81.5435 21.7812 81.711 20.2733L79.023 26.0427H75.8214L73.4285 20.4263C73.6106 22.3348 73.7016 23.9993 73.7016 25.4198V26.4469H70.2487V12.1H73.4066L77.5697 22.0106L81.8203 12.1H85Z" fill="white"/>
<path fill-rule="evenodd" clip-rule="evenodd" d="M60.3599 38.6533C59.8056 38.6533 59.2854 38.397 58.9632 37.9652L56.1024 34.1312C55.5514 33.3928 55.7301 32.3666 56.5015 31.8391C57.2729 31.3117 58.3449 31.4827 58.8959 32.2211L60.3599 34.1832L61.8239 32.2211C62.3749 31.4827 63.4469 31.3117 64.2183 31.8391C64.9897 32.3666 65.1684 33.3928 64.6174 34.1312L61.7566 37.9652C61.4344 38.397 60.9142 38.6533 60.3599 38.6533Z" fill="white"/>
<path fill-rule="evenodd" clip-rule="evenodd" d="M60.36 0C60.9143 0 61.4345 0.256271 61.7567 0.688078L64.6175 4.52203C65.1685 5.26048 64.9898 6.28669 64.2184 6.81415C63.447 7.34161 62.375 7.17057 61.824 6.43213L60.36 4.47006L58.8959 6.43213C58.3449 7.17057 57.2729 7.34161 56.5015 6.81415C55.7301 6.28669 55.5514 5.26048 56.1024 4.52203L58.9632 0.688078C59.2854 0.256271 59.8056 0 60.36 0Z" fill="white"/>
</svg>
