<svg width="32" height="32" viewBox="0 0 32 32" fill="none" xmlns="http://www.w3.org/2000/svg">
<g clip-path="url(#clip0)">
<path d="M27.2133 7.85325L21.88 5.45325H20.7867L16 7.59992L11.2133 5.45325H11.1467L10.9867 5.33325H10.1867L4.85333 7.73325C4.58731 7.83518 4.36094 8.01963 4.20738 8.25957C4.05381 8.49952 3.98114 8.78234 4 9.06659V25.3333C4.00037 25.5563 4.05671 25.7758 4.16387 25.9714C4.27102 26.1671 4.42556 26.3328 4.61333 26.4533C4.82793 26.5919 5.07785 26.6659 5.33333 26.6666C5.52199 26.6657 5.70832 26.6248 5.88 26.5466L10.6667 24.3999L15.4533 26.5466H15.52C15.6703 26.6168 15.8341 26.6532 16 26.6532C16.1659 26.6532 16.3297 26.6168 16.48 26.5466H16.5467L21.3333 24.3999L26.12 26.5466C26.2917 26.6248 26.478 26.6657 26.6667 26.6666C26.9221 26.6659 27.1721 26.5919 27.3867 26.4533C27.5744 26.3328 27.729 26.1671 27.8361 25.9714C27.9433 25.7758 27.9996 25.5563 28 25.3333V9.06659C27.9995 8.8101 27.925 8.55922 27.7854 8.34401C27.6459 8.12881 27.4473 7.95841 27.2133 7.85325ZM6.66666 9.91992L9.33333 8.73325V22.0666L6.66666 23.2533V9.91992ZM12 8.73325L14.6667 9.91992V23.2533L12 22.0666V8.73325ZM17.3333 9.91992L20 8.73325V22.0666L17.3333 23.2533V9.91992ZM25.3333 23.2533L22.6667 22.0666V8.73325L25.3333 9.91992V23.2533Z" fill="white"/>
</g>
<defs>
<clipPath id="clip0">
<rect width="32" height="32" fill="white"/>
</clipPath>
</defs>
</svg>
