<svg width="585" height="439" viewBox="0 0 585 439" fill="none" xmlns="http://www.w3.org/2000/svg">
<path d="M459.444 323.506C452.607 316.446 447.379 307.995 444.161 298.703C444.051 298.922 443.905 299.142 443.795 299.361C444.636 299.178 445.441 299.032 446.282 298.849C446.757 298.74 446.83 298.081 446.428 297.862C443.284 296.179 442.918 290.764 442.223 287.655C441.309 283.594 440.468 279.533 439.737 275.473C438.201 267.132 437.031 258.717 436.19 250.267C435.898 250.413 435.642 250.596 435.349 250.742C441.455 254.364 447.269 258.425 452.717 262.998C457.616 267.132 462.515 271.558 465.989 276.972C469.718 282.716 471.51 289.667 472.607 296.325C473.85 303.678 473.85 311.178 472.095 318.458C471.912 319.153 472.972 319.446 473.155 318.751C475.897 307.666 474.508 295.849 470.998 285.094C467.598 274.814 459.919 267.388 451.693 260.729C446.72 256.705 441.419 253.047 435.934 249.791C435.605 249.608 435.057 249.828 435.094 250.267C435.971 259.303 437.251 268.266 438.933 277.155C439.774 281.582 440.688 286.009 441.748 290.362C442.443 293.325 442.918 297.203 445.879 298.813C445.916 298.483 445.953 298.154 446.026 297.825C445.185 298.008 444.38 298.154 443.539 298.337C443.247 298.41 443.064 298.739 443.174 298.996C446.464 308.471 451.766 317.068 458.749 324.275C459.188 324.787 459.956 324.019 459.444 323.506Z" fill="#E8E8E8"/>
<path d="M436.3 251.181C449.536 270.351 458.677 292.155 463.064 315.019C463.21 315.714 464.271 315.422 464.125 314.726C459.7 291.752 450.523 269.839 437.215 250.596C436.849 250.047 435.898 250.596 436.3 251.181Z" fill="#E8E8E8"/>
<path d="M440.688 282.716C446.209 283.923 452.023 285.277 455.862 289.777C456.3 290.325 457.105 289.521 456.629 289.008C452.681 284.362 446.684 282.899 440.981 281.655C440.286 281.509 439.994 282.57 440.688 282.716Z" fill="#E8E8E8"/>
<path d="M455.239 282.789C454.837 277.667 455.642 272.582 457.689 267.863C457.982 267.205 457.031 266.656 456.738 267.314C454.618 272.217 453.704 277.448 454.143 282.789C454.216 283.484 455.313 283.484 455.239 282.789Z" fill="#E8E8E8"/>
<path d="M464.051 272.729C466.683 256.339 477.908 243.608 488.657 231.719C488.365 231.536 488.036 231.353 487.743 231.17C485.22 240.206 491.143 248.584 493.301 257.071C494.471 261.754 495.019 266.583 495.129 271.412C495.202 273.79 495.165 276.204 495.092 278.582C495.056 279.753 495.056 280.96 494.8 282.094C494.434 283.667 492.679 286.118 490.814 284.472C490.595 284.765 490.376 285.057 490.156 285.35C493.374 287.033 492.204 291.862 491.692 294.679C491.034 298.483 489.937 302.105 487.487 305.178C483.941 309.568 478.858 312.824 477.177 318.458C476.957 319.153 478.018 319.409 478.237 318.751C480.321 311.873 487.67 308.58 490.705 302.215C492.277 298.922 492.972 295.045 493.301 291.459C493.557 288.862 493.301 285.752 490.705 284.435C490.193 284.179 489.535 284.874 490.047 285.313C491.18 286.338 492.752 286.338 494.032 285.496C495.458 284.545 495.897 282.789 496.043 281.143C496.628 275.619 496.372 269.802 495.714 264.315C495.056 258.827 493.593 253.669 491.546 248.584C489.388 243.169 487.158 237.426 488.803 231.536C488.95 231.024 488.255 230.585 487.889 230.987C477.03 243.023 465.659 255.937 462.99 272.473C462.881 273.131 463.941 273.424 464.051 272.729Z" fill="#E8E8E8"/>
<path d="M486.501 234.902C478.896 253.669 474.18 273.497 472.498 293.691C472.425 294.386 473.521 294.386 473.595 293.691C475.276 273.607 479.993 253.888 487.561 235.194C487.817 234.572 486.757 234.28 486.501 234.902Z" fill="#E8E8E8"/>
<path d="M382.004 292.374C390.962 294.313 399.701 289.996 408.329 288.277C417.836 286.411 427.634 286.411 437.177 288.13C437.872 288.24 438.164 287.216 437.47 287.069C428.622 285.46 419.591 285.35 410.742 286.74C406.209 287.472 401.821 288.716 397.434 289.96C392.498 291.313 387.416 292.411 382.333 291.313C381.602 291.167 381.31 292.191 382.004 292.374Z" fill="#E8E8E8"/>
<path d="M493.96 289.008C499.152 288.021 504.271 289.264 509.28 290.508C514.179 291.679 519.115 292.74 524.124 293.618C533.777 295.301 543.576 296.288 553.374 296.691C554.069 296.727 554.069 295.63 553.374 295.593C542.954 295.191 532.607 294.057 522.333 292.191C517.36 291.277 512.461 290.142 507.562 288.972C502.991 287.874 498.348 287.069 493.668 287.984C493.01 288.094 493.302 289.155 493.96 289.008Z" fill="#E8E8E8"/>
<path d="M80.6936 258.352C93.6368 255.352 106.58 251.876 119.706 249.974C132.795 248.108 146.067 247.889 159.266 249.023C184.641 251.218 209.284 257.876 234.146 263.034C247.857 265.888 261.715 268.229 275.718 269.18C276.413 269.217 276.413 268.119 275.718 268.083C250.051 266.327 225.115 259.778 200.034 254.437C175.098 249.169 149.724 245.364 124.203 248.291C109.395 250.011 94.9164 253.925 80.4011 257.291C79.7064 257.437 79.9989 258.498 80.6936 258.352Z" fill="#E8E8E8"/>
<path d="M184.531 251.181C205.993 249.315 227.016 244.267 247.82 238.853C269.1 233.292 290.379 227.658 311.659 222.024C332.901 216.427 354.108 210.683 375.424 205.232C386.027 202.525 396.74 200.074 407.635 199.05C418.129 198.062 428.732 198.208 439.225 199.196C463.722 201.464 487.561 208.013 511.217 214.525C511.911 214.708 512.204 213.647 511.509 213.464C490.705 207.72 469.791 201.977 448.329 199.123C437.653 197.696 426.83 196.965 416.045 197.404C405.441 197.806 394.985 199.489 384.637 201.83C374.107 204.245 363.687 207.135 353.23 209.915C342.554 212.732 331.878 215.549 321.201 218.366C299.63 224.036 278.021 229.743 256.449 235.414C232.793 241.633 208.991 247.925 184.531 250.047C183.836 250.157 183.836 251.254 184.531 251.181Z" fill="#E8E8E8"/>
<path d="M125.63 316.958C134.551 317.287 143.509 317.616 152.43 317.946C161.132 318.275 169.87 318.787 178.572 318.86C187.055 318.933 195.245 317.287 203.581 315.787C212.283 314.214 221.095 313.08 229.906 312.458C239.741 311.727 249.613 311.617 259.449 312.019C260.143 312.056 260.143 310.958 259.449 310.922C242.191 310.19 224.897 311.178 207.859 313.958C199.157 315.385 190.528 317.58 181.717 317.763C173.088 317.982 164.349 317.324 155.721 316.995C145.703 316.629 135.685 316.263 125.666 315.897C124.935 315.824 124.935 316.921 125.63 316.958Z" fill="#E8E8E8"/>
<path d="M107.676 364.882C108.225 365.285 108.773 365.65 109.321 366.053C109.833 366.419 110.418 365.614 109.98 365.175C108.298 363.419 106.652 361.699 104.971 359.943C104.203 359.139 103.289 358.407 102.667 357.492C101.716 356.102 102.704 355.444 102.923 354.31C103.179 353.139 102.009 352.48 101.351 351.749C99.8884 350.176 98.9377 348.2 98.2065 346.188C95.1718 337.884 94.1115 328.518 93.819 319.738C93.6362 319.921 93.4534 320.104 93.2705 320.287C102.484 319.446 107.822 328.153 110.894 335.506C114.331 343.664 117.475 352.188 117.877 361.151C117.914 361.846 119.011 361.846 118.974 361.151C118.535 351.566 115.098 342.274 111.223 333.567C108.005 326.287 102.192 318.348 93.234 319.153C92.9415 319.19 92.6855 319.373 92.6855 319.702C92.8684 324.421 93.3071 329.104 94.0749 333.75C94.8427 338.286 95.7202 342.969 97.4021 347.249C98.0237 348.822 98.7915 350.322 99.8152 351.639C100.546 352.554 101.79 353.358 101.351 354.712C101.168 355.261 100.802 355.553 100.839 356.212C100.912 357.822 102.667 359.139 103.654 360.163C105.482 362.065 107.347 364.004 109.175 365.907C109.395 365.614 109.614 365.321 109.833 365.029C109.285 364.626 108.736 364.26 108.188 363.858C107.64 363.529 107.091 364.48 107.676 364.882Z" fill="#E8E8E8"/>
<path d="M114.478 339.969C117.659 331.628 123.253 324.348 130.529 319.19C130.273 319.116 130.017 319.043 129.761 319.007C131.808 323.689 133.198 328.592 133.929 333.64C134.039 333.421 134.185 333.201 134.295 332.982C133.417 333.238 132.54 333.494 131.626 333.75C131.26 333.86 131.15 334.225 131.296 334.555C132.32 337.006 133.454 339.786 132.32 342.383C131.37 344.542 129.322 346.152 127.896 347.944C125.3 351.163 123.289 354.749 121.754 358.553C121.498 359.212 122.558 359.504 122.814 358.846C124.861 353.688 127.933 349.59 131.552 345.456C132.869 343.957 133.856 342.31 133.929 340.262C134.002 338.067 133.088 335.981 132.247 334.006C132.137 334.262 132.028 334.555 131.918 334.811C132.796 334.555 133.673 334.299 134.587 334.042C134.88 333.969 135.026 333.677 134.953 333.384C134.185 328.226 132.759 323.25 130.675 318.458C130.565 318.202 130.163 318.092 129.907 318.275C122.375 323.653 116.635 331.079 113.344 339.713C113.198 340.335 114.222 340.627 114.478 339.969Z" fill="#E8E8E8"/>
<path d="M97.0734 325.665C106.397 336.384 112.466 349.737 114.331 363.821C114.441 364.516 115.537 364.516 115.428 363.821C113.49 349.407 107.384 335.835 97.8412 324.86C97.3659 324.348 96.5981 325.116 97.0734 325.665Z" fill="#E8E8E8"/>
<path d="M119.449 351.529C121.168 345.456 123.581 339.64 126.689 334.116C127.018 333.494 126.104 332.945 125.738 333.567C122.594 339.164 120.144 345.091 118.389 351.237C118.17 351.932 119.23 352.224 119.449 351.529Z" fill="#E8E8E8"/>
<path d="M97.4397 305.727C110.237 303.239 123.326 302.288 136.196 304.739C142.192 305.873 148.115 307.19 154.185 307.885C160.583 308.617 167.055 308.91 173.49 309.166C174.184 309.202 174.184 308.105 173.49 308.068C167.055 307.776 160.583 307.52 154.185 306.788C147.53 306.02 141.022 304.447 134.404 303.312C122.046 301.191 109.359 302.325 97.1472 304.703C96.4525 304.812 96.745 305.873 97.4397 305.727Z" fill="#E8E8E8"/>
<path d="M145.666 349.225C152.979 348.054 160.291 346.847 167.677 346.408C175.172 345.969 182.412 346.59 189.761 347.944C196.488 349.188 202.996 349.773 209.87 349.627C217 349.444 224.203 349.115 231.149 350.981C231.844 351.163 232.137 350.103 231.442 349.92C224.714 348.09 217.804 348.31 210.894 348.493C207.238 348.603 203.545 348.639 199.888 348.347C196.123 348.054 192.393 347.286 188.7 346.627C181.607 345.347 174.551 344.871 167.311 345.31C159.962 345.786 152.65 346.956 145.374 348.127C144.679 348.273 144.972 349.334 145.666 349.225Z" fill="#E8E8E8"/>
<path d="M346.649 357.968C360.36 355.992 374.144 354.822 388.001 354.529C401.492 354.236 414.984 354.785 428.476 355.078C429.17 355.078 429.17 353.98 428.476 353.98C414.765 353.688 401.017 353.139 387.27 353.468C373.559 353.797 359.921 354.968 346.356 356.907C345.662 357.017 345.954 358.041 346.649 357.968Z" fill="#E8E8E8"/>
<path d="M407.416 365.833C412.645 363.602 418.275 366.309 423.65 366.053C424.783 365.98 425.953 365.833 427.05 365.467C428.549 364.955 429.939 364.151 431.547 364.077C434.326 363.931 436.922 364.992 439.701 364.553C440.395 364.443 440.103 363.382 439.408 363.492C436.301 364.004 433.266 362.468 430.195 363.163C428.805 363.455 427.562 364.187 426.209 364.589C424.82 364.955 423.394 365.029 421.968 364.992C416.886 364.772 411.804 362.834 406.831 364.955C406.246 365.138 406.795 366.089 407.416 365.833Z" fill="#E8E8E8"/>
<path d="M481.381 325.409C490.595 322.665 499.809 322.738 509.242 323.872C518.126 324.933 527.084 326.323 536.005 324.75C536.7 324.641 536.408 323.58 535.713 323.689C526.426 325.336 517.103 323.653 507.852 322.628C498.748 321.604 489.864 321.714 481.052 324.384C480.431 324.567 480.686 325.628 481.381 325.409Z" fill="#E8E8E8"/>
<path d="M444.637 116.225C437.836 112.567 433.412 105.47 434.436 97.6043C435.35 90.3974 441.127 84.1783 448.183 82.4954C455.386 80.8126 463.43 84.2148 467.342 90.4706C471.547 97.1653 470.633 106.019 465.477 111.945C459.627 118.676 449.39 119.701 442.004 114.945C441.419 114.542 440.871 115.494 441.456 115.896C448.329 120.359 457.836 120.067 464.198 114.762C470.523 109.494 472.863 100.348 469.719 92.7022C466.72 85.4221 459.042 80.6663 451.181 80.9955C443.43 81.3613 436.41 86.9586 434.07 94.3118C431.145 103.421 436.044 112.786 444.125 117.14C444.71 117.506 445.258 116.555 444.637 116.225Z" fill="#E8E8E8"/>
<path d="M129.066 196.233C132.795 192.904 138.023 195.172 140.802 198.538C142.228 200.257 143.069 202.196 144.166 204.098C144.861 205.379 145.884 206.659 147.42 206.952C148.626 207.171 149.614 206.732 150.418 205.854C150.93 205.269 151.259 204.501 151.771 203.915C152.868 202.635 154.294 202.781 155.464 203.806C158.023 206.037 158.133 211.561 162.63 211.159C163.325 211.086 163.325 209.988 162.63 210.061C157.95 210.5 158.498 202.635 154.001 201.867C152.685 201.647 151.625 202.233 150.82 203.257C150.308 203.915 149.979 204.83 149.321 205.379C147.42 206.952 145.738 204.757 144.97 203.257C143.106 199.818 141.277 196.233 137.585 194.44C134.55 192.977 130.857 193.123 128.298 195.428C127.786 195.904 128.554 196.709 129.066 196.233Z" fill="#E8E8E8"/>
<path d="M375.168 146.992C374.437 145.016 373.559 142.675 374.875 140.736C376.082 139.017 378.129 139.895 379.848 139.346C382.115 138.614 383.504 136.383 384.126 134.224C384.857 131.7 383.979 128.408 385.479 126.176C387.307 123.432 391.255 126.798 393.742 125.115C394.327 124.713 393.778 123.761 393.193 124.164C390.67 125.883 387.233 122.371 384.857 125.188C382.956 127.42 383.833 130.822 383.212 133.456C382.773 135.285 381.786 137.224 380.067 138.102C378.568 138.87 376.85 138.102 375.351 138.87C372.133 140.517 373.157 144.614 374.144 147.285C374.327 147.906 375.387 147.65 375.168 146.992Z" fill="#E8E8E8"/>
<path d="M379.116 121.347C378.422 119.518 378.824 117.433 380.177 115.969C381.859 114.14 383.796 114.872 385.881 114.14C387.124 113.701 387.855 112.64 388.33 111.469C388.623 110.738 388.806 109.97 389.061 109.238C389.281 108.653 389.537 107.994 389.976 107.555C390.634 106.933 392.206 106.421 392.608 107.811C392.827 108.47 393.851 108.214 393.668 107.518C393.193 105.982 391.401 105.433 390.012 106.165C387.38 107.518 388.33 111.543 385.881 112.896C384.528 113.628 382.846 113.189 381.42 113.774C380.506 114.177 379.701 114.835 379.08 115.603C377.727 117.323 377.288 119.591 378.056 121.64C378.276 122.298 379.336 122.005 379.116 121.347Z" fill="#E8E8E8"/>
<path d="M409.902 160.418C408.805 158.845 409.134 156.613 410.56 155.296C412.205 153.76 414.582 154.455 415.715 156.211C418.311 160.125 412.571 163.564 409.829 160.308C409.353 159.759 408.586 160.564 409.061 161.076C410.633 162.942 413.558 163.162 415.569 161.845C417.836 160.381 418.019 157.418 416.447 155.333C414.911 153.284 412.059 152.589 410.012 154.272C408.074 155.845 407.489 158.845 408.951 160.93C409.353 161.552 410.304 161.003 409.902 160.418Z" fill="#E8E8E8"/>
<path d="M414.033 166.491C413.009 165.064 411.73 163.345 412.169 161.515C412.827 158.808 416.044 159.503 417.507 161.113C418.713 162.467 419.152 164.588 417.616 165.869C416.446 166.857 414.655 167.04 413.594 165.869C413.119 165.357 412.351 166.125 412.827 166.637C414.289 168.21 416.775 168.064 418.348 166.71C420.212 165.101 419.993 162.43 418.53 160.637C417.068 158.808 413.741 157.491 411.913 159.577C409.865 161.918 411.584 164.954 413.083 167.04C413.485 167.625 414.435 167.076 414.033 166.491Z" fill="#E8E8E8"/>
<path d="M168.151 242.73C172.246 243.974 176.414 244.706 180.656 244.852C181.35 244.889 181.35 243.791 180.656 243.755C176.487 243.608 172.392 242.913 168.444 241.669C167.749 241.45 167.456 242.511 168.151 242.73Z" fill="#E8E8E8"/>
<path d="M442.369 213.464C467.231 213.281 490.631 222.573 514.104 229.451C520.832 231.426 527.632 233.219 534.506 234.572C535.201 234.719 535.493 233.658 534.799 233.511C510.411 228.682 487.414 218.329 462.88 214.122C456.116 212.952 449.242 212.293 442.369 212.366C441.674 212.366 441.674 213.464 442.369 213.464Z" fill="#E8E8E8"/>
<path d="M197.951 54.8384C199.231 57.9114 200.803 64.7159 205.41 61.6795C206.945 60.6918 209.212 57.8017 210.858 60.143C211.845 61.5332 211.918 63.3623 213.783 63.9843C214.441 64.2038 214.733 63.1428 214.075 62.9233C212.357 62.338 212.357 59.704 210.967 58.6431C210.053 57.948 208.92 57.9846 207.933 58.4967C206.47 59.1918 205.41 60.7649 203.874 61.2771C201.132 62.1917 199.742 56.3018 199.011 54.5457C198.719 53.9238 197.658 54.1799 197.951 54.8384Z" fill="#E8E8E8"/>
<path d="M209.322 55.4969C211.369 53.9238 214.367 54.6555 215.391 57.0334C216.012 58.5333 216.488 59.4113 218.243 59.5211C219.084 59.5577 219.998 59.265 220.839 59.4113C222.594 59.704 222.594 61.2405 222.886 62.6673C223.179 64.094 223.837 65.3378 225.373 65.5208C226.067 65.5939 226.067 64.4964 225.373 64.4233C223.362 64.2038 224.203 60.0698 222.63 58.8992C220.948 57.6553 218.426 59.3016 217.109 57.7651C216.488 57.0334 216.305 56.0457 215.647 55.314C215.135 54.6921 214.44 54.2531 213.673 53.9604C212.027 53.3019 210.199 53.5214 208.81 54.5823C208.188 54.9848 208.737 55.9359 209.322 55.4969Z" fill="#E8E8E8"/>
<path d="M242.227 89.995C244.531 90.4706 246.981 89.0073 247.602 86.6659C248.187 84.4709 246.761 82.3857 244.677 81.6906C239.814 80.0444 237.109 86.7391 241.057 89.4829C241.642 89.8853 242.191 88.9341 241.606 88.5317C238.827 86.5928 240.545 81.7272 244.092 82.6418C245.628 83.0442 246.907 84.4344 246.615 86.0806C246.286 87.9464 244.385 89.3 242.52 88.8975C241.825 88.7878 241.533 89.8487 242.227 89.995Z" fill="#E8E8E8"/>
<path d="M245.774 91.8608C244.896 91.1657 243.836 90.3974 243.47 89.2633C242.958 87.7268 244.421 85.8977 246.139 86.3367C247.346 86.6659 248.187 88.0561 247.894 89.2999C247.529 90.6901 245.956 91.3852 244.64 91.0559C243.946 90.873 243.653 91.9339 244.348 92.1168C246.139 92.5558 248.114 91.7144 248.845 89.9584C249.54 88.239 248.589 86.1538 246.907 85.4221C245.225 84.727 243.287 85.6416 242.556 87.2513C241.532 89.4828 243.397 91.3486 245.042 92.629C245.518 93.068 246.322 92.2998 245.774 91.8608Z" fill="#E8E8E8"/>
<path d="M172.831 164.113C171.149 162.613 170.82 160.345 172.465 158.662C173.891 157.235 176.012 157.272 177.365 158.772C180.18 161.918 176.122 166.015 172.795 163.857C172.21 163.454 171.661 164.406 172.246 164.808C174.22 166.088 176.926 165.649 178.462 163.893C180.034 162.064 179.559 159.32 177.877 157.711C176.085 156.028 173.416 156.138 171.698 157.857C169.614 159.942 169.943 162.979 172.063 164.881C172.575 165.357 173.343 164.588 172.831 164.113Z" fill="#E8E8E8"/>
<path d="M328.697 60.6918C330.818 56.0457 333.779 51.9118 337.436 48.3632C337.948 47.8876 337.18 47.0828 336.668 47.5949C332.938 51.2167 329.94 55.4238 327.747 60.1796C327.454 60.7649 328.405 61.3503 328.697 60.6918Z" fill="#E8E8E8"/>
<path d="M333.268 59.9601C335.462 57.2529 337.911 54.7287 340.544 52.4239C341.092 51.9483 340.288 51.1801 339.776 51.6557C337.144 53.9604 334.73 56.4847 332.5 59.1918C332.061 59.7406 332.829 60.5088 333.268 59.9601Z" fill="#E8E8E8"/>
<path d="M336.046 63.2526C337.034 62.4112 338.021 61.6063 339.008 60.7649C339.556 60.3259 338.752 59.5211 338.24 59.9967C337.253 60.8381 336.266 61.6429 335.279 62.4843C334.73 62.9233 335.498 63.6916 336.046 63.2526Z" fill="#E8E8E8"/>
<path d="M387.781 66.4719C390.73 66.4719 393.12 64.0806 393.12 61.1307C393.12 58.1809 390.73 55.7896 387.781 55.7896C384.833 55.7896 382.443 58.1809 382.443 61.1307C382.443 64.0806 384.833 66.4719 387.781 66.4719Z" fill="#CE6796"/>
<path d="M385.333 74.7763C387.09 74.7763 388.514 73.3514 388.514 71.5936C388.514 69.8358 387.09 68.4108 385.333 68.4108C383.577 68.4108 382.152 69.8358 382.152 71.5936C382.152 73.3514 383.577 74.7763 385.333 74.7763Z" fill="#CE6796"/>
<path d="M216.816 216.683C218.977 216.683 220.729 214.931 220.729 212.769C220.729 210.607 218.977 208.854 216.816 208.854C214.656 208.854 212.904 210.607 212.904 212.769C212.904 214.931 214.656 216.683 216.816 216.683Z" fill="#CE6796"/>
<path d="M223.177 227.402C224.368 227.402 225.334 226.436 225.334 225.244C225.334 224.052 224.368 223.085 223.177 223.085C221.985 223.085 221.02 224.052 221.02 225.244C221.02 226.436 221.985 227.402 223.177 227.402Z" fill="#CE6796"/>
<path d="M261.275 168.32C261.604 171.503 262.628 174.32 266.248 174.246C267.491 174.246 268.551 173.881 269.502 174.832C270.379 175.71 270.123 176.588 270.489 177.685C270.672 178.234 270.928 178.746 271.439 179.112C272.098 179.588 274.584 179.588 274.364 180.685C274.218 181.38 275.278 181.673 275.425 180.978C275.681 179.734 274.84 179.002 273.67 178.673C271.988 178.197 271.586 177.539 271.33 176.039C271.22 175.344 271.074 174.649 270.598 174.063C269.648 172.929 268.112 173.076 266.796 173.112C265.37 173.185 264.017 173.076 263.249 171.686C262.664 170.661 262.518 169.417 262.408 168.283C262.299 167.625 261.202 167.625 261.275 168.32Z" fill="#CE6796"/>
<path d="M265.005 181.783C266.906 179.77 269.173 181.819 269.758 183.831C270.014 184.636 270.051 185.404 270.636 186.026C271.952 187.49 274.365 186.685 275.572 188.221C276.01 188.77 276.778 188.002 276.339 187.453C275.535 186.429 274.402 186.282 273.195 186.026C272.062 185.77 271.44 185.368 271.001 184.234C270.709 183.539 270.672 182.807 270.27 182.112C269.027 179.88 266.102 179.002 264.237 180.978C263.725 181.527 264.493 182.295 265.005 181.783Z" fill="#CE6796"/>
<path d="M394.875 178.088C394.181 176.771 395.643 175.783 396.74 176.588C397.069 176.807 397.581 176.515 397.581 176.112C397.471 174.868 398.715 173.954 399.885 174.393C400.543 174.649 400.835 173.588 400.177 173.332C398.349 172.637 396.338 174.173 396.484 176.112C396.777 175.966 397.033 175.783 397.325 175.637C395.241 174.137 392.791 176.441 393.961 178.636C394.254 179.258 395.205 178.71 394.875 178.088Z" fill="#CE6796"/>
<path d="M401.091 177.502C400.835 176.88 402.59 176.771 402.883 176.771C403.797 176.807 404.674 176.954 405.589 177.027C406.283 177.1 406.283 176.002 405.589 175.929C404.163 175.783 402.554 175.38 401.164 175.966C400.25 176.368 399.739 177.1 400.141 178.051C400.397 178.71 401.347 178.124 401.091 177.502Z" fill="#CE6796"/>
<path d="M210.562 221.402C212.945 221.402 214.877 219.47 214.877 217.085C214.877 214.701 212.945 212.769 210.562 212.769C208.18 212.769 206.248 214.701 206.248 217.085C206.248 219.47 208.18 221.402 210.562 221.402Z" fill="#EDAF1F"/>
<path d="M251.403 59.5942C254.614 59.5942 257.217 56.99 257.217 53.7775C257.217 50.565 254.614 47.9607 251.403 47.9607C248.193 47.9607 245.59 50.565 245.59 53.7775C245.59 56.99 248.193 59.5942 251.403 59.5942Z" fill="#EDAF1F"/>
<path d="M146.031 284.472C150.089 284.472 153.38 281.18 153.38 277.119C153.38 273.058 150.089 269.766 146.031 269.766C141.972 269.766 138.682 273.058 138.682 277.119C138.682 281.18 141.972 284.472 146.031 284.472Z" fill="#EDAF1F"/>
<path d="M396.885 258.534C398.965 258.534 400.651 256.847 400.651 254.766C400.651 252.685 398.965 250.998 396.885 250.998C394.805 250.998 393.119 252.685 393.119 254.766C393.119 256.847 394.805 258.534 396.885 258.534Z" fill="#EDAF1F"/>
<path d="M354.985 344.249C362.736 342.383 370.524 340.481 378.275 338.615C383.248 338.981 390.633 339.091 399.408 337.628C407.745 336.237 423.722 332.323 423.613 328.006C423.54 325.153 416.41 323.104 404.637 319.702C396.849 317.47 390.304 316.153 385.953 315.385C381.127 317.763 375.935 320.104 370.341 322.336C362.773 325.372 355.57 327.75 348.879 329.616C350.89 334.518 352.937 339.384 354.985 344.249Z" fill="#161616" stroke="#161616" stroke-width="3" stroke-miterlimit="10"/>
<path d="M335.827 336.823C343.578 334.957 351.366 333.055 359.117 331.189C364.089 331.555 371.475 331.664 380.25 330.201C388.586 328.811 404.564 324.897 404.455 320.58C404.381 317.726 397.252 315.678 385.479 312.275C377.691 310.044 371.146 308.727 366.795 307.958C361.969 310.336 356.777 312.678 351.183 314.909C343.614 317.946 336.412 320.324 329.721 322.189C331.732 327.128 333.779 331.994 335.827 336.823Z" fill="#161616" stroke="#161616" stroke-width="3" stroke-miterlimit="10"/>
<path d="M295.827 269.253C288.917 272.985 282.957 277.119 281.933 277.814C278.423 280.265 270.233 286.008 262.116 294.386C250.124 306.751 240.033 317.141 240.691 330.311C241.276 342.164 250.233 350.395 251.221 351.273C267.198 365.541 301.348 360.346 335.826 338.359C334.583 331.811 333.377 325.299 332.133 318.751C335.205 318.129 342.152 316.263 348.477 310.3C356.338 302.873 358.093 293.874 358.532 290.947C358.495 287.618 358.093 283.704 356.959 279.46C353.486 266.436 345.223 258.205 340.835 254.437C329.464 256.413 312.353 260.4 295.827 269.253Z" fill="white" stroke="#161616" stroke-width="3" stroke-miterlimit="10"/>
<path d="M321.969 276.094C314.949 279.899 308.697 284.216 308.075 284.655C299.007 290.984 292.609 297.057 288.258 301.227C272.719 316.153 261.677 326.287 263.14 338.579C264.566 350.395 276.375 357.529 277.362 358.078C284.273 362.102 291.293 362.212 296.923 361.919C322.225 360.602 350.597 349.81 361.968 345.164C360.725 338.615 359.518 332.103 358.275 325.555C361.347 324.531 370.048 321.092 375.789 312.019C376.666 310.629 379.737 305.544 380.578 298.264C380.834 296.179 381.127 291.789 378.823 282.679C377.397 277.046 374.838 269.18 370.048 260.254C359.957 262.046 340.25 266.217 321.969 276.094Z" fill="white" stroke="#161616" stroke-width="3" stroke-miterlimit="10"/>
<path d="M318.642 332.542C332.207 332.872 345.735 330.823 358.568 326.47C359.226 326.25 358.934 325.189 358.276 325.409C345.516 329.762 332.134 331.811 318.642 331.445C317.947 331.408 317.947 332.506 318.642 332.542Z" fill="#161616"/>
<path d="M315.096 328.701C316.01 330.274 317.399 331.518 319.081 332.213C319.739 332.469 320.288 331.555 319.63 331.262C318.094 330.604 316.887 329.579 316.047 328.152C315.681 327.531 314.73 328.079 315.096 328.701Z" fill="#161616"/>
<path opacity="0.12" d="M338.13 301.593C325.406 308.727 318.825 307.556 306.174 317.434C302.884 320.031 283.652 335.067 286.102 350.322C286.321 351.602 287.454 358.773 292.793 361.59C295.059 362.797 297.29 362.724 300.398 362.504C310.818 361.699 318.862 359.724 319.849 359.468C332.646 356.285 330.489 357.602 339.3 355.224C345.114 353.651 352.974 351.163 362.115 347.322C360.909 340.92 359.665 334.555 358.459 328.152C361.128 326.909 364.784 324.823 368.514 321.458C371.219 319.007 378.934 312.056 380.689 301.081C381.639 295.191 380.469 290.691 378.568 283.411C376.63 275.985 373.925 270.204 371.877 266.363C360.47 286.374 347.673 296.288 338.13 301.593Z" fill="#3D3D3D"/>
<path opacity="0.11" d="M324.454 270.022C323.943 269.144 307.855 276.46 289.464 289.813C266.722 306.312 254.108 316.08 253.56 329.982C252.938 346.188 275.132 359.724 276.082 358.882C276.594 358.407 263.212 349.151 262.993 335.762C262.847 327.018 268.404 320.104 278.203 310.19C303.248 284.838 325.076 271.082 324.454 270.022Z" fill="#3D3D3D"/>
<path opacity="0.12" d="M376.154 277.96C374.472 284.618 370.998 294.459 363.393 304.154C347.196 324.75 324.198 329.506 317.471 330.64C318.604 331.738 319.701 332.981 320.834 334.298C326.904 341.615 329.902 349.444 331.474 355.59C341.419 352.151 351.364 348.676 361.273 345.237C359.737 339.164 358.238 333.055 356.702 326.982C359.847 325.701 364.965 323.104 369.792 318.165C371.803 316.08 376.665 310.995 378.932 302.947C382.223 291.02 377.616 280.85 376.154 277.96Z" fill="#3D3D3D"/>
<path d="M297.107 171.795C300.178 172.234 301.494 181.417 301.933 184.453C303.724 196.782 299.922 202.306 299.337 217.415C298.862 229.414 301.055 229.963 300.068 235.816C298.606 244.377 291.842 255.352 267.82 265.302C266.028 267.241 262.848 270.278 258.241 272.217C248.552 276.314 235.828 274.192 234.109 268.302C233.524 266.327 234.073 263.583 235.426 262.302C237.619 260.181 240.983 263.217 246.541 261.205C246.833 261.095 249.319 260.181 249.246 259.522C249.21 259.12 248.259 258.973 247.126 258.827C241.97 258.095 240.435 258.242 240.325 257.803C240.142 257.071 244.091 254.547 249.21 253.083C253.158 251.949 258.497 250.962 265.078 251.291C270.818 244.816 276.595 238.34 282.335 231.865C281.787 223.524 281.897 211.635 285.041 198.135C287.344 188.331 292.792 171.173 297.107 171.795Z" fill="white" stroke="#161616" stroke-width="3" stroke-miterlimit="10"/>
<path opacity="0.12" d="M297.253 171.612C292.755 171.686 288.697 189.575 287.856 202.269C286.796 218.329 291 223.341 287.856 233.182C285.772 239.694 280.507 248.072 266.357 255.681C255.206 265.01 247.784 265.997 242.884 264.827C239.886 264.132 236.157 262.193 234.475 263.839C233.049 265.229 233.707 268.668 235.206 271.009C238.789 276.46 249.575 275.143 255.718 272.985C261.421 270.973 265.187 267.461 267.344 265.083C272.354 263.729 284.054 259.815 293.779 248.767C303.249 238.011 305.479 226.561 306.613 220.341C310.964 196.672 302.737 171.503 297.253 171.612Z" fill="#3D3D3D"/>
<path d="M352.719 150.577C365.735 153.321 375.607 164.332 379.885 174.466C384.602 185.587 381.859 194.294 379.227 212.696C377.435 225.317 375.498 243.499 375.498 266.217C371.549 269.217 352.865 282.899 327.418 279.424C311.257 277.229 300.215 269.217 295.353 265.156C296.157 259.303 296.961 250.23 296.011 239.255C294.621 223.817 290.892 217.781 290.197 205.562C289.759 197.843 290.417 186.465 296.34 172.198C299.667 169.93 304.384 166.93 310.27 163.784C328.551 154.016 339.995 147.906 352.719 150.577Z" fill="#EDAF1F"/>
<path opacity="0.14" d="M340.069 167.661C343.433 176.661 348.186 193.343 345.663 213.976C341.458 248.255 319.996 269.436 313.342 275.509C318.68 277.631 329.722 281.143 343.798 279.533C359.703 277.704 370.599 270.314 375.169 266.802C374.767 251.584 375.681 238.926 376.705 229.524C379.849 201.208 385.516 191.002 379.483 175.454C378.057 171.759 373.268 159.394 361.166 153.687C357.985 152.187 355.096 151.528 353.085 151.199C352.354 153.796 350.672 158.442 346.577 162.686C344.31 165.101 341.934 166.637 340.069 167.661Z" fill="#3D3D3D"/>
<path opacity="0.21" d="M380.762 180.722C371.146 206.842 361.494 232.926 351.878 259.047C343.505 265.888 335.095 272.729 326.723 279.57C332.975 280.119 342.92 280.155 354.364 276.789C363.87 273.973 371.073 269.802 375.79 266.546C375.68 262.668 375.607 256.961 375.79 250.084C376.301 232.816 376.521 224.183 378.897 213.72C381.091 204.062 384.053 196.709 382.005 185.734C381.603 183.539 381.128 181.819 380.762 180.722Z" fill="#3D3D3D"/>
<path d="M225.848 256.266C230.199 266.802 234.586 277.338 238.937 287.838C256.633 281.692 274.366 275.509 292.062 269.363C287.821 259.23 283.58 249.059 279.375 238.926C261.533 244.706 243.69 250.486 225.848 256.266Z" fill="white" stroke="#161616" stroke-width="3" stroke-miterlimit="10"/>
<path d="M220.145 221.439C226.068 225.756 233.161 231.792 240.144 239.913C245.811 246.498 250.053 252.901 253.234 258.388C260.18 247.596 267.091 236.804 274.038 226.048C265.957 217.049 257.877 208.086 249.797 199.086C239.888 206.549 230.016 213.976 220.145 221.439Z" fill="white" stroke="#161616" stroke-width="3" stroke-miterlimit="10"/>
<path d="M188.115 171.247C188.115 181.124 188.115 191.002 188.115 200.916C195.684 197.184 203.252 193.453 210.821 189.758C215.83 187.307 220.839 184.856 225.848 182.441C224.422 175.234 223.032 168.064 221.606 160.857C210.455 164.296 199.303 167.771 188.115 171.247Z" fill="white" stroke="#161616" stroke-width="3" stroke-miterlimit="10"/>
<path d="M166.068 108.177C169.798 117.03 173.527 125.883 177.22 134.736C190.419 127.164 203.655 119.591 216.854 112.018C211.333 101.482 205.812 90.9462 200.291 80.4467C196.817 84.4709 192.613 88.8243 187.604 93.1412C179.962 99.7993 172.467 104.628 166.068 108.177Z" fill="white" stroke="#161616" stroke-width="3" stroke-miterlimit="10"/>
<path d="M111.407 119.737C110.237 126.542 109.104 133.346 107.934 140.151C121.389 137.078 134.88 134.005 148.335 130.895C148.079 123.432 147.823 116.006 147.567 108.543C135.538 112.274 123.473 116.006 111.407 119.737Z" fill="white" stroke="#161616" stroke-width="3" stroke-miterlimit="10"/>
<path d="M226.251 257.181C238.901 259.047 251.442 261.388 263.874 264.205C264.568 264.351 264.861 263.29 264.166 263.144C251.698 260.327 239.157 257.949 226.543 256.12C225.849 256.047 225.556 257.108 226.251 257.181Z" fill="#161616"/>
<path d="M278.643 239.438C274.585 247.889 269.649 255.9 263.908 263.29C263.47 263.839 264.237 264.607 264.676 264.058C270.49 256.595 275.499 248.511 279.594 239.987C279.886 239.365 278.936 238.816 278.643 239.438Z" fill="#161616"/>
<path d="M229.211 223.634C235.354 217.122 242.191 211.305 249.65 206.33C250.235 205.928 249.686 204.976 249.101 205.379C241.57 210.427 234.659 216.281 228.444 222.866C227.932 223.341 228.736 224.146 229.211 223.634Z" fill="#161616"/>
<path d="M234.513 226.926C239.12 221.841 244.202 217.232 249.686 213.171C250.235 212.769 249.686 211.818 249.138 212.22C243.544 216.354 238.388 221 233.745 226.158C233.233 226.67 234.001 227.439 234.513 226.926Z" fill="#161616"/>
<path d="M239.12 233.072C245.08 226.378 251.625 220.195 258.718 214.671C259.266 214.232 258.498 213.464 257.95 213.903C250.893 219.427 244.312 225.573 238.353 232.304C237.877 232.816 238.682 233.585 239.12 233.072Z" fill="#161616"/>
<path d="M246.945 240.499C249.029 237.133 251.808 234.28 254.55 231.426C257.548 228.39 260.546 225.317 263.544 222.28C264.056 221.768 263.252 221 262.777 221.512C259.632 224.731 256.488 227.914 253.343 231.133C250.638 233.877 248.042 236.694 245.994 239.95C245.629 240.535 246.579 241.084 246.945 240.499Z" fill="#161616"/>
<path d="M237.475 272.326C238.133 275.326 239.23 278.143 240.729 280.777C241.058 281.399 242.008 280.85 241.679 280.228C240.217 277.631 239.157 274.924 238.535 272.034C238.389 271.339 237.328 271.631 237.475 272.326Z" fill="#161616"/>
<path d="M238.351 272.985C242.007 270.79 245.956 269.436 250.161 268.851C249.941 268.741 249.722 268.595 249.503 268.485C250.234 270.863 250.929 273.204 251.66 275.582C251.879 276.241 252.94 275.985 252.72 275.29C251.989 272.912 251.294 270.57 250.563 268.192C250.453 267.863 250.197 267.753 249.905 267.827C245.591 268.412 241.569 269.839 237.839 272.07C237.181 272.399 237.73 273.351 238.351 272.985Z" fill="#161616"/>
<path d="M241.423 281.216C244.897 279.789 248.297 278.18 251.661 276.46C252.282 276.131 251.734 275.18 251.112 275.509C247.858 277.192 244.531 278.728 241.131 280.155C240.473 280.448 240.765 281.509 241.423 281.216Z" fill="#161616"/>
<path d="M269.393 264.717C273.415 262.559 277.692 261.059 282.153 260.144C282.848 259.998 282.555 258.937 281.861 259.083C277.29 259.998 272.939 261.571 268.844 263.766C268.186 264.095 268.771 265.046 269.393 264.717Z" fill="#161616"/>
<path d="M270.709 267.863C273.159 266.802 275.609 265.741 278.022 264.68C278.68 264.388 278.095 263.437 277.473 263.729C275.024 264.79 272.574 265.851 270.161 266.912C269.503 267.205 270.088 268.119 270.709 267.863Z" fill="#161616"/>
<path d="M191.406 175.088C200.108 172.198 208.809 168.686 217.84 166.93C218.535 166.783 218.243 165.722 217.548 165.869C208.553 167.661 199.815 171.137 191.113 174.027C190.455 174.246 190.748 175.307 191.406 175.088Z" fill="#161616"/>
<path d="M191.259 179.807C199.596 175.966 208.224 172.856 217.072 170.515C217.767 170.332 217.475 169.271 216.78 169.454C207.822 171.832 199.12 174.978 190.711 178.856C190.089 179.149 190.638 180.1 191.259 179.807Z" fill="#161616"/>
<path d="M190.601 184.563C194.257 183.063 197.84 181.453 201.387 179.734C202.008 179.441 201.46 178.49 200.838 178.783C197.365 180.466 193.855 182.039 190.308 183.502C189.687 183.758 189.943 184.819 190.601 184.563Z" fill="#161616"/>
<path d="M192.611 188.514C200.326 184.6 208.224 181.014 216.267 177.832C216.926 177.576 216.633 176.515 215.975 176.771C207.821 179.99 199.851 183.612 192.063 187.563C191.405 187.892 191.99 188.843 192.611 188.514Z" fill="#161616"/>
<path d="M170.711 110.445C181.095 105.397 190.747 99.0311 199.522 91.5681C200.07 91.0925 199.266 90.3242 198.754 90.7998C190.052 98.2262 180.436 104.482 170.162 109.53C169.504 109.823 170.053 110.774 170.711 110.445Z" fill="#161616"/>
<path d="M172.941 115.201C177.292 112.677 181.46 109.896 185.482 106.86C186.03 106.457 185.482 105.47 184.933 105.909C180.912 108.945 176.744 111.725 172.393 114.25C171.771 114.616 172.319 115.567 172.941 115.201Z" fill="#161616"/>
<path d="M175.72 118.53C185.08 113.518 194.075 107.957 202.74 101.811C203.325 101.409 202.777 100.458 202.192 100.86C193.563 107.006 184.532 112.567 175.172 117.579C174.55 117.908 175.099 118.859 175.72 118.53Z" fill="#161616"/>
<path d="M178.06 124.2C188.408 119.518 198.279 113.884 207.566 107.299C208.151 106.896 207.603 105.945 207.018 106.348C197.768 112.933 187.896 118.567 177.512 123.249C176.854 123.542 177.402 124.456 178.06 124.2Z" fill="#161616"/>
<path opacity="0.13" d="M228.918 215.366C232.83 214.488 236.742 213.61 240.655 212.732C246.212 224.439 251.77 236.145 257.327 247.816C262.885 240.609 268.442 233.438 274 226.231C265.81 217.415 257.62 208.562 249.466 199.745C242.592 204.976 235.755 210.171 228.918 215.366Z" fill="#3D3D3D"/>
<path opacity="0.21" d="M200.182 168.686C198.134 178.088 196.087 187.526 194.039 196.928C204.496 191.916 214.953 186.868 225.446 181.856C223.911 175.198 222.412 168.503 220.876 161.845C213.966 164.149 207.055 166.418 200.182 168.686Z" fill="#3D3D3D"/>
<path opacity="0.08" d="M247.346 249.937C249.393 254.913 251.441 259.888 253.488 264.863C256.889 265.632 260.252 266.4 263.653 267.131C267.345 269.692 271.002 272.29 274.694 274.851C280.289 272.912 285.919 270.973 291.513 269.07C287.235 259.376 282.994 249.645 278.716 239.95C273.122 241.633 267.492 243.352 261.898 245.035C258.973 249.718 256.048 254.401 253.123 259.083C251.185 256.01 249.284 252.974 247.346 249.937Z" fill="#3D3D3D"/>
<path opacity="0.15" d="M118.281 120.176C116.526 126.286 114.808 132.432 113.053 138.541C124.716 135.834 136.38 133.127 148.043 130.42C147.641 123.396 147.275 116.372 146.873 109.348C137.33 112.969 127.787 116.591 118.281 120.176Z" fill="#3D3D3D"/>
<path opacity="0.11" d="M182.631 99.2872C183.984 119.042 185.007 128.883 185.739 128.883C185.958 128.883 186.141 127.895 186.324 125.993C195.903 121.164 205.519 116.335 215.098 111.506C210.272 102.47 205.446 93.4704 200.62 84.4343C194.587 89.3731 188.591 94.3484 182.631 99.2872Z" fill="#3D3D3D"/>
<path d="M371.548 165.32C376.484 164.662 382.48 179.002 385.04 187.563C389.354 202.05 387.818 214.744 386.356 226.524C384.784 239.072 384.016 245.364 381.018 251.949C371.329 273.241 346.978 281.399 337.435 284.033C334.839 285.935 330.196 288.972 323.798 290.947C310.233 295.118 292.427 293.325 289.977 286.338C289.173 283.996 289.941 280.777 291.805 279.277C294.913 276.79 299.557 280.338 307.381 277.96C307.783 277.85 311.257 276.753 311.147 275.985C311.074 275.509 309.794 275.363 308.185 275.18C300.983 274.338 298.825 274.485 298.679 273.973C298.46 273.095 303.981 270.168 311.11 268.412C316.668 267.058 324.127 265.888 333.34 266.29C342.335 258.022 351.329 249.718 360.323 241.45C360.25 221.256 361.859 204.611 363.504 192.392C366.941 167.588 369.903 165.54 371.548 165.32Z" fill="white" stroke="#161616" stroke-width="3" stroke-miterlimit="10"/>
<path d="M289.429 286.045C290.818 287.545 293.378 287.984 295.242 288.533C297.984 289.301 300.8 289.886 303.652 290.252C304.346 290.362 304.639 289.301 303.944 289.191C301.568 288.862 299.191 288.423 296.851 287.801C294.84 287.289 291.623 286.85 290.197 285.24C289.721 284.765 288.954 285.533 289.429 286.045Z" fill="#161616"/>
<path d="M290.049 282.716C294.62 285.533 299.739 287.106 305.113 287.362C305.808 287.399 305.808 286.301 305.113 286.265C299.921 286.045 295.022 284.509 290.598 281.765C290.013 281.399 289.428 282.35 290.049 282.716Z" fill="#161616"/>
<path d="M291.988 280.155C297.107 282.753 302.665 284.106 308.405 284.106C309.1 284.106 309.1 283.009 308.405 283.009C302.847 283.009 297.473 281.728 292.537 279.204C291.915 278.875 291.367 279.826 291.988 280.155Z" fill="#161616"/>
<path opacity="0.15" d="M369.647 166.93C372.938 174.1 377.289 185.734 378.568 200.623C379.519 211.781 381.091 230.804 369.647 249.754C358.386 268.375 341.311 275.765 334.986 278.472C328.624 281.216 317.948 285.679 304.09 284.216C298.496 283.631 293.963 282.24 290.818 281.033C290.124 282.57 289.465 284.765 290.233 286.777C292.72 293.325 308.222 293.215 316.558 291.935C321.202 291.24 328.916 289.374 337.545 283.631C347.929 280.558 373.742 271.412 381.493 250.742C383.76 244.706 385.113 236.036 385.844 231.316C386.868 224.658 388.367 214.671 387.416 201.794C387.416 201.794 386.027 183.173 375.716 167.918C375.241 167.186 374.144 165.649 372.535 165.54C371.292 165.466 370.195 166.381 369.647 166.93Z" fill="#3D3D3D"/>
<path opacity="0.09" d="M386.686 215.878C385.589 215.695 383.249 227.841 380.763 235.487C376.448 248.73 365.918 266.254 337.984 283.631C344.31 282.204 353.304 279.204 362.335 272.729C366.905 269.436 374.62 263.912 379.958 253.705C383.651 246.645 384.638 240.316 385.881 232.121C387.015 224.914 387.6 216.025 386.686 215.878Z" fill="#3D3D3D"/>
<path d="M285.735 98.1165C285.552 106.567 285.369 114.981 285.186 123.432C282.627 134.114 286.612 144.943 294.912 150.431C303.943 156.394 314.034 153.394 315.496 152.918C315.57 154.967 315.496 157.528 314.948 160.418C314.473 163.088 313.705 165.32 313.01 167.076C317.471 171.247 321.602 172.307 323.869 172.637C334.619 174.21 346.904 165.576 353.339 150.65C351.401 148.601 348.805 145.528 346.392 141.468C345.002 139.163 341.785 133.346 339.993 125.042C338.165 116.554 339.957 115.42 338.604 109.201C337.068 102.104 332.644 94.0557 326.648 89.995C316.557 83.3002 299.592 86.2635 285.735 98.1165Z" fill="white" stroke="#161616" stroke-width="3" stroke-miterlimit="10"/>
<path d="M284.236 126.761C281.677 128.151 281.494 132.249 281.238 137.663C280.982 142.712 280.726 148.748 284.529 154.784C287.417 159.394 291.329 161.662 292.938 162.576C301.274 167.332 309.757 165.869 312.426 165.283C310.744 164.588 309.025 163.893 307.344 163.198C309.428 163.125 312.938 162.723 316.63 160.784C320.433 158.808 322.59 156.174 324.418 153.869C326.575 151.162 329.976 146.15 331.914 138.578C330.963 136.931 327.307 130.273 329.208 122.079C330.268 117.542 332.572 114.433 333.998 112.786C336.228 112.933 337.435 113.847 337.91 114.286C340.36 116.518 340.652 121.091 338.202 125.408C339.263 124.639 341.785 122.518 342.992 118.786C344.272 114.908 343.248 111.652 342.7 109.787C342.005 107.555 340.981 104.226 337.91 102.58C337.032 102.104 335.643 101.519 333.998 101.665C328.733 102.177 327.636 110.628 321.493 118.42C316.886 124.237 307.417 132.212 298.093 131.151C291.073 130.346 287.709 124.859 284.236 126.761Z" fill="#161616" stroke="#161616" stroke-width="3" stroke-miterlimit="10"/>
<path d="M297.106 112.164C297.545 117.945 297.618 123.761 297.289 129.542C297.253 130.054 297.911 130.237 298.24 129.944C300.068 128.334 301.896 126.725 303.688 125.115C304.199 124.639 303.432 123.871 302.92 124.347C301.092 125.956 299.264 127.566 297.472 129.176C297.801 129.322 298.094 129.432 298.423 129.578C298.752 123.798 298.679 117.981 298.24 112.201C298.167 111.469 297.07 111.469 297.106 112.164Z" fill="#161616"/>
<path d="M289.209 117.798C289.062 117.396 288.587 115.786 289.465 115.786C289.976 115.786 289.976 116.664 289.976 116.994C289.976 117.323 289.976 117.872 289.721 118.164C289.465 118.493 289.099 118.237 288.989 117.872C288.88 117.506 288.953 117.103 288.989 116.737C289.099 116.042 288.039 115.75 287.929 116.445C287.746 117.615 287.892 119.518 289.538 119.408C290.708 119.335 291.037 117.945 291.037 116.957C291.037 115.933 290.598 114.506 289.282 114.652C287.563 114.872 287.673 116.847 288.075 118.054C288.368 118.75 289.428 118.457 289.209 117.798Z" fill="#161616"/>
<path d="M289.975 117.469C289.719 117.176 289.719 116.664 289.975 116.335C289.683 116.298 289.39 116.262 289.098 116.225C289.39 116.628 289.464 117.213 289.134 117.615C289.427 117.652 289.719 117.689 290.012 117.725C289.902 117.542 289.134 116.481 289.756 116.445C289.683 116.445 289.756 116.335 289.719 116.518C289.719 116.664 289.756 116.847 289.756 117.03C289.756 117.14 289.683 117.615 289.5 117.506C288.915 117.103 288.367 118.054 288.952 118.457C289.61 118.896 290.451 118.457 290.707 117.798C290.963 117.176 290.963 115.933 290.304 115.53C289.719 115.164 288.915 115.494 288.586 116.042C288.147 116.811 288.586 117.652 289.025 118.311C289.208 118.567 289.646 118.713 289.902 118.42C290.524 117.652 290.634 116.555 290.049 115.713C289.866 115.457 289.427 115.311 289.171 115.603C288.513 116.408 288.513 117.469 289.171 118.274C289.646 118.75 290.414 117.981 289.975 117.469Z" fill="#161616"/>
<path d="M310.488 116.298C310.123 115.969 309.684 115.201 310.342 114.872C311 114.542 311.11 115.42 311.11 115.859C311.11 116.115 311.183 117.14 310.744 117.14C310.342 117.14 310.123 116.298 310.013 116.042C309.83 115.384 308.77 115.64 308.953 116.335C309.245 117.286 309.976 118.567 311.146 118.164C312.28 117.798 312.317 116.115 312.134 115.164C311.914 114.03 310.781 113.299 309.721 113.957C308.551 114.689 308.806 116.225 309.721 117.067C310.232 117.542 311 116.774 310.488 116.298Z" fill="#161616"/>
<path d="M311.255 116.591C311.109 116.115 311.073 115.64 311.182 115.164C310.926 115.274 310.634 115.384 310.378 115.494C310.634 115.64 310.634 116.115 310.378 116.262C310.634 116.372 310.926 116.481 311.182 116.591C310.963 116.115 310.78 115.603 310.561 115.128C310.451 114.872 310.195 114.652 309.902 114.762C309.647 114.835 309.391 115.164 309.537 115.42C309.756 115.896 309.939 116.408 310.158 116.884C310.305 117.213 310.634 117.432 310.963 117.213C311.914 116.628 311.914 115.128 310.963 114.542C310.67 114.359 310.232 114.506 310.158 114.872C310.012 115.567 310.049 116.225 310.232 116.884C310.414 117.542 311.438 117.25 311.255 116.591Z" fill="#161616"/>
<path d="M287.636 111.14C288.806 108.982 291.694 108.689 293.157 110.738C293.559 111.323 294.51 110.774 294.108 110.189C292.17 107.518 288.294 107.628 286.685 110.591C286.356 111.213 287.307 111.762 287.636 111.14Z" fill="#161616"/>
<path d="M306.832 111.03C308.404 108.433 312.097 108.653 313.23 111.506C313.486 112.164 314.546 111.872 314.29 111.213C312.791 107.482 307.965 107.006 305.881 110.482C305.515 111.067 306.466 111.616 306.832 111.03Z" fill="#161616"/>
<path d="M272.171 101.372C291.183 102.47 310.159 104.006 329.098 105.982C331.219 106.201 331.182 102.909 329.098 102.689C310.159 100.677 291.183 99.1408 272.171 98.0799C270.05 97.9701 270.05 101.263 272.171 101.372Z" fill="#161616"/>
<path d="M284.492 98.9579C284.785 96.141 285.991 88.8975 291.805 82.971C299.666 74.9592 313.377 72.1789 324.199 78.581C332.682 83.6295 337.617 93.2509 337.032 103.458C319.519 101.994 302.006 100.458 284.492 98.9579Z" fill="#CE6796"/>
<path opacity="0.11" d="M337.653 125.005C337.617 125.298 337.142 127.749 334.948 128.846C333.814 129.395 332.754 129.395 332.242 129.322C334.472 132.176 343.613 144.541 340.725 159.686C339.957 163.637 338.531 166.966 337.068 169.6C339.482 168.1 342.626 165.796 345.697 162.393C349.5 158.186 351.657 153.979 352.9 151.053C350.597 148.162 348.074 144.614 345.697 140.334C342.589 134.736 340.615 129.468 339.299 125.152C338.714 125.115 338.202 125.042 337.653 125.005Z" fill="#3D3D3D"/>
<path opacity="0.12" d="M297.069 112.384C295.753 117.432 294.4 122.518 293.084 127.566C294.583 128.151 296.082 128.737 297.545 129.322C297.398 123.652 297.252 118.018 297.069 112.384Z" fill="#3D3D3D"/>
<path opacity="0.69" d="M308.513 76.5689C304.747 80.0077 306.831 90.3974 313.449 101.409C321.273 102.104 329.098 102.836 336.922 103.531C337.178 100.311 337.215 94.0557 333.595 88.0561C327.416 77.8493 313.157 72.3618 308.513 76.5689Z" fill="#A44E75"/>
</svg>
