<svg width="8" height="8" viewBox="0 0 8 8" fill="none" xmlns="http://www.w3.org/2000/svg">
<path d="M4 0.5C3.30777 0.5 2.63108 0.705271 2.05551 1.08986C1.47993 1.47444 1.03133 2.02107 0.766423 2.66061C0.501516 3.30015 0.432205 4.00388 0.567253 4.68282C0.702301 5.36175 1.03564 5.98539 1.52513 6.47487C2.01461 6.96436 2.63825 7.2977 3.31719 7.43275C3.99612 7.5678 4.69985 7.49849 5.33939 7.23358C5.97894 6.96867 6.52556 6.52007 6.91015 5.9445C7.29473 5.36892 7.5 4.69223 7.5 4C7.5 3.07174 7.13125 2.1815 6.47488 1.52513C5.8185 0.868749 4.92826 0.5 4 0.5ZM4 5.5C3.70333 5.5 3.41332 5.41203 3.16665 5.2472C2.91997 5.08238 2.72771 4.84811 2.61418 4.57403C2.50065 4.29994 2.47095 3.99834 2.52882 3.70736C2.5867 3.41639 2.72956 3.14912 2.93934 2.93934C3.14912 2.72956 3.41639 2.5867 3.70737 2.52882C3.99834 2.47094 4.29994 2.50065 4.57403 2.61418C4.84812 2.72771 5.08238 2.91997 5.24721 3.16665C5.41203 3.41332 5.5 3.70333 5.5 4C5.5 4.39782 5.34197 4.77936 5.06066 5.06066C4.77936 5.34196 4.39783 5.5 4 5.5Z" fill="white"/>
</svg>
