<?xml version="1.0"?>
<svg width="11" height="13" xmlns="http://www.w3.org/2000/svg" xmlns:svg="http://www.w3.org/2000/svg">
 <g class="layer">
  <title>Layer 1</title>
  <path d="m1.72352,13l0,-1.926l-1.440004,0l0,-1.746l1.440004,0l0,-1.404l-1.440004,0l0,-2.232l1.440004,0l0,-5.544001l4.104,0c1.656,0 2.862,0.336 3.618,1.008001c0.76798,0.672 1.15198,1.596 1.15198,2.772c0,0.696 -0.156,1.35 -0.468,1.962c-0.31198,0.612 -0.83398,1.104 -1.56598,1.476c-0.72,0.372 -1.704,0.558 -2.952,0.558l-1.17,0l0,1.404l2.772,0l0,1.746l-2.772,0l0,1.926l-2.718,0zm2.718,-7.308l0.9,0c0.768,0 1.374,-0.132 1.818,-0.396c0.456,-0.264 0.684,-0.69 0.684,-1.278c0,-1.092 -0.72,-1.638 -2.16,-1.638l-1.242,0l0,3.312z" fill="#ffffff" id="svg_1"/>
 </g>
</svg>