<svg width="9" height="10" viewBox="0 0 9 10" fill="none" xmlns="http://www.w3.org/2000/svg">
<path d="M1.99472 10V8.096H0.776719V7.186H1.99472V5.94H0.776719V4.876H1.99472V0.00399935H4.62672C5.84939 0.00399935 6.75472 0.251333 7.34272 0.746C7.94005 1.24067 8.23872 1.95933 8.23872 2.902C8.23872 3.854 7.91672 4.60067 7.27272 5.142C6.62872 5.674 5.68139 5.94 4.43072 5.94H3.25472V7.186H5.56472V8.096H3.25472V10H1.99472ZM3.25472 4.876H4.24872C5.09805 4.876 5.75605 4.736 6.22272 4.456C6.69872 4.176 6.93672 3.672 6.93672 2.944C6.93672 2.30933 6.74072 1.838 6.34872 1.53C5.95672 1.222 5.34539 1.068 4.51472 1.068H3.25472V4.876Z" fill="#7A7A83"/>
</svg>
