<svg width="11" height="13" viewBox="0 0 11 13" fill="none" xmlns="http://www.w3.org/2000/svg">
<path d="M1.72352 13V11.074H0.283516V9.328H1.72352V7.924H0.283516V5.692H1.72352V0.147999H5.82752C7.48352 0.147999 8.68952 0.483999 9.44552 1.156C10.2135 1.828 10.5975 2.752 10.5975 3.928C10.5975 4.624 10.4415 5.278 10.1295 5.89C9.81752 6.502 9.29552 6.994 8.56352 7.366C7.84352 7.738 6.85952 7.924 5.61152 7.924H4.44152V9.328H7.21352V11.074H4.44152V13H1.72352ZM4.44152 5.692H5.34152C6.10952 5.692 6.71552 5.56 7.15952 5.296C7.61552 5.032 7.84352 4.606 7.84352 4.018C7.84352 2.926 7.12352 2.38 5.68352 2.38H4.44152V5.692Z" fill="black"/>
</svg>
