<svg width="10" height="13" viewBox="0 0 10 13" fill="none" xmlns="http://www.w3.org/2000/svg">
<path d="M1.746 13V10.552H0.18V9.382H1.746V7.78H0.18V6.412H1.746V0.147999H5.13C6.702 0.147999 7.866 0.465999 8.622 1.102C9.39 1.738 9.774 2.662 9.774 3.874C9.774 5.098 9.36 6.058 8.532 6.754C7.704 7.438 6.486 7.78 4.878 7.78H3.366V9.382H6.336V10.552H3.366V13H1.746ZM3.366 6.412H4.644C5.736 6.412 6.582 6.232 7.182 5.872C7.794 5.512 8.1 4.864 8.1 3.928C8.1 3.112 7.848 2.506 7.344 2.11C6.84 1.714 6.054 1.516 4.986 1.516H3.366V6.412Z" fill="#EDAF1F"/>
</svg>
