<svg width="32" height="32" viewBox="0 0 32 32" fill="none" xmlns="http://www.w3.org/2000/svg">
<path d="M15.9999 29.1334C15.534 29.1407 15.0743 29.0257 14.6666 28.8L14.2666 28.5734C11.151 26.8106 8.55894 24.2526 6.75522 21.1606C4.95151 18.0685 4.00071 14.5531 3.99992 10.9734V10.7867C3.9957 10.3146 4.11691 9.84975 4.35117 9.4398C4.58543 9.02984 4.92434 8.68944 5.33326 8.45337L14.6666 3.20004C15.072 2.96599 15.5318 2.84277 15.9999 2.84277C16.468 2.84277 16.9279 2.96599 17.3333 3.20004L26.6666 8.45337C27.0755 8.68944 27.4144 9.02984 27.6487 9.4398C27.8829 9.84975 28.0042 10.3146 27.9999 10.7867V10.9734C27.9965 14.5557 27.0417 18.0729 25.2331 21.1652C23.4246 24.2575 20.8272 26.8141 17.7066 28.5734L17.3066 28.8C16.9068 29.0213 16.4568 29.136 15.9999 29.1334ZM15.9999 5.53337L6.66659 10.7867V10.9734C6.66883 14.0815 7.49726 17.1332 9.06699 19.8158C10.6367 22.4984 12.8914 24.7155 15.5999 26.24L15.9999 26.4667L16.3999 26.24C19.1085 24.7155 21.3631 22.4984 22.9329 19.8158C24.5026 17.1332 25.331 14.0815 25.3333 10.9734V10.7867L15.9999 5.53337Z" fill="white"/>
</svg>
