<svg width="32" height="32" viewBox="0 0 32 32" fill="none" xmlns="http://www.w3.org/2000/svg">
<path d="M16 2.66675C23.364 2.66675 29.3334 8.63608 29.3334 16.0001C29.3334 23.3641 23.364 29.3334 16 29.3334C8.63602 29.3334 2.66669 23.3641 2.66669 16.0001C2.66669 8.63608 8.63602 2.66675 16 2.66675ZM16 5.33341C13.171 5.33341 10.4579 6.45722 8.45755 8.45761C6.45716 10.458 5.33335 13.1711 5.33335 16.0001C5.33335 18.8291 6.45716 21.5422 8.45755 23.5426C10.4579 25.5429 13.171 26.6667 16 26.6667C18.829 26.6667 21.5421 25.5429 23.5425 23.5426C25.5429 21.5422 26.6667 18.8291 26.6667 16.0001C26.6667 13.1711 25.5429 10.458 23.5425 8.45761C21.5421 6.45722 18.829 5.33341 16 5.33341ZM22.6667 17.3334C22.6667 19.1015 21.9643 20.7972 20.7141 22.0475C19.4638 23.2977 17.7681 24.0001 16 24.0001C14.2319 24.0001 12.5362 23.2977 11.286 22.0475C10.0357 20.7972 9.33335 19.1015 9.33335 17.3334H22.6667Z" fill="white"/>
</svg>
