<svg width="5" height="8" viewBox="0 0 5 8" fill="none" xmlns="http://www.w3.org/2000/svg">
<path d="M0.874954 7.75001C0.776249 7.75058 0.678403 7.73166 0.587024 7.69433C0.495646 7.65701 0.412534 7.60202 0.342454 7.53251C0.272158 7.46278 0.216362 7.37983 0.178286 7.28844C0.140209 7.19704 0.120605 7.09902 0.120605 7.00001C0.120605 6.901 0.140209 6.80297 0.178286 6.71157C0.216362 6.62018 0.272158 6.53723 0.342454 6.46751L2.82495 4.00001L0.439954 1.51751C0.300266 1.37699 0.22186 1.1869 0.22186 0.988758C0.22186 0.790618 0.300266 0.60053 0.439954 0.460008C0.509677 0.389712 0.592627 0.333916 0.684022 0.295839C0.775416 0.257763 0.873445 0.238159 0.972454 0.238159C1.07146 0.238159 1.16949 0.257763 1.26089 0.295839C1.35228 0.333916 1.43523 0.389712 1.50495 0.460008L4.39995 3.46001C4.53737 3.6002 4.61435 3.78869 4.61435 3.98501C4.61435 4.18132 4.53737 4.36981 4.39995 4.51001L1.39995 7.51001C1.33264 7.58271 1.25158 7.64135 1.16147 7.68254C1.07136 7.72373 0.973978 7.74666 0.874954 7.75001Z" fill="white"/>
</svg>
