<svg width="615" height="590" viewBox="0 0 615 590" fill="none" xmlns="http://www.w3.org/2000/svg">
<g clip-path="url(#clip0)">
<path d="M509.92 334.85C432.285 452.412 395.77 590 254.96 590C114.149 590 0 475.765 0 334.85C0 193.934 127.235 139.022 254.96 79.6996C669.818 -112.982 683.633 71.7975 509.92 334.85Z" fill="#3F3D56"/>
<path d="M482.547 115.702C508.895 115.702 530.254 94.3273 530.254 67.9596C530.254 41.592 508.895 20.2168 482.547 20.2168C456.199 20.2168 434.84 41.592 434.84 67.9596C434.84 94.3273 456.199 115.702 482.547 115.702Z" fill="#E6E6E6"/>
<path d="M477.854 40.5663C480.878 40.5663 483.329 38.1134 483.329 35.0876C483.329 32.0618 480.878 29.6089 477.854 29.6089C474.831 29.6089 472.38 32.0618 472.38 35.0876C472.38 38.1134 474.831 40.5663 477.854 40.5663Z" fill="#CBCBCB"/>
<path d="M487.239 95.3531C490.263 95.3531 492.714 92.9002 492.714 89.8744C492.714 86.8486 490.263 84.3958 487.239 84.3958C484.216 84.3958 481.765 86.8486 481.765 89.8744C481.765 92.9002 484.216 95.3531 487.239 95.3531Z" fill="#CBCBCB"/>
<path d="M508.356 63.2635C510.515 63.2635 512.266 61.5114 512.266 59.3501C512.266 57.1888 510.515 55.4368 508.356 55.4368C506.196 55.4368 504.445 57.1888 504.445 59.3501C504.445 61.5114 506.196 63.2635 508.356 63.2635Z" fill="#CBCBCB"/>
<path d="M463.777 84.3955C470.688 84.3955 476.29 78.7889 476.29 71.8728C476.29 64.9567 470.688 59.3501 463.777 59.3501C456.866 59.3501 451.264 64.9567 451.264 71.8728C451.264 78.7889 456.866 84.3955 463.777 84.3955Z" fill="#CBCBCB"/>
<path d="M318.309 149.357C322.628 149.357 326.13 145.853 326.13 141.531C326.13 137.208 322.628 133.704 318.309 133.704C313.989 133.704 310.488 137.208 310.488 141.531C310.488 145.853 313.989 149.357 318.309 149.357Z" fill="#00B0FF"/>
<path d="M527.908 169.707C532.227 169.707 535.729 166.202 535.729 161.88C535.729 157.557 532.227 154.053 527.908 154.053C523.588 154.053 520.087 157.557 520.087 161.88C520.087 166.202 523.588 169.707 527.908 169.707Z" fill="#00B0FF"/>
<path d="M434.839 181.447C437.431 181.447 439.532 179.344 439.532 176.751C439.532 174.157 437.431 172.055 434.839 172.055C432.248 172.055 430.147 174.157 430.147 176.751C430.147 179.344 432.248 181.447 434.839 181.447Z" fill="#E6E6E6"/>
<path d="M73.5162 329.371C76.1079 329.371 78.2088 327.269 78.2088 324.675C78.2088 322.081 76.1079 319.979 73.5162 319.979C70.9246 319.979 68.8237 322.081 68.8237 324.675C68.8237 327.269 70.9246 329.371 73.5162 329.371Z" fill="#E6E6E6"/>
<path d="M351.156 455.381C353.748 455.381 355.849 453.278 355.849 450.685C355.849 448.091 353.748 445.989 351.156 445.989C348.565 445.989 346.464 448.091 346.464 450.685C346.464 453.278 348.565 455.381 351.156 455.381Z" fill="#E6E6E6"/>
<path d="M424.674 316.094L422.332 318.422L420.005 316.078L418.444 317.63L420.77 319.974L418.428 322.302L419.979 323.865L422.321 321.536L424.648 323.88L426.209 322.328L423.882 319.984L426.225 317.657L424.674 316.094Z" fill="#00B0FF"/>
<path d="M114.186 392.796L111.843 395.123L109.518 392.779L107.956 394.331L110.282 396.676L107.94 399.003L109.491 400.566L111.833 398.238L114.159 400.582L115.721 399.03L113.394 396.686L115.737 394.358L114.186 392.796Z" fill="#E6E6E6"/>
<path d="M132.956 256.611L130.613 258.939L128.288 256.595L126.726 258.147L129.052 260.491L126.71 262.819L128.261 264.381L130.603 262.054L132.929 264.397L134.491 262.846L132.164 260.502L134.507 258.173L132.956 256.611Z" fill="#E6E6E6"/>
<path d="M541.987 111.817L539.644 114.145L537.318 111.801L535.757 113.353L538.083 115.697L535.741 118.025L537.292 119.587L539.634 117.26L541.96 119.603L543.522 118.052L541.195 115.708L543.538 113.379L541.987 111.817Z" fill="#E6E6E6"/>
<path d="M357.415 176.779L355.072 179.107L352.746 176.763L351.185 178.315L353.511 180.658L351.169 182.987L352.719 184.55L355.062 182.221L357.388 184.565L358.949 183.013L356.623 180.669L358.965 178.342L357.415 176.779Z" fill="#E6E6E6"/>
<path opacity="0.8" d="M373.659 292.83L397.422 264.99L421.185 237.15L434.599 221.434C435.342 220.564 434.196 219.208 433.454 220.077L409.691 247.917L385.928 275.757L372.513 291.473C371.771 292.343 372.917 293.699 373.659 292.83Z" fill="url(#paint0_linear)"/>
<path opacity="0.8" d="M331.426 393.012L355.189 365.172L378.952 337.332L392.366 321.615C393.109 320.746 391.963 319.389 391.221 320.259L367.458 348.099L343.695 375.939L330.28 391.655C329.538 392.524 330.684 393.881 331.426 393.012Z" fill="url(#paint1_linear)"/>
<path d="M211.554 238.973H256.133V256.528C256.133 259.552 254.932 262.453 252.795 264.591C250.658 266.73 247.76 267.932 244.738 267.932H222.95C219.927 267.932 217.029 266.73 214.892 264.591C212.755 262.453 211.554 259.552 211.554 256.528V238.973H211.554Z" fill="#2F2E41"/>
<path d="M270.993 472.208C260.841 482.501 250.674 482.57 240.492 472.54L232.67 403.333L227.196 472.685C217.02 480.927 207.537 482.036 199.041 472.991C190.936 413.071 186.53 357.405 193.566 314.892L178.707 254.626L212.336 238.973C219.109 255.737 208.428 264.312 232.58 264.025C256.521 263.741 254.733 254.728 253.787 238.973L284.723 250.88C287.358 251.894 289.507 253.876 290.732 256.421C291.957 258.966 292.165 261.883 291.315 264.577L275.685 314.109C281.702 339.113 275.524 408.668 270.993 472.208Z" fill="#E6E6E6"/>
<path d="M224.067 532.474C224.067 532.474 199.101 534.662 195.756 533.284C195.545 533.197 195.34 533.103 195.14 533C190.17 530.461 190.018 523.348 194.664 520.253L204.515 513.69L195.912 467.512L229.151 467.904L224.067 532.474Z" fill="#2F2E41"/>
<path d="M242.837 532.865C242.837 532.865 267.804 535.054 271.148 533.676C271.36 533.589 271.565 533.494 271.765 533.392C276.735 530.852 276.887 523.74 272.241 520.645L262.389 514.081L274.512 467.904H239.709L242.837 532.865Z" fill="#2F2E41"/>
<path d="M184.181 368.113L189.13 387.923C189.738 390.358 189.564 392.923 188.633 395.253C187.701 397.583 186.059 399.56 183.94 400.903C182.228 401.988 180.268 402.619 178.245 402.736C176.222 402.853 174.203 402.452 172.377 401.571C170.552 400.69 168.981 399.359 167.813 397.702C166.644 396.045 165.916 394.118 165.699 392.101L164.629 382.201L160.719 288.108C160.719 280.281 163.037 272.631 167.381 266.123C171.724 259.615 177.898 254.542 185.122 251.544L192.784 248.365L184.181 368.113Z" fill="#E6E6E6"/>
<path d="M308.533 287.326L308.509 287.882L305.35 363.832L304.74 378.507L304.622 381.419L303.551 391.319C303.375 392.947 302.867 394.52 302.058 395.943C301.249 397.365 300.156 398.606 298.848 399.588C297.539 400.57 296.043 401.272 294.452 401.651C292.86 402.029 291.208 402.077 289.598 401.789C287.988 401.502 286.454 400.887 285.092 399.981C283.729 399.076 282.568 397.899 281.679 396.526C280.79 395.152 280.193 393.609 279.924 391.995C279.656 390.38 279.723 388.728 280.12 387.14L285.07 367.331L284.961 365.859L284.304 356.655L276.467 247.582L284.132 250.76C291.351 253.764 297.521 258.84 301.863 265.347C306.205 271.854 308.526 279.502 308.533 287.326Z" fill="#E6E6E6"/>
<path d="M235.842 373.756C207.433 373.756 189.908 363.897 189.661 363.754L190.442 362.398C190.791 362.599 225.938 382.329 277.575 365.227L278.066 366.713C264.46 371.31 250.203 373.688 235.842 373.756Z" fill="#2F2E41"/>
<path d="M207.711 445.915C201.459 431.837 201.427 370.649 201.429 368.051L202.993 368.053C202.993 368.686 203.022 431.503 209.141 445.279L207.711 445.915Z" fill="#2F2E41"/>
<path d="M210.963 446.547C205.394 446.547 201.693 445.36 199.281 443.999C194.889 441.52 193.983 438.142 193.946 438L195.462 437.612L194.704 437.806L195.46 437.608C195.492 437.727 196.283 440.539 200.119 442.674C204.342 445.024 212.843 446.779 229.351 441.783L229.803 443.281C221.902 445.672 215.744 446.547 210.963 446.547Z" fill="#2F2E41"/>
<path d="M196.993 246.44L195.431 246.516L201.43 369.104L202.993 369.027L196.993 246.44Z" fill="#2F2E41"/>
<path d="M260.758 445.915L259.329 445.279C265.447 431.503 265.477 368.686 265.476 368.053L267.04 368.051C267.042 370.649 267.01 431.837 260.758 445.915Z" fill="#2F2E41"/>
<path d="M257.507 446.547C252.725 446.547 246.569 445.672 238.667 443.281L239.119 441.783C255.627 446.778 264.126 445.025 268.351 442.674C272.187 440.538 272.977 437.726 273.008 437.608L274.523 438C274.486 438.142 273.581 441.52 269.188 443.998C266.776 445.36 263.074 446.547 257.507 446.547Z" fill="#2F2E41"/>
<path d="M271.47 246.439L265.483 369.028L267.046 369.104L273.033 246.516L271.47 246.439Z" fill="#2F2E41"/>
<path d="M256.039 264.801L244.401 282.019H219.375L211.007 264.801H214.683L220.939 278.889H242.055L252.223 264.801H256.039Z" fill="#00B0FF"/>
<path d="M284.288 273.41L284.491 273.817L284.288 274.193V273.41Z" fill="black"/>
<path d="M310.097 287.326L310.073 287.882L295.237 292.194L286.056 273.817L295.449 256.583C300.025 260.291 303.716 264.976 306.251 270.295C308.785 275.614 310.099 281.433 310.097 287.326Z" fill="#00B0FF"/>
<path d="M159.756 287.326L159.78 287.882L174.616 292.194L183.798 273.817L174.405 256.583C169.828 260.291 166.137 264.976 163.603 270.295C161.068 275.614 159.754 281.433 159.756 287.326Z" fill="#00B0FF"/>
<path d="M233.844 251.887C256.736 251.887 275.294 233.315 275.294 210.405C275.294 187.496 256.736 168.924 233.844 168.924C210.951 168.924 192.393 187.496 192.393 210.405C192.393 233.315 210.951 251.887 233.844 251.887Z" fill="#E6E6E6"/>
<path d="M233.844 246.408C250.689 246.408 264.345 232.742 264.345 215.884C264.345 199.026 250.689 185.36 233.844 185.36C216.998 185.36 203.342 199.026 203.342 215.884C203.342 232.742 216.998 246.408 233.844 246.408Z" fill="#2F2E41"/>
<path d="M305.796 363.832L305.161 378.507L285.101 367.722L284.581 365.859L283.897 356.655L305.796 363.832Z" fill="#00B0FF"/>
<path d="M163.119 363.832L163.787 378.507L184.87 367.722L185.418 365.859L186.137 356.655L163.119 363.832Z" fill="#00B0FF"/>
<path d="M244.817 282.803H218.885L204.528 253.266L203.79 242.643L205.35 242.535L206.067 252.855L219.865 281.237H243.986L261.68 255.062L265.447 243.505L266.935 243.989L263.037 255.848L244.817 282.803Z" fill="#2F2E41"/>
</g>
<defs>
<linearGradient id="paint0_linear" x1="372.273" y1="256.454" x2="434.84" y2="256.454" gradientUnits="userSpaceOnUse">
<stop stop-color="white"/>
<stop offset="1" stop-color="white" stop-opacity="0.3"/>
</linearGradient>
<linearGradient id="paint1_linear" x1="39826.9" y1="39575.3" x2="45258.3" y2="39575.3" gradientUnits="userSpaceOnUse">
<stop stop-color="white"/>
<stop offset="1" stop-color="white" stop-opacity="0.3"/>
</linearGradient>
<clipPath id="clip0">
<rect width="615" height="590" fill="white"/>
</clipPath>
</defs>
</svg>
