<svg width="5" height="8" viewBox="0 0 5 8" fill="none" xmlns="http://www.w3.org/2000/svg">
<path d="M0.874954 7.75013C0.776249 7.7507 0.678402 7.73178 0.587024 7.69446C0.495646 7.65713 0.412534 7.60214 0.342454 7.53263C0.272158 7.46291 0.216362 7.37996 0.178286 7.28856C0.140209 7.19717 0.120605 7.09914 0.120605 7.00013C0.120605 6.90112 0.140209 6.80309 0.178286 6.7117C0.216362 6.6203 0.272158 6.53735 0.342454 6.46763L2.82495 4.00013L0.439954 1.51763C0.300266 1.37711 0.22186 1.18702 0.22186 0.98888C0.22186 0.790741 0.300266 0.600652 0.439954 0.46013C0.509676 0.389834 0.592627 0.334038 0.684022 0.295961C0.775416 0.257885 0.873445 0.238281 0.972454 0.238281C1.07146 0.238281 1.16949 0.257885 1.26089 0.295961C1.35228 0.334038 1.43523 0.389834 1.50495 0.46013L4.39995 3.46013C4.53737 3.60033 4.61435 3.78881 4.61435 3.98513C4.61435 4.18144 4.53737 4.36993 4.39995 4.51013L1.39995 7.51013C1.33264 7.58283 1.25158 7.64147 1.16147 7.68266C1.07136 7.72386 0.973978 7.74679 0.874954 7.75013Z" fill="white"/>
</svg>
