<svg width="19" height="19" viewBox="0 0 19 19" fill="none" xmlns="http://www.w3.org/2000/svg">
<g clip-path="url(#clip0)">
<path d="M5.26562 7.88873C5.26505 7.78985 5.28397 7.69183 5.32129 7.60029C5.35861 7.50876 5.41361 7.4255 5.48312 7.35529C5.55284 7.28488 5.63579 7.22898 5.72719 7.19084C5.81858 7.15269 5.91661 7.13306 6.01562 7.13306C6.11463 7.13306 6.21266 7.15269 6.30405 7.19084C6.39544 7.22898 6.4784 7.28488 6.54812 7.35529L9.01562 9.84215L11.4981 7.45297C11.6386 7.31303 11.8287 7.23449 12.0269 7.23449C12.225 7.23449 12.4151 7.31303 12.5556 7.45297C12.6259 7.52281 12.6817 7.60591 12.7198 7.69746C12.7579 7.78902 12.7775 7.88722 12.7775 7.9864C12.7775 8.08558 12.7579 8.18379 12.7198 8.27534C12.6817 8.3669 12.6259 8.44999 12.5556 8.51984L9.55562 11.4199C9.41542 11.5576 9.22693 11.6347 9.03062 11.6347C8.8343 11.6347 8.64581 11.5576 8.50562 11.4199L5.50562 8.41465C5.43292 8.34722 5.37428 8.26602 5.33309 8.17575C5.29189 8.08548 5.26896 7.98793 5.26562 7.88873Z" fill="#010101"/>
</g>
<defs>
<clipPath id="clip0">
<rect width="18.0316" height="18" fill="white" transform="translate(18.0156) rotate(90)"/>
</clipPath>
</defs>
</svg>
