<svg width="85" height="14" viewBox="0 0 85 14" fill="none" xmlns="http://www.w3.org/2000/svg">
<path d="M3.9883 0.28655L5.6164 4.18567C5.74753 4.51998 6.0644 5.37963 6.56704 6.76462C7.06967 8.14961 7.40476 9.08431 7.57231 9.56871C7.75442 9.09113 8.09316 8.16326 8.58851 6.78509C9.08386 5.4001 9.40802 4.5268 9.561 4.1652L11.1672 0.28655H15.0681L9.45173 13.7237H5.7366L0 0.28655H3.9883Z" fill="white"/>
<path d="M16.7509 13.7237V0.28655H20.3786V13.7237H16.7509Z" fill="white"/>
<path d="M37.1841 6.20175V7.74708C37.1841 8.97515 36.8672 10.0668 36.2334 11.0219C35.5997 11.9703 34.7219 12.7037 33.6001 13.2222C32.4855 13.7407 31.218 14 29.7975 14C28.3042 14 26.993 13.7135 25.8639 13.1404C24.742 12.5673 23.8715 11.7622 23.2523 10.7251C22.6332 9.68129 22.3236 8.47368 22.3236 7.10234C22.3236 5.71735 22.6441 4.48928 23.2851 3.41813C23.9335 2.34016 24.8331 1.50097 25.9841 0.900585C27.1423 0.300195 28.4681 0 29.9614 0C31.2144 0 32.3398 0.20809 33.3378 0.624269C34.3358 1.04045 35.148 1.62378 35.7745 2.37427C36.401 3.12476 36.798 3.98099 36.9655 4.94298H33.1193C32.908 4.36988 32.5147 3.92641 31.9392 3.61257C31.3637 3.29873 30.6826 3.14181 29.8959 3.14181C28.7012 3.14181 27.7688 3.5 27.0986 4.21637C26.4284 4.92593 26.0933 5.87427 26.0933 7.0614C26.0933 8.26218 26.4321 9.19347 27.1095 9.85526C27.787 10.5171 28.7012 10.848 29.8522 10.848C30.6753 10.848 31.3929 10.691 32.0048 10.3772C32.6239 10.0634 33.0319 9.63353 33.2286 9.08772H29.8303V6.20175H37.1841Z" fill="white"/>
<path d="M39.3476 0.28655H45.1716C49.098 0.28655 51.0575 1.77388 51.0503 4.74854C51.0503 5.6423 50.8499 6.42008 50.4493 7.08187C50.0486 7.73684 49.4659 8.24513 48.701 8.60672L51.236 13.7237H47.1603L45.0842 9.20029H42.9753V13.7237H39.3476V0.28655ZM45.1498 6.30409C45.8636 6.30409 46.3881 6.154 46.7232 5.8538C47.0583 5.55361 47.2259 5.18519 47.2259 4.74854C47.2259 4.33236 47.0656 3.97417 46.7451 3.67398C46.4246 3.37378 45.9001 3.22368 45.1716 3.22368H42.9753V6.30409H45.1498Z" fill="white"/>
<path d="M68.0852 7C68.0852 8.37817 67.7538 9.596 67.0909 10.6535C66.428 11.711 65.5029 12.5331 64.3155 13.1199C63.1281 13.7066 61.7732 14 60.2507 14C58.7428 14 57.3988 13.71 56.2187 13.1301C55.0458 12.5502 54.1244 11.7315 53.4542 10.674C52.7913 9.61647 52.4598 8.39864 52.4598 7.02047C52.4598 5.64912 52.7876 4.43129 53.4432 3.36696C54.1061 2.29581 55.0276 1.46686 56.2077 0.880117C57.3951 0.293372 58.7501 0 60.2725 0C61.7804 0 63.1281 0.293372 64.3155 0.880117C65.5029 1.46686 66.428 2.28899 67.0909 3.34649C67.7538 4.39717 68.0852 5.61501 68.0852 7ZM64.239 7C64.239 5.84016 63.8747 4.90887 63.1463 4.20614C62.4251 3.49659 61.4745 3.14181 60.2944 3.14181C59.0997 3.14181 58.1345 3.5 57.3988 4.21637C56.663 4.92593 56.2952 5.86062 56.2952 7.02047C56.2952 8.18031 56.6594 9.10819 57.3878 9.80409C58.1163 10.5 59.0779 10.848 60.2725 10.848C61.4526 10.848 62.4069 10.4966 63.1354 9.79386C63.8711 9.09113 64.239 8.15984 64.239 7Z" fill="white"/>
<path d="M85 0.28655V13.7237H81.4597V12.7617C81.4597 10.9605 81.5435 9.3538 81.711 7.94152L79.023 13.345H75.8214L73.4285 8.08479C73.6106 9.87232 73.7016 11.4313 73.7016 12.7617V13.7237H70.2487V0.28655H73.4066L77.5697 9.56871L81.8203 0.28655H85Z" fill="white"/>
</svg>
