<svg width="85" height="40" viewBox="0 0 85 40" fill="none" xmlns="http://www.w3.org/2000/svg">
<path d="M3.9883 13.2865L5.6164 17.1857C5.74753 17.52 6.0644 18.3796 6.56704 19.7646C7.06967 21.1496 7.40476 22.0843 7.57231 22.5687C7.75442 22.0911 8.09316 21.1633 8.58851 19.7851C9.08386 18.4001 9.40802 17.5268 9.561 17.1652L11.1672 13.2865H15.0681L9.45173 26.7237H5.7366L0 13.2865H3.9883Z" fill="white"/>
<path d="M16.7509 26.7237V13.2865H20.3786V26.7237H16.7509Z" fill="white"/>
<path d="M37.1841 19.2018V20.7471C37.1841 21.9751 36.8672 23.0668 36.2334 24.0219C35.5997 24.9703 34.7219 25.7037 33.6001 26.2222C32.4855 26.7407 31.218 27 29.7975 27C28.3042 27 26.993 26.7135 25.8639 26.1404C24.742 25.5673 23.8715 24.7622 23.2523 23.7251C22.6332 22.6813 22.3236 21.4737 22.3236 20.1023C22.3236 18.7173 22.6441 17.4893 23.2851 16.4181C23.9335 15.3402 24.8331 14.501 25.9841 13.9006C27.1423 13.3002 28.4681 13 29.9614 13C31.2144 13 32.3398 13.2081 33.3378 13.6243C34.3358 14.0404 35.148 14.6238 35.7745 15.3743C36.401 16.1248 36.798 16.981 36.9655 17.943H33.1193C32.908 17.3699 32.5147 16.9264 31.9392 16.6126C31.3637 16.2987 30.6826 16.1418 29.8959 16.1418C28.7012 16.1418 27.7688 16.5 27.0986 17.2164C26.4284 17.9259 26.0933 18.8743 26.0933 20.0614C26.0933 21.2622 26.4321 22.1935 27.1095 22.8553C27.787 23.5171 28.7012 23.848 29.8522 23.848C30.6753 23.848 31.3929 23.691 32.0048 23.3772C32.6239 23.0634 33.0319 22.6335 33.2286 22.0877H29.8303V19.2018H37.1841Z" fill="white"/>
<path d="M39.3476 13.2865H45.1716C49.098 13.2865 51.0575 14.7739 51.0503 17.7485C51.0503 18.6423 50.8499 19.4201 50.4493 20.0819C50.0486 20.7368 49.4659 21.2451 48.701 21.6067L51.236 26.7237H47.1603L45.0842 22.2003H42.9753V26.7237H39.3476V13.2865ZM45.1498 19.3041C45.8636 19.3041 46.3881 19.154 46.7232 18.8538C47.0583 18.5536 47.2259 18.1852 47.2259 17.7485C47.2259 17.3324 47.0656 16.9742 46.7451 16.674C46.4246 16.3738 45.9001 16.2237 45.1716 16.2237H42.9753V19.3041H45.1498Z" fill="white"/>
<path d="M68.0852 20C68.0852 21.3782 67.7538 22.596 67.0909 23.6535C66.428 24.711 65.5029 25.5331 64.3155 26.1199C63.1281 26.7066 61.7732 27 60.2507 27C58.7428 27 57.3988 26.71 56.2187 26.1301C55.0458 25.5502 54.1244 24.7315 53.4542 23.674C52.7913 22.6165 52.4598 21.3986 52.4598 20.0205C52.4598 18.6491 52.7876 17.4313 53.4432 16.367C54.1061 15.2958 55.0276 14.4669 56.2077 13.8801C57.3951 13.2934 58.7501 13 60.2725 13C61.7804 13 63.1281 13.2934 64.3155 13.8801C65.5029 14.4669 66.428 15.289 67.0909 16.3465C67.7538 17.3972 68.0852 18.615 68.0852 20ZM64.239 20C64.239 18.8402 63.8747 17.9089 63.1463 17.2061C62.4251 16.4966 61.4745 16.1418 60.2944 16.1418C59.0997 16.1418 58.1345 16.5 57.3988 17.2164C56.663 17.9259 56.2952 18.8606 56.2952 20.0205C56.2952 21.1803 56.6594 22.1082 57.3878 22.8041C58.1163 23.5 59.0779 23.848 60.2725 23.848C61.4526 23.848 62.4069 23.4966 63.1354 22.7939C63.8711 22.0911 64.239 21.1598 64.239 20Z" fill="white"/>
<path d="M85 13.2865V26.7237H81.4597V25.7617C81.4597 23.9605 81.5435 22.3538 81.711 20.9415L79.023 26.345H75.8214L73.4285 21.0848C73.6106 22.8723 73.7016 24.4313 73.7016 25.7617V26.7237H70.2487V13.2865H73.4066L77.5697 22.5687L81.8203 13.2865H85Z" fill="white"/>
<path d="M61.366 38.5C60.9811 39.1667 60.0189 39.1667 59.634 38.5L57.4689 34.75C57.084 34.0833 57.5651 33.25 58.3349 33.25L62.6651 33.25C63.4349 33.25 63.916 34.0833 63.5311 34.75L61.366 38.5Z" fill="#A15276"/>
<path d="M59.634 1.5C60.0189 0.833332 60.9811 0.833333 61.366 1.5L63.5311 5.25C63.916 5.91667 63.4349 6.75 62.6651 6.75L58.3349 6.75C57.5651 6.75 57.084 5.91667 57.4689 5.25L59.634 1.5Z" fill="#EDAF1F"/>
</svg>
